<?xml version="1.0" encoding="utf-8"?>
<!-- Generator: Adobe Illustrator 19.1.0, SVG Export Plug-In . SVG Version: 6.00 Build 0)  -->
<svg version="1.1" id="Capa_1" xmlns="http://www.w3.org/2000/svg" xmlns:xlink="http://www.w3.org/1999/xlink" x="0px" y="0px"
	 viewBox="0 0 262 82" style="enable-background:new 0 0 262 82;" xml:space="preserve">
<style type="text/css">
	.st0{fill:#231F20;}
</style>
<g>
	<g>
		<g>
			<g>
				<path class="st0" d="M22.3,70.9c0.1-0.2,0.1-0.4,0.2-0.5c0.1-0.8,0.2-1.6,0.3-2.3c0.2-1,0.4-2.1,0.7-3.1
					c0.3-1.1,0.7-2.1,1.1-3.1c0.2-0.7,0.6-1.3,0.9-1.9c0.8-1.5,1.7-3,2.8-4.3c0.1-0.1,0.2-0.2,0.3-0.3c1.1-1,2.1-2.1,3.2-3.1
					c0.6-0.6,1-1,1.6-1.4c0.1-0.9,0-0.9,0.1-1.2c0.2-1.8,0.5-3.3,0.8-5.1c0.2-0.9,0.6-2.3,0.7-3.2c0.4-1.3,0.7-2.4,1.2-3.6
					c0.6-1.5,1.1-3,1.8-4.5c0.9-2.1,1.8-4.2,3-6.1c0.7-1.1,1.2-2.2,2-3.2c1.6-2.2,3.1-4.5,5.1-6.4c1.5-1.4,3-2.8,4.9-3.7
					c0.1-0.1,0.2-0.2,0.3-0.2c0.2,0,0.4,0,0.6,0c0.5,0.8,0.4,1.6,0.2,2.4c-0.2,1.2-0.6,2.3-1,3.5c-1.1,3.2-2.3,6.3-3.4,9.5
					c-0.3,0.9-0.7,1.9-1,2.8c-0.5,1.3-1,2.5-1.4,3.8c-0.7,2-1.3,4.1-2,6.2c-0.3,0.9-0.7,1.8-1,2.7c-0.1,0.2,0,0.4-0.1,0.6
					c0.2,0,0.3,0,0.5-0.1c2.2-0.6,4.4-1,6.6-1.1c0.9,0,1.7-0.1,2.6-0.1c0.6,0,1.2,0.1,1.8,0.1c0.3,0,0.4,0.3,0.4,0.6
					c0,0.3-0.2,0.5-0.5,0.5c-0.3,0-0.5-0.1-0.8-0.1c-1.7,0-3.5-0.2-5.2,0c-1.9,0.2-3.8,0.5-5.6,1.2c-0.1,0.1-0.3,0.2-0.4,0.3
					c-0.5,1.3-0.9,2.6-1.4,4c-0.6,1.6-1.1,3.1-1.8,4.6c-0.5,1.3-1.2,2.6-1.8,3.9c-0.6,1.3-1.1,2.5-1.8,3.7c-0.8,1.6-1.7,3.1-2.6,4.7
					c-1,1.9-2.2,3.6-3.4,5.3c-1.3,1.8-2.8,3.4-4.7,4.5c-1.3,0.8-2.6,0.5-3.3-1.1c-0.2-0.5-0.3-1-0.5-1.4
					C22.3,73.3,22.3,72.1,22.3,70.9z M53.1,14.5c-0.1,0-0.1-0.1-0.2-0.1c-0.4,0.2-0.8,0.4-1.1,0.7c-1.4,1.1-2.8,2-4,3.4
					c-0.8,1-1.7,1.9-2.5,2.9c-0.8,1-1.5,2.2-2.2,3.3c-0.7,1.1-1.4,2.2-2,3.3c-0.8,1.4-1.5,2.8-2.1,4.2c-0.5,1.2-1,2.4-1.4,3.6
					c-0.5,1.3-1.1,2.6-1.4,3.9c-0.5,1.9-1,3.8-1.3,5.7c0,0,0,0,0,0c-0.1,0.9-0.3,1.8-0.4,2.8c-0.1,0.7-0.2,1.3-0.3,2
					c0,0,0.1,0,0.1-0.1c0.9-0.6,1.7-1.3,2.7-1.8c1.8-1.1,3.7-2.1,5.7-3c0.2-0.1,0.3-0.3,0.4-0.4c0.2-0.7,0.4-1.5,0.6-2.2
					c0.2-0.8,0.6-1.5,0.8-2.2c0.3-0.8,0.5-1.7,0.7-2.5c0.2-0.5,0.4-1,0.6-1.6c0.5-1.5,1-3,1.6-4.5c0.6-1.5,1.1-3.1,1.7-4.6
					c0.9-2.5,1.8-4.9,2.7-7.4c0.2-0.4,0.4-0.8,0.5-1.2c0.1-0.5,0.8-2.5,0.9-3C53.4,14.9,53.2,14.4,53.1,14.5z M33.7,51.8
					c-0.1,0-0.1,0-0.2,0.1c-0.9,0.8-1.9,1.7-2.8,2.5c-1.2,1.1-2.4,2.3-3.2,3.8c-0.7,1.4-1.5,2.7-2.1,4.1c-0.5,1.2-0.8,2.6-1.2,3.8
					c-0.5,1.6-0.8,3.3-0.9,4.9c-0.1,1.4-0.1,2.7,0.1,4.1c0.1,0.6,0.6,1.2,1.2,1.3c0.7,0.1,1.2-0.2,1.7-0.6c1.4-1.1,2.6-2.3,3.6-3.8
					c0.7-1.1,1.4-2.1,2.1-3.1c0.9-1.4,1.8-2.9,2.7-4.4c0.6-1.1,1.2-2.2,1.7-3.4c1.5-3.4,3.1-6.9,4.6-10.4c0.3-0.7,0.5-1.4,0.7-2.1
					c0.2-0.7,0.4-1.4,0.7-2.1c-2.9,1.3-5.5,2.8-7.9,4.7c0.1,0.3,0.1,0.6,0.3,0.8c0.2,0.3,0.5,0.8,0.8,0.9c1,0.4,1.6,0.2,2.3-0.7
					c0.4-0.5,0.4-0.5,0.8-0.1c-0.4,1.2-1.2,1.9-2.4,1.9C34.9,54.1,34,53.2,33.7,51.8z"/>
				<path class="st0" d="M24.7,77.6c-0.2,0-0.4,0-0.6-0.1c-0.6-0.2-1.1-0.7-1.4-1.5c-0.1-0.3-0.2-0.7-0.3-1c0-0.2-0.1-0.3-0.1-0.5
					c0,0,0,0,0,0v-3.6c0,0,0,0,0,0c0-0.1,0-0.1,0.1-0.2c0-0.1,0.1-0.2,0.1-0.4c0-0.3,0.1-0.6,0.1-0.9c0.1-0.5,0.1-1,0.2-1.4
					c0.2-1,0.4-2.1,0.7-3.1c0.3-1.1,0.7-2.2,1.1-3.1c0.2-0.6,0.5-1.2,0.8-1.8l0.1-0.1c0.8-1.6,1.7-3,2.8-4.3c0,0,0.1-0.1,0.1-0.1
					c0.1-0.1,0.1-0.2,0.2-0.2c0.3-0.3,0.6-0.6,0.8-0.8c0.8-0.8,1.5-1.5,2.3-2.3c0.2-0.2,0.4-0.4,0.5-0.5c0.3-0.3,0.6-0.6,1-0.9
					c0-0.4,0-0.6,0-0.7c0-0.2,0-0.3,0-0.5c0.2-1.8,0.5-3.3,0.8-5.1c0.1-0.5,0.2-1.1,0.4-1.7c0.1-0.5,0.3-1.1,0.3-1.5
					c0.4-1.4,0.8-2.5,1.2-3.6l0.3-0.7c0.5-1.2,0.9-2.5,1.5-3.8c1-2.3,1.9-4.2,3-6.1c0.2-0.4,0.5-0.8,0.7-1.2c0.4-0.7,0.8-1.4,1.3-2
					c0.3-0.5,0.7-0.9,1-1.4c1.2-1.7,2.5-3.5,4.1-5c1.4-1.4,3-2.8,5-3.8c0.1,0,0.1-0.1,0.2-0.1c0,0,0.1-0.1,0.1-0.1c0,0,0,0,0.1,0
					h0.6c0,0,0.1,0,0.1,0c0.6,0.8,0.4,1.8,0.2,2.5c-0.2,1-0.5,2.1-1,3.5c-0.9,2.6-1.8,5.1-2.7,7.6l-0.7,1.8
					c-0.3,0.7-0.5,1.5-0.8,2.2l-0.2,0.6c-0.2,0.4-0.3,0.8-0.5,1.2c-0.3,0.8-0.7,1.7-1,2.6c-0.4,1.2-0.8,2.4-1.2,3.6
					c-0.3,0.8-0.5,1.7-0.8,2.5c-0.2,0.5-0.4,1.1-0.5,1.6c-0.1,0.4-0.3,0.8-0.4,1.2c0,0.1,0,0.2-0.1,0.4c0,0,0,0.1,0,0.1
					c0,0,0,0,0.1,0c0.1,0,0.2,0,0.3-0.1c2.2-0.6,4.4-1,6.6-1.1c0.4,0,0.8,0,1.2-0.1c0.5,0,0.9-0.1,1.4-0.1c0.4,0,0.9,0,1.3,0.1
					c0.2,0,0.3,0,0.5,0.1c0.4,0,0.5,0.4,0.5,0.7c0,0.4-0.2,0.6-0.6,0.6c0,0,0,0,0,0c-0.1,0-0.3,0-0.4,0c-0.1,0-0.3,0-0.4,0
					c-0.5,0-1,0-1.5,0c-1.2,0-2.5-0.1-3.7,0.1c-1.7,0.2-3.7,0.5-5.6,1.2c-0.1,0.1-0.3,0.2-0.3,0.3c-0.2,0.6-0.4,1.2-0.6,1.8
					c-0.2,0.7-0.5,1.4-0.7,2.1c-0.5,1.4-1.1,3.1-1.8,4.6c-0.4,0.9-0.8,1.9-1.3,2.8c-0.2,0.4-0.3,0.7-0.5,1.1c-0.2,0.3-0.3,0.7-0.5,1
					c-0.4,0.9-0.8,1.8-1.3,2.7c-0.5,1-1,1.9-1.6,2.9c-0.3,0.6-0.7,1.2-1,1.8c-0.9,1.7-2.1,3.5-3.4,5.4c-1.5,2.1-3,3.5-4.7,4.5
					C25.6,77.4,25.1,77.6,24.7,77.6z M22.4,74.5c0,0.1,0.1,0.3,0.1,0.4c0.1,0.3,0.2,0.7,0.3,1c0.3,0.7,0.7,1.2,1.3,1.4
					c0.6,0.2,1.2,0.1,1.9-0.3c1.7-1,3.2-2.4,4.7-4.5c1.4-1.9,2.5-3.6,3.4-5.3c0.3-0.6,0.7-1.2,1-1.8c0.5-0.9,1.1-1.9,1.6-2.9
					c0.5-0.9,0.9-1.8,1.3-2.7c0.2-0.3,0.3-0.7,0.5-1c0.2-0.4,0.3-0.7,0.5-1.1c0.4-0.9,0.9-1.8,1.3-2.8c0.6-1.6,1.2-3.2,1.8-4.6
					c0.3-0.7,0.5-1.4,0.7-2.1c0.2-0.6,0.4-1.2,0.6-1.8c0.1-0.2,0.3-0.3,0.4-0.4c1.9-0.7,3.9-1,5.6-1.2c1.2-0.1,2.5-0.1,3.7-0.1
					c0.5,0,1,0,1.5,0c0.1,0,0.3,0,0.4,0c0.1,0,0.3,0,0.4,0c0,0,0,0,0,0c0.3,0,0.4-0.1,0.4-0.4c0-0.3-0.1-0.4-0.3-0.5
					c-0.2,0-0.3,0-0.5-0.1c-0.4,0-0.9-0.1-1.3-0.1c-0.5,0-0.9,0-1.4,0.1c-0.4,0-0.8,0.1-1.2,0.1c-2.2,0.1-4.4,0.4-6.6,1
					c-0.1,0-0.2,0-0.3,0.1c-0.1,0-0.1,0-0.2,0c0,0-0.1,0-0.1,0c0,0,0,0,0-0.1c0-0.1,0-0.2,0-0.2c0-0.1,0-0.3,0.1-0.4
					c0.1-0.4,0.3-0.8,0.4-1.2c0.2-0.5,0.4-1,0.5-1.6c0.3-0.8,0.5-1.7,0.8-2.5c0.4-1.2,0.8-2.4,1.2-3.6c0.3-0.9,0.6-1.8,1-2.6
					c0.2-0.4,0.3-0.8,0.5-1.2l0.2-0.6c0.3-0.7,0.6-1.5,0.8-2.2l0.7-1.8c0.9-2.5,1.8-5.1,2.7-7.6c0.5-1.4,0.8-2.4,1-3.4
					c0.2-0.8,0.3-1.6-0.2-2.3h-0.5c0,0,0,0-0.1,0.1c-0.1,0.1-0.1,0.1-0.2,0.2c-1.9,0.9-3.5,2.4-4.9,3.7c-1.6,1.5-2.8,3.3-4,5
					c-0.3,0.5-0.7,1-1,1.4c-0.5,0.6-0.9,1.3-1.3,2c-0.2,0.4-0.5,0.8-0.7,1.2c-1.2,1.9-2,3.8-3,6.1c-0.5,1.2-1,2.5-1.5,3.8l-0.3,0.7
					c-0.4,1.2-0.8,2.3-1.2,3.6c-0.1,0.4-0.2,1-0.3,1.5c-0.1,0.6-0.3,1.2-0.4,1.7c-0.3,1.8-0.5,3.3-0.8,5.1c0,0.2,0,0.3,0,0.5
					c0,0.2,0,0.4,0,0.8c0,0,0,0,0,0.1c-0.4,0.3-0.7,0.6-1,0.9c-0.2,0.2-0.3,0.3-0.5,0.5c-0.8,0.7-1.6,1.5-2.3,2.3
					c-0.3,0.3-0.6,0.6-0.8,0.8c-0.1,0.1-0.1,0.1-0.2,0.2c0,0-0.1,0.1-0.1,0.1c-1,1.3-2,2.7-2.8,4.3l-0.1,0.1
					c-0.3,0.6-0.6,1.2-0.8,1.8c-0.4,1-0.8,2-1.1,3.1c-0.3,1-0.5,2.1-0.7,3.1c-0.1,0.5-0.2,0.9-0.2,1.4c0,0.3-0.1,0.6-0.1,0.9
					c0,0.1-0.1,0.3-0.1,0.4c0,0.1,0,0.1-0.1,0.2V74.5z M24.9,76.5c-0.1,0-0.2,0-0.3,0c-0.6-0.1-1.2-0.7-1.3-1.4
					c-0.2-1.4-0.2-2.7-0.1-4.1c0.1-1.7,0.4-3.4,0.9-5c0.1-0.4,0.2-0.8,0.4-1.2c0.3-0.9,0.5-1.8,0.9-2.7c0.5-1.1,1.1-2.3,1.7-3.3
					c0.1-0.3,0.3-0.5,0.4-0.8c0.9-1.6,2.1-2.8,3.2-3.9c0.9-0.8,1.9-1.7,2.8-2.5c0,0,0.1-0.1,0.1-0.1c0,0,0,0,0.1,0c0,0,0.1,0,0.1,0
					c0,0,0,0,0,0.1c0.2,1,0.9,2.2,2.5,2.2c0,0,0,0,0,0c1.1,0,1.9-0.6,2.2-1.8c-0.1-0.1-0.2-0.2-0.3-0.2c-0.1,0-0.2,0.2-0.3,0.3
					c-0.7,0.9-1.4,1.1-2.4,0.7c-0.3-0.1-0.5-0.5-0.7-0.8c0-0.1-0.1-0.1-0.1-0.2c-0.1-0.2-0.1-0.3-0.2-0.5c0-0.1,0-0.2-0.1-0.3
					c0,0,0-0.1,0-0.1c2.1-1.7,4.6-3.2,7.9-4.7c0,0,0.1,0,0.1,0c0,0,0,0.1,0,0.1c-0.1,0.2-0.1,0.5-0.2,0.7c-0.2,0.5-0.3,1-0.5,1.4
					c0,0.1-0.1,0.3-0.1,0.4c-0.2,0.6-0.4,1.1-0.6,1.7c-1.6,3.7-3.1,7.1-4.6,10.4c-0.5,1.1-1,2.3-1.7,3.4c-0.9,1.6-1.8,3.1-2.7,4.4
					c-0.3,0.5-0.7,1-1,1.5c-0.4,0.5-0.7,1.1-1.1,1.6c-1,1.6-2.3,2.8-3.6,3.8C26,76.2,25.5,76.5,24.9,76.5z M33.6,51.9
					C33.6,51.9,33.6,51.9,33.6,51.9c-1,0.9-1.9,1.7-2.8,2.5c-1.1,1-2.4,2.3-3.2,3.8c-0.1,0.3-0.3,0.5-0.4,0.8
					c-0.6,1.1-1.2,2.2-1.7,3.3c-0.4,0.8-0.6,1.8-0.9,2.6c-0.1,0.4-0.2,0.8-0.4,1.2c-0.5,1.6-0.8,3.2-0.9,4.9c-0.1,1.3-0.1,2.7,0.1,4
					c0.1,0.6,0.6,1.1,1.2,1.2c0.7,0.1,1.2-0.3,1.7-0.6c1.3-1,2.6-2.2,3.6-3.8c0.3-0.6,0.7-1.1,1.1-1.6c0.3-0.5,0.7-1,1-1.5
					c0.8-1.3,1.8-2.8,2.7-4.4c0.6-1.1,1.2-2.3,1.7-3.4c1.5-3.3,3-6.7,4.6-10.4c0.2-0.5,0.4-1.1,0.6-1.7c0-0.1,0.1-0.3,0.1-0.4
					c0.2-0.5,0.3-0.9,0.4-1.4c0.1-0.2,0.1-0.3,0.2-0.5c-3.1,1.4-5.6,2.9-7.6,4.6c0,0.1,0,0.1,0.1,0.2c0,0.2,0.1,0.3,0.2,0.5
					c0,0.1,0.1,0.1,0.1,0.2c0.2,0.3,0.4,0.6,0.6,0.7c0.9,0.4,1.5,0.2,2.2-0.7c0.2-0.3,0.3-0.4,0.5-0.4c0.2,0,0.3,0.1,0.5,0.3
					c0,0,0,0.1,0,0.1c-0.4,1.3-1.3,2-2.4,2c0,0,0,0,0,0C34.9,54.1,34,53.3,33.6,51.9z M34.1,50.3C34.1,50.3,34.1,50.3,34.1,50.3
					C34.1,50.2,34,50.2,34.1,50.3c-0.1-0.1-0.1-0.1-0.1-0.1l0.1-0.6c0.1-0.5,0.2-0.9,0.2-1.4c0.1-0.6,0.2-1.3,0.3-1.9l0.1-0.8
					c0,0,0,0,0,0c0.3-1.7,0.7-3.3,1.1-4.9c0.1-0.3,0.2-0.6,0.2-0.9c0.3-1,0.7-2.1,1.1-3c0.1-0.3,0.2-0.6,0.3-0.9l0.1-0.3
					c0.4-1.1,0.8-2.2,1.3-3.2c0.6-1.4,1.4-2.8,2.1-4.2c0.5-1,1.1-1.9,1.7-2.8l0.3-0.5c0.1-0.2,0.3-0.4,0.4-0.6
					c0.6-0.9,1.2-1.8,1.8-2.7c0.4-0.6,0.9-1.1,1.4-1.6c0.4-0.4,0.8-0.9,1.1-1.3c0.8-1,1.9-1.8,2.9-2.6c0.3-0.3,0.7-0.5,1-0.8
					c0.2-0.2,0.5-0.4,0.8-0.5c0.1-0.1,0.2-0.1,0.4-0.2c0,0,0.1,0,0.1,0l0.1,0.1c0,0,0.1,0,0.1,0c0.2,0.1,0.2,0.7,0.1,1.4
					c-0.1,0.4-0.6,2.2-0.8,2.8l0,0.1c-0.1,0.2-0.2,0.4-0.3,0.7c-0.1,0.2-0.2,0.4-0.2,0.5c-0.6,1.7-1.2,3.3-1.8,5
					c-0.3,0.8-0.6,1.6-0.9,2.4c-0.2,0.6-0.4,1.1-0.6,1.7c-0.4,1-0.7,1.9-1.1,2.9c-0.3,0.7-0.5,1.5-0.8,2.2c-0.3,0.8-0.5,1.5-0.8,2.2
					c-0.1,0.2-0.2,0.5-0.3,0.7c-0.1,0.3-0.2,0.6-0.3,0.9c-0.1,0.4-0.2,0.8-0.4,1.2c-0.1,0.4-0.2,0.9-0.4,1.3
					c-0.1,0.4-0.3,0.8-0.4,1.1c-0.1,0.4-0.3,0.7-0.4,1.1c-0.1,0.4-0.2,0.8-0.3,1.2c-0.1,0.3-0.2,0.7-0.3,1c-0.1,0.2-0.2,0.4-0.4,0.5
					c-1.8,0.8-3.7,1.7-5.7,2.9c-0.6,0.4-1.2,0.8-1.8,1.2c-0.3,0.2-0.6,0.4-0.9,0.6C34.3,50.2,34.2,50.3,34.1,50.3z M53,14.5
					c-0.1,0.1-0.2,0.1-0.3,0.2c-0.3,0.1-0.5,0.3-0.8,0.5c-0.3,0.3-0.7,0.5-1,0.8c-1,0.8-2.1,1.5-2.9,2.6c-0.4,0.5-0.8,0.9-1.1,1.3
					c-0.5,0.5-0.9,1.1-1.4,1.6c-0.6,0.8-1.2,1.8-1.8,2.6c-0.1,0.2-0.3,0.4-0.4,0.6l-0.3,0.5c-0.6,0.9-1.2,1.8-1.7,2.8
					c-0.8,1.4-1.5,2.8-2.1,4.2c-0.5,1-0.9,2.2-1.3,3.2l-0.1,0.3c-0.1,0.3-0.2,0.6-0.3,0.9c-0.4,1-0.8,2-1,3
					c-0.1,0.3-0.2,0.6-0.2,0.9c-0.4,1.6-0.8,3.2-1.1,4.8c0,0,0,0,0,0l-0.1,0.8c-0.1,0.7-0.2,1.3-0.3,1.9c-0.1,0.5-0.1,0.9-0.2,1.4
					L34.3,50c0.3-0.2,0.6-0.4,0.8-0.6c0.6-0.4,1.2-0.8,1.8-1.2c2-1.2,3.9-2.2,5.7-3c0.1-0.1,0.3-0.2,0.3-0.4c0.1-0.3,0.2-0.7,0.3-1
					c0.1-0.4,0.2-0.8,0.3-1.2c0.1-0.4,0.3-0.8,0.4-1.1c0.1-0.4,0.3-0.7,0.4-1.1c0.1-0.4,0.2-0.9,0.4-1.3c0.1-0.4,0.2-0.8,0.4-1.3
					c0.1-0.3,0.2-0.6,0.3-0.9c0.1-0.2,0.2-0.5,0.3-0.7c0.3-0.7,0.5-1.5,0.8-2.2c0.3-0.8,0.5-1.5,0.8-2.2c0.4-1,0.7-1.9,1.1-2.9
					c0.2-0.6,0.4-1.1,0.6-1.7c0.3-0.8,0.6-1.6,0.9-2.4c0.6-1.7,1.2-3.3,1.8-5c0.1-0.2,0.2-0.4,0.3-0.6c0.1-0.2,0.2-0.4,0.3-0.6
					l0-0.1c0.2-0.6,0.8-2.4,0.8-2.8c0.1-0.7,0.1-1.1,0-1.2c0,0,0,0,0,0L53,14.5z"/>
			</g>
			<g>
				<path class="st0" d="M182.4,44.8c-1-0.6-2.1-0.3-3-0.4c-0.9,0-1.9,0.1-2.8,0.3c-1,0.2-2,0.6-2.9,0.8c-0.7,0.2-1.5,0.3-2.1,0.7
					c-1.3,1-2.7,2-4,2.9c-0.8,0.6-1.3,1.4-1.8,2.3c-0.5,0.9-1,1.9-1.5,2.8c-1,1.8-2,3.6-3.1,5.4c-0.5,0.8-1.1,1.4-1.6,2.2
					c-0.5,0.7-1,1.5-1.5,2.2c-0.2,0.3-0.5,0.5-0.7,0.7c-0.5,0.5-0.9,1-1.4,1.5c-0.1,0.1-0.5,0.3-0.6,0.2c-0.2-0.1-0.4-0.3-0.5-0.6
					c-0.2-0.7,0.3-1.3,0.5-2c0.6-1.7,1.8-3.1,2.7-4.6c1-1.6,2.1-3.2,3.2-4.7c0.6-0.9,1.2-1.7,1.9-2.6c0.4-0.5,0.9-0.8,1.3-1.3
					c0.5-0.8,1-1.7,1.4-2.6c0.4-0.8,0.8-1.6,1.2-2.5c0.1-0.1,0.1-0.2,0.1-0.3c-1.3,0.6-2.5,1.3-3.8,1.8c-1.1,0.4-2.3,0.7-3.5,1
					c-0.4,0.1-0.9,0.1-1.4,0.1c-0.8,0-1.1-0.5-1.2-1.1c-0.1-0.7,0.1-1.2,0.6-1.7c0.9-1,2-1.7,3.2-2.2c0.2-0.1,0.3-0.2,0.4-0.2
					c0,0,0-0.1-0.1-0.1c-0.8,0.2-1.6,0.4-2.4,0.6c-2.3,0.5-4.5,1-6.8,1.4c-1,0.2-2,0-3-0.5c-0.2-0.1-0.3-0.2-0.5-0.4
					c-0.1,0.1-0.2,0.2-0.3,0.4c-0.5,0.6-0.9,1.3-1.4,1.9c-0.7,0.8-1.4,1.7-2.2,2.4c-0.6,0.6-1.2,1.1-1.8,1.6
					c-0.5,0.4-0.9,0.8-1.3,1.3c-0.4,0.3-0.7,0.4-1,0.1c-0.2-0.3-0.2-0.8,0.1-1.1c0.5-0.5,1-0.9,1.5-1.4c0.6-0.7,1.2-1.4,1.8-2.1
					c0.4-0.5,0.1-1-0.6-1.1c-1-0.2-1.9,0.1-2.9,0.3c-1.3,0.3-2.6,0.8-3.9,1c-1.1,0.2-2.2,0.3-3.2,0c-0.9-0.3-1.4,0.2-2,0.6
					c-0.1,0.1-0.2,0.1-0.3,0.2c-0.6,0.3-1.3,0.6-1.9,0.8c-1.2,0.5-2.4,1.1-3.6,1.5c-0.7,0.3-1.5,0.5-2.2,0.6c-0.7,0.2-1.5-0.4-1.5-1
					c0-0.4,0.3-0.7,0.7-0.7c0.3,0,0.6,0,1-0.1c-0.1,0.2-0.2,0.4-0.3,0.6c0.6-0.2,1.3-0.3,2-0.5c1.8-0.7,3.6-1.5,5.5-2.2
					c0.8-0.3,0.9-0.6,0.4-1.3c-0.4-0.6-0.2-1.9,0.1-2.5c0.3-0.6,0.7-1.2,1.2-1.6c0.7-0.5,1.5-1,2.3-1.3c0.6-0.2,1.3-0.2,1.9-0.1
					c0.8,0.1,1.4,0.9,1.4,1.7c0,0.1,0,0.3,0,0.3c-1.2,1.3-1.9,3-3.6,3.7c0,0.1,0,0.1,0.1,0.2c1-0.1,2-0.2,2.9-0.4c1-0.2,2-0.5,3-0.6
					c0.9-0.2,1.8-0.3,2.8-0.3c0.5,0,1,0.1,1.5,0.3c0.2,0.1,0.4,0.4,0.5,0.6c0.1,0.3,0.2,0.6,0.3,1.1c0.8-1,1.6-1.9,2.3-2.9
					c0.3-0.4,0.5-1,0.6-1.6c0.2-0.5,0.6-0.8,1.1-0.7c0.3,0.1,0.4,0.6,0.2,1.1c-0.2,0.5,0.2,1,0.9,1.1c0.7,0,1.4,0,2-0.1
					c0.2,0,0.4-0.1,0.6-0.1c1.2-0.2,2.5-0.5,3.7-0.7c0.9-0.2,1.7-0.4,2.6-0.6c1.4-0.3,2.9-0.7,4.3-1c0.8-0.2,1.5-0.3,2.3-0.4
					c0.4-0.1,0.6,0.1,0.7,0.4c0.1,0.3,0.2,0.6-0.2,0.9c-1,0.6-2,1-3,1.3c-0.5,0.2-1,0.4-1.5,0.7c-0.9,0.5-1.8,1-2.6,1.5
					c-0.4,0.3-0.7,0.7-0.9,1.1c-0.2,0.2-0.1,0.5,0.3,0.4c1-0.2,2-0.4,3-0.7c0.8-0.2,1.6-0.6,2.4-0.9c1.1-0.5,2.3-1,3.1-1.9
					c0.1-0.1,0.2-0.3,0.3-0.3c0.2-0.1,0.5-0.1,0.7,0c0.1,0,0.2,0.3,0.2,0.5c0,0.4-0.1,0.7-0.2,1.1c-0.2,0.6-0.4,1.2-0.6,1.8
					c-0.1,0.3-0.3,0.6-0.5,1c0.8-0.5,1.4-1,2.2-1.4c1-0.6,2.1-1.1,3.1-1.5c0.6-0.3,1.3-0.6,1.9-0.8c1.4-0.3,2.9-0.5,4.3-0.7
					c0.9-0.1,1.8,0,2.7-0.1c0.4,0,1.6,0.7,1.7,1.1c0.1,0.6,0,1.2-0.6,1.6c-1.1,0.7-2.3,1.4-3.4,2c-0.1,0.1-0.2,0.1-0.3,0.3
					c1.8-0.4,3.2-1.5,4.5-2.8c0.4-0.4,0.8-0.9,1.2-1.3c0.3-0.3,0.9-0.4,1-0.1c0.1,0.3,0.2,0.7,0.1,1c-0.2,0.4-0.6,0.7-0.9,1.1
					c-0.2,0.3-0.4,0.7-0.6,1.1c1.3,0.5,2.4-0.1,3.5-0.5c0.5-0.2,0.9-0.4,1.4-0.6c1.5-0.7,3.1-1.4,4.6-2c0.4-0.2,0.9-0.3,1.3-0.4
					c0.8-0.1,1,0.2,0.9,1.1c0,0.4-0.3,0.7-0.4,1.1c0.6-0.4,1.3-0.7,1.9-1.2c1.7-1.3,3.6-2,5.7-2.4c0.7-0.1,1.5-0.4,2.2-0.4
					c0.8,0,1.5,0.1,2.3,0.2c0.5,0.1,1,0.2,1.5,0.3c0.3,0.1,0.7,0.6,0.5,1c-0.1,0.2-0.5,0.5-0.7,0.5c-0.8,0-1.4,0.4-2,0.7
					c-0.2,0.1-0.4,0.4-0.6,0.6c0,0.1,0.1,0.1,0.1,0.2c0.7-0.2,1.3-0.3,2-0.5c0.6-0.1,1.1-0.3,1.7-0.5c0.8-0.3,1.7-0.5,2.5-0.8
					c0.9-0.4,1.1-0.3,1.5,0.5c-0.4,0.8-0.9,1.5-1.2,2.3c-0.2,0.5,0,0.9,0.6,1.2c1.4,0.6,2.8,1,4.3,1.2c2.4,0.3,4.7,0.6,7.1,0.8
					c2.3,0.2,4.5,0.2,6.8,0.3c1.9,0.1,3.8,0.3,5.7,0.4c0.8,0.1,1.6,0.1,2.4,0.1c0.6,0,0.8,0.2,0.8,0.7c0,0.4-0.3,0.7-0.8,0.7
					c-0.7,0.1-1.4,0.1-2.1,0.2c-0.1,0-0.2,0-0.3,0c-0.3,0-0.5,0.1-0.8,0c-0.1,0-0.1-0.4-0.1-0.7c-0.8-0.1-1.7-0.2-2.6-0.2
					c-1.8-0.1-3.6-0.1-5.4-0.2c-2.1-0.1-4.2-0.3-6.4-0.4c-1.3-0.1-2.7-0.2-4-0.4c-1.3-0.2-2.6-0.4-3.8-0.8c-0.8-0.3-1.6-0.8-2.3-1.3
					c-0.6-0.4-0.6-1.6-0.2-2.3c0.1-0.2,0.2-0.3,0.2-0.5c-0.5-0.2-0.9,0.2-1.3,0.3c-1,0.3-1.9,0.6-2.9,0.8c-0.6,0.1-1.3,0.1-2,0.2
					c-0.1,0-0.2,0-0.3,0c-0.8-0.3-1.1-1.1-0.5-1.8c0.2-0.3,0.4-0.5,0.6-0.7c0.2-0.2,0.5-0.4,0.8-0.7c-1,0-1.9,0-2.8,0.1
					c-0.6,0.1-1.2,0.3-1.8,0.5c-0.3,0.1-0.6,0.2-1,0.3c-1.8,0.5-3.1,1.8-4.6,2.7c-1.1,0.7-2.1,1.4-3.2,2.1c-0.4,0.2-0.9,0.2-1.1,0
					c-0.2-0.3-0.2-0.8,0.1-1.2c0.6-0.7,1.2-1.4,1.8-2.2c0-0.1,0.1-0.1,0.2-0.3c-0.3,0.2-0.5,0.3-0.8,0.4c-1.1,0.5-2.2,0.8-3.2,1.4
					c-1.2,0.6-2.4,1.2-3.7,1.5c-0.8,0.2-1.7,0.2-2.5,0.2c-0.6,0-0.8-0.5-0.9-1c-0.5,0.4-1,0.9-1.6,1.2c-1.3,0.6-2.7,1.1-4.1,0.5
					c-0.4-0.2-0.3-0.5-0.3-0.8c0-0.4,0.2-0.7,0.5-0.9c0.3-0.1,0.5-0.2,0.8-0.4c1.1-0.6,2.2-1.3,3.2-1.9
					C182,45.2,182.2,45,182.4,44.8z M133.3,45.5c0,0,0.2-0.1,0.3-0.1c0.4-0.3,0.9-0.7,1.3-0.9c0.9-0.6,1.6-1.4,2.2-2.3
					c0.3-0.4,0.1-0.7-0.4-0.7c-1,0-1.9,0-2.7,0.7c-0.3,0.3-0.8,0.5-1,0.9c-0.3,0.4-0.4,1-0.6,1.5C132.3,45,132.7,45.5,133.3,45.5z
					 M159.3,60.3c0,0,0.1,0.1,0.1,0.1c1.2-1.6,2.4-3.3,3.3-5.2c0,0-0.1,0-0.1-0.1C161.5,56.9,160.4,58.6,159.3,60.3z"/>
				<path class="st0" d="M155.5,66.8c0,0-0.1,0-0.1,0c-0.2-0.1-0.5-0.4-0.5-0.6c-0.1-0.6,0.1-1.1,0.3-1.5c0.1-0.2,0.1-0.3,0.2-0.5
					c0.4-1.2,1.1-2.3,1.9-3.3c0.3-0.4,0.6-0.9,0.9-1.3c0.8-1.3,1.7-2.6,2.6-3.9c0.2-0.3,0.4-0.6,0.6-0.9c0.7-1,1.3-1.8,1.9-2.6
					c0.2-0.2,0.4-0.4,0.6-0.6c0.3-0.2,0.5-0.5,0.7-0.7c0.4-0.7,0.8-1.4,1.2-2.1c0.1-0.2,0.2-0.3,0.3-0.5c0.3-0.6,0.6-1.2,0.9-1.8
					c0.1-0.2,0.2-0.5,0.3-0.7c0,0,0-0.1,0-0.1c-0.3,0.2-0.6,0.3-0.9,0.5c-0.9,0.4-1.7,0.9-2.6,1.2c-1,0.4-2,0.7-3,0.9l-0.5,0.1
					c-0.4,0.1-0.9,0.1-1.4,0.1c-1,0-1.2-0.7-1.2-1.2c-0.1-0.7,0.1-1.3,0.6-1.8c0.9-1,1.9-1.7,3.3-2.3c0.1,0,0.2-0.1,0.3-0.2
					c0,0,0,0,0.1,0l0,0c-0.2,0.1-0.5,0.1-0.7,0.2c-0.5,0.1-1.1,0.3-1.7,0.4c-0.5,0.1-1,0.2-1.5,0.3c-1.7,0.4-3.5,0.8-5.3,1.1
					c-1,0.2-2.1,0-3-0.5c-0.1-0.1-0.2-0.2-0.3-0.3c0,0-0.1-0.1-0.1-0.1c0,0,0,0,0,0c-0.1,0.1-0.2,0.2-0.2,0.3
					c-0.2,0.2-0.3,0.4-0.4,0.6c-0.3,0.4-0.6,0.9-0.9,1.3c-0.7,0.9-1.5,1.7-2.2,2.4c-0.4,0.4-0.8,0.7-1.1,1c-0.2,0.2-0.5,0.4-0.7,0.6
					c-0.3,0.3-0.6,0.5-0.8,0.8c-0.2,0.2-0.3,0.3-0.5,0.5c-0.4,0.4-0.8,0.4-1.1,0.1c-0.3-0.3-0.2-0.9,0.1-1.2
					c0.2-0.2,0.4-0.4,0.6-0.5c0.3-0.3,0.6-0.6,0.9-0.9c0.6-0.7,1.2-1.4,1.8-2.1c0.1-0.2,0.2-0.4,0.1-0.6c-0.1-0.2-0.3-0.4-0.6-0.4
					c-0.9-0.2-1.8,0-2.6,0.2l-0.2,0c-0.5,0.1-1,0.3-1.6,0.4c-0.8,0.2-1.6,0.4-2.4,0.6c-1,0.2-2.2,0.3-3.2,0
					c-0.8-0.2-1.2,0.1-1.6,0.4c-0.1,0.1-0.2,0.1-0.3,0.2c0,0-0.1,0-0.1,0.1c-0.1,0-0.1,0.1-0.2,0.1c-0.6,0.3-1.3,0.6-1.9,0.8
					c-0.3,0.1-0.7,0.3-1,0.4c-0.9,0.4-1.8,0.8-2.6,1.1c-0.7,0.3-1.5,0.5-2.2,0.7c-0.4,0.1-0.9,0-1.2-0.3c-0.3-0.2-0.4-0.5-0.4-0.8
					c0-0.5,0.3-0.8,0.8-0.8c0.2,0,0.4,0,0.6,0c0.1,0,0.2,0,0.4,0c0,0,0.1,0,0.1,0c0,0,0,0.1,0,0.1l-0.2,0.4c0.1,0,0.3-0.1,0.4-0.1
					c0.5-0.1,0.9-0.2,1.3-0.4c1.4-0.5,2.8-1.1,4.2-1.7c0.4-0.2,0.8-0.3,1.2-0.5c0.4-0.2,0.6-0.3,0.6-0.4c0-0.1,0-0.4-0.3-0.7
					c-0.4-0.6-0.2-2,0.1-2.6c0.4-0.8,0.8-1.3,1.3-1.6c0.7-0.5,1.5-1,2.3-1.3c0.6-0.2,1.3-0.2,2-0.1c0.4,0,0.8,0.2,1,0.6
					c0.3,0.4,0.4,0.8,0.4,1.3c0,0.1,0,0.2,0,0.3c0,0,0,0.1,0,0.1c-0.3,0.4-0.6,0.8-0.9,1.1c-0.8,1-1.5,2-2.7,2.5l0,0
					c0.3,0,0.6-0.1,0.8-0.1c0.7-0.1,1.3-0.2,2-0.3c0.5-0.1,1-0.2,1.5-0.3c0.5-0.1,1-0.2,1.5-0.3c1.1-0.2,2-0.3,2.8-0.3
					c0.5,0,1.1,0.1,1.5,0.3c0.2,0.1,0.4,0.4,0.5,0.6c0.1,0.2,0.2,0.4,0.2,0.7c0,0.1,0,0.2,0.1,0.2c0.2-0.3,0.4-0.5,0.6-0.7
					c0.6-0.7,1.1-1.3,1.6-2c0.3-0.4,0.4-0.8,0.5-1.3c0-0.1,0.1-0.2,0.1-0.2c0.1-0.3,0.3-0.5,0.6-0.7c0.2-0.1,0.4-0.1,0.7,0
					c0.1,0,0.2,0.2,0.3,0.3c0.1,0.2,0.1,0.6,0,0.9c-0.1,0.2,0,0.4,0.1,0.5c0.2,0.2,0.4,0.4,0.8,0.4c0.5,0,1,0,1.5,0
					c0.2,0,0.3,0,0.5,0c0.1,0,0.2,0,0.4-0.1c0.1,0,0.1,0,0.2,0c0.4-0.1,0.8-0.1,1.2-0.2c0.8-0.2,1.7-0.3,2.5-0.5
					c0.6-0.1,1.2-0.3,1.8-0.4c0.3-0.1,0.5-0.1,0.8-0.2c0.4-0.1,0.9-0.2,1.3-0.3c1-0.2,2-0.5,3.1-0.7c0.5-0.1,1-0.2,1.5-0.3
					c0.3,0,0.5-0.1,0.8-0.1c0.4-0.1,0.7,0.1,0.8,0.5l0,0c0.1,0.3,0.2,0.7-0.3,0.9c-1,0.6-2.1,1-3,1.3c-0.5,0.2-0.9,0.4-1.5,0.7
					l-0.1,0c-0.8,0.5-1.7,0.9-2.5,1.5c-0.4,0.2-0.6,0.6-0.9,1c-0.1,0.1-0.1,0.2,0,0.3c0,0.1,0.1,0.1,0.2,0l0.5-0.1
					c0.8-0.2,1.7-0.3,2.6-0.6c0.7-0.2,1.3-0.5,1.9-0.7c0.1-0.1,0.3-0.1,0.4-0.2c1-0.4,2.2-1,3.1-1.9c0,0,0,0,0.1-0.1
					c0.1-0.1,0.2-0.2,0.3-0.2c0.2-0.1,0.5-0.1,0.8,0c0.2,0.1,0.3,0.4,0.3,0.6c0,0.4-0.1,0.8-0.2,1.1c-0.2,0.7-0.4,1.3-0.6,1.8
					c-0.1,0.2-0.2,0.4-0.3,0.6c0,0,0,0,0,0c0.1-0.1,0.3-0.2,0.4-0.3c0.5-0.3,1-0.7,1.5-1c1-0.6,2.1-1,3.1-1.5l0.1,0
					c0.1,0,0.2-0.1,0.3-0.2c0.5-0.3,1.1-0.5,1.6-0.6c1.3-0.3,2.8-0.5,4.3-0.7c0.6-0.1,1.2-0.1,1.8-0.1c0.3,0,0.6,0,0.8,0
					c0,0,0,0,0,0c0.4,0,1.7,0.7,1.8,1.2c0.1,0.5,0.1,1.3-0.6,1.7c-0.8,0.5-1.6,1-2.4,1.4c-0.3,0.2-0.6,0.4-1,0.6
					c1.4-0.4,2.7-1.3,4-2.6c0.2-0.2,0.5-0.5,0.7-0.8c0.2-0.2,0.3-0.4,0.5-0.6c0.2-0.2,0.6-0.3,0.8-0.3c0.1,0,0.3,0.1,0.3,0.2
					c0.1,0.3,0.2,0.8,0.1,1.1c-0.1,0.3-0.3,0.5-0.5,0.7c-0.1,0.1-0.3,0.3-0.4,0.4c-0.2,0.2-0.3,0.4-0.4,0.7c0,0.1-0.1,0.2-0.1,0.3
					c1,0.3,1.9,0,2.8-0.4c0.2-0.1,0.4-0.1,0.5-0.2c0.5-0.2,1-0.4,1.4-0.6c0.5-0.2,1.1-0.5,1.6-0.7c1-0.4,2-0.9,3-1.3
					c0.4-0.2,0.9-0.3,1.3-0.4c0.4-0.1,0.7,0,0.8,0.1c0.2,0.2,0.2,0.5,0.2,1.1c0,0.3-0.2,0.5-0.3,0.8c0,0,0,0,0,0.1
					c0.1-0.1,0.2-0.1,0.4-0.2c0.4-0.3,0.9-0.5,1.3-0.8c1.6-1.2,3.4-2,5.7-2.5c0.2,0,0.4-0.1,0.6-0.1c0.5-0.1,1-0.2,1.6-0.3
					c0.6,0,1.2,0.1,1.8,0.2c0.2,0,0.3,0.1,0.5,0.1c0.4,0,0.7,0.1,1,0.2c0.1,0,0.3,0.1,0.4,0.1c0.2,0,0.4,0.3,0.6,0.5
					c0.1,0.2,0.1,0.4,0,0.6c-0.1,0.3-0.5,0.5-0.8,0.5c0,0,0,0,0,0c-0.7,0-1.3,0.4-1.9,0.7c-0.1,0.1-0.3,0.2-0.4,0.4
					c0,0.1-0.1,0.1-0.1,0.2l0,0.1c0.2,0,0.3-0.1,0.5-0.1c0.5-0.1,0.9-0.2,1.4-0.3c0.5-0.1,1.1-0.3,1.7-0.5c0.2-0.1,0.4-0.1,0.6-0.2
					c0.6-0.2,1.3-0.4,1.9-0.6c0.9-0.4,1.2-0.3,1.7,0.5c0,0,0,0.1,0,0.1c-0.1,0.2-0.3,0.5-0.4,0.7c-0.3,0.5-0.6,1.1-0.8,1.6
					c-0.2,0.4,0,0.8,0.6,1.1c1.3,0.6,2.7,1,4.3,1.2c0.7,0.1,1.4,0.2,2,0.2c1.6,0.2,3.3,0.4,5,0.5c1.3,0.1,2.7,0.1,4,0.2
					c0.9,0,1.9,0.1,2.9,0.1c1.2,0.1,2.5,0.2,3.7,0.3c0.7,0.1,1.3,0.1,2,0.2c0.5,0,1.1,0.1,1.6,0.1l0.7,0c0.6,0,0.8,0.3,0.8,0.8
					c0,0.4-0.4,0.8-0.9,0.8c-0.7,0.1-1.4,0.1-2.1,0.2c0,0-0.1,0-0.1,0c0,0-0.1,0-0.1,0c-0.1,0-0.1,0-0.2,0c-0.2,0-0.4,0.1-0.6,0
					c-0.1,0-0.1-0.2-0.1-0.5c0-0.1,0-0.1,0-0.2c-0.2,0-0.5,0-0.7-0.1c-0.6-0.1-1.2-0.1-1.8-0.1c-0.8,0-1.6-0.1-2.4-0.1
					c-1,0-2-0.1-3-0.1c-2-0.1-4.2-0.3-6.4-0.4c-1.2-0.1-2.6-0.2-4-0.4c-1.1-0.2-2.6-0.4-3.9-0.8c-0.8-0.3-1.6-0.8-2.4-1.3
					c-0.6-0.5-0.6-1.7-0.2-2.4c0.1-0.1,0.1-0.2,0.2-0.3c0,0,0-0.1,0-0.1c-0.3-0.1-0.6,0.1-0.8,0.2c-0.1,0-0.2,0.1-0.3,0.1
					c-1,0.3-2,0.6-2.9,0.8c-0.5,0.1-0.9,0.1-1.4,0.2c-0.2,0-0.4,0-0.6,0c-0.1,0-0.2,0-0.3,0c-0.4-0.1-0.7-0.4-0.8-0.8
					c-0.1-0.4,0-0.8,0.3-1.1c0.2-0.3,0.4-0.5,0.6-0.7c0.1-0.1,0.3-0.3,0.5-0.4c0,0,0.1-0.1,0.1-0.1c-0.2,0-0.4,0-0.7,0
					c-0.7,0-1.3,0-1.9,0.1c-0.4,0.1-0.9,0.2-1.3,0.3c-0.2,0-0.3,0.1-0.5,0.1c-0.2,0-0.3,0.1-0.5,0.2c-0.2,0.1-0.3,0.1-0.5,0.2
					c-1.2,0.3-2.2,1-3.2,1.7c-0.4,0.3-0.9,0.6-1.4,0.9c-0.7,0.4-1.5,0.9-2.2,1.4c-0.3,0.2-0.7,0.5-1,0.7c-0.4,0.3-1,0.2-1.2,0
					c-0.3-0.3-0.2-0.9,0.1-1.3c0.6-0.7,1.1-1.4,1.7-2l0.1-0.1c0,0,0,0,0-0.1c0,0,0,0-0.1,0c-0.2,0.1-0.3,0.2-0.5,0.2
					c-0.3,0.1-0.7,0.3-1,0.4c-0.7,0.3-1.5,0.6-2.2,1c-1.1,0.6-2.3,1.2-3.7,1.5c-0.8,0.2-1.6,0.2-2.3,0.2l-0.2,0
					c-0.6,0-0.8-0.5-1-0.9l0,0c-0.1,0.1-0.3,0.2-0.4,0.3c-0.3,0.3-0.7,0.6-1.1,0.8c-1.2,0.6-2.6,1.1-4.2,0.5
					c-0.4-0.2-0.4-0.4-0.4-0.7c0-0.1,0-0.1,0-0.2c0-0.4,0.2-0.7,0.6-0.9c0.1-0.1,0.2-0.1,0.4-0.2c0.1-0.1,0.3-0.1,0.4-0.2
					c1-0.6,2.1-1.3,3.2-1.9c0.2-0.1,0.3-0.2,0.4-0.4c0,0,0.1-0.1,0.1-0.1c-0.7-0.4-1.4-0.3-2.1-0.3c-0.2,0-0.5,0-0.7,0
					c-0.8,0-1.7,0.1-2.8,0.3c-0.6,0.1-1.2,0.3-1.7,0.5c-0.4,0.1-0.8,0.3-1.2,0.4c-0.1,0-0.3,0.1-0.4,0.1c-0.6,0.1-1.1,0.3-1.6,0.6
					c-0.7,0.5-1.4,1-2.2,1.6c-0.6,0.5-1.3,0.9-1.9,1.4c-0.8,0.6-1.3,1.5-1.7,2.3l-0.3,0.6c-0.4,0.7-0.8,1.5-1.2,2.2l-0.3,0.5
					c-0.9,1.6-1.8,3.3-2.8,4.9c-0.3,0.5-0.6,0.9-0.9,1.4c-0.2,0.3-0.4,0.5-0.6,0.8c-0.2,0.3-0.5,0.7-0.7,1c-0.3,0.4-0.5,0.8-0.8,1.2
					c-0.1,0.2-0.3,0.3-0.4,0.4c-0.1,0.1-0.2,0.2-0.3,0.3c-0.2,0.2-0.3,0.4-0.5,0.6c-0.3,0.3-0.6,0.7-0.9,1
					C156,66.7,155.7,66.8,155.5,66.8z M167.3,45.4C167.3,45.4,167.4,45.5,167.3,45.4c0.1,0.1,0.1,0.1,0.1,0.1l0,0.1
					c0,0.1-0.1,0.2-0.1,0.2c-0.1,0.2-0.2,0.5-0.3,0.7c-0.3,0.6-0.6,1.2-0.9,1.8c-0.1,0.2-0.2,0.3-0.3,0.5c-0.4,0.7-0.7,1.4-1.2,2.1
					c-0.2,0.3-0.5,0.5-0.7,0.8c-0.2,0.2-0.4,0.4-0.6,0.6c-0.6,0.7-1.2,1.6-1.9,2.6c-0.2,0.3-0.4,0.6-0.6,0.9
					c-0.9,1.3-1.8,2.6-2.6,3.9c-0.3,0.5-0.6,0.9-0.9,1.3c-0.7,1-1.4,2-1.8,3.2c-0.1,0.2-0.1,0.4-0.2,0.5c-0.2,0.5-0.4,0.9-0.3,1.4
					c0,0.2,0.2,0.4,0.4,0.5c0.1,0,0.4-0.1,0.5-0.2c0.3-0.3,0.6-0.6,0.9-0.9c0.2-0.2,0.3-0.4,0.5-0.6c0.1-0.1,0.2-0.2,0.3-0.3
					c0.2-0.1,0.3-0.3,0.4-0.4c0.3-0.4,0.5-0.8,0.8-1.2c0.2-0.3,0.5-0.7,0.7-1c0.2-0.3,0.4-0.6,0.6-0.8c0.3-0.4,0.7-0.9,0.9-1.3
					c1-1.6,1.9-3.3,2.8-4.9l0.3-0.5c0.4-0.7,0.8-1.5,1.2-2.2l0.3-0.6c0.4-0.8,0.9-1.7,1.8-2.3c0.6-0.5,1.3-0.9,1.9-1.4
					c0.7-0.5,1.4-1,2.2-1.6c0.5-0.4,1.1-0.5,1.7-0.7c0.1,0,0.3-0.1,0.4-0.1c0.4-0.1,0.8-0.2,1.2-0.4c0.6-0.2,1.1-0.4,1.7-0.5
					c1.1-0.2,2-0.3,2.8-0.3c0.2,0,0.5,0,0.7,0c0.8,0,1.5-0.1,2.4,0.4c0,0,0,0,0,0.1c0,0,0,0.1,0,0.1c-0.1,0.1-0.2,0.1-0.2,0.2
					c-0.2,0.2-0.3,0.3-0.5,0.4c-1.1,0.7-2.2,1.3-3.2,1.9c-0.1,0.1-0.3,0.2-0.4,0.2c-0.1,0.1-0.2,0.1-0.3,0.2
					c-0.4,0.2-0.5,0.4-0.5,0.8c0,0.1,0,0.1,0,0.2c0,0.2,0,0.4,0.3,0.5c1.5,0.6,2.9,0,4.1-0.5c0.4-0.2,0.7-0.5,1.1-0.8
					c0.2-0.1,0.3-0.3,0.5-0.4c0,0,0.1,0,0.1,0c0,0,0.1,0,0.1,0.1l0.1,0.2c0.2,0.4,0.3,0.8,0.8,0.8l0.2,0c0.8,0,1.6-0.1,2.3-0.2
					c1.4-0.3,2.6-0.9,3.7-1.5c0.7-0.4,1.5-0.7,2.2-1c0.3-0.1,0.7-0.3,1-0.4c0.1-0.1,0.3-0.1,0.5-0.2c0.1,0,0.2-0.1,0.3-0.1
					c0,0,0.1,0,0.1,0c0,0,0,0.1,0,0.1c0,0.1-0.1,0.1-0.1,0.2c0,0.1-0.1,0.1-0.1,0.2l-0.1,0.1c-0.6,0.7-1.1,1.4-1.7,2
					c-0.3,0.3-0.3,0.8-0.1,1c0.2,0.2,0.7,0.2,1,0c0.3-0.2,0.7-0.5,1-0.7c0.7-0.5,1.4-1,2.2-1.4c0.5-0.3,0.9-0.6,1.4-0.9
					c1-0.7,2-1.4,3.2-1.8c0.2,0,0.3-0.1,0.5-0.2c0.2-0.1,0.3-0.1,0.5-0.2c0.2,0,0.3-0.1,0.5-0.1c0.4-0.1,0.9-0.3,1.3-0.3
					c0.6-0.1,1.2-0.1,1.9-0.1c0.3,0,0.6,0,0.9,0c0,0,0.1,0,0.1,0.1c0,0,0,0.1,0,0.1c-0.1,0.1-0.2,0.2-0.3,0.3
					c-0.2,0.2-0.4,0.3-0.5,0.4c-0.2,0.2-0.4,0.4-0.6,0.7c-0.2,0.3-0.3,0.7-0.2,1c0.1,0.3,0.4,0.5,0.7,0.7c0.1,0,0.2,0,0.3,0
					c0.2,0,0.4,0,0.6,0c0.5,0,0.9-0.1,1.4-0.2c0.9-0.2,1.9-0.5,2.9-0.8c0.1,0,0.2-0.1,0.3-0.1c0.3-0.1,0.6-0.3,1-0.2c0,0,0,0,0.1,0
					c0,0,0,0.1,0,0.1c0,0.1-0.1,0.1-0.1,0.2c-0.1,0.1-0.1,0.3-0.2,0.4c-0.4,0.6-0.4,1.8,0.2,2.2c0.7,0.5,1.5,1,2.3,1.3
					c1.2,0.4,2.4,0.6,3.8,0.8c1.4,0.2,2.8,0.3,4,0.4c2.2,0.2,4.3,0.3,6.4,0.4c1,0.1,2,0.1,3,0.1c0.8,0,1.6,0.1,2.4,0.1
					c0.6,0,1.2,0.1,1.8,0.1c0.3,0,0.5,0,0.8,0.1c0,0,0.1,0,0.1,0.1c0,0.1,0,0.2,0,0.3c0,0.1,0,0.3,0,0.4c0.1,0,0.3,0,0.5,0
					c0.1,0,0.2,0,0.2,0c0,0,0.1,0,0.1,0c0.1,0,0.1,0,0.2,0c0.7-0.1,1.4-0.1,2.1-0.2c0.4,0,0.7-0.3,0.7-0.7c0-0.5-0.2-0.6-0.7-0.6
					l-0.7,0c-0.6,0-1.1-0.1-1.7-0.1c-0.7-0.1-1.3-0.1-2-0.2c-1.2-0.1-2.5-0.2-3.7-0.3c-1-0.1-1.9-0.1-2.9-0.1c-1.3,0-2.6-0.1-4-0.2
					c-1.7-0.1-3.4-0.3-5-0.5c-0.7-0.1-1.4-0.2-2-0.2c-1.6-0.2-3-0.6-4.4-1.2c-0.6-0.3-0.9-0.8-0.7-1.3c0.3-0.6,0.5-1.1,0.8-1.6
					c0.1-0.2,0.2-0.4,0.4-0.7c-0.4-0.7-0.5-0.8-1.4-0.4c-0.6,0.2-1.3,0.4-1.9,0.6c-0.2,0.1-0.4,0.1-0.6,0.2
					c-0.6,0.2-1.2,0.4-1.7,0.5c-0.5,0.1-0.9,0.2-1.4,0.3c-0.2,0-0.4,0.1-0.6,0.1c0,0-0.1,0-0.1,0l-0.1-0.2c0,0,0-0.1,0-0.1
					c0.1-0.1,0.1-0.1,0.2-0.2c0.1-0.1,0.2-0.3,0.4-0.4c0.6-0.3,1.2-0.7,2-0.7c0,0,0,0,0,0c0.2,0,0.5-0.2,0.6-0.4c0-0.1,0-0.2,0-0.4
					c-0.1-0.2-0.3-0.4-0.4-0.4c-0.1,0-0.3-0.1-0.4-0.1c-0.3-0.1-0.7-0.1-1-0.2c-0.2,0-0.3,0-0.5-0.1c-0.6-0.1-1.2-0.2-1.8-0.2
					c-0.5,0-1,0.1-1.5,0.3c-0.2,0.1-0.4,0.1-0.6,0.1c-2.3,0.5-4.1,1.2-5.6,2.4c-0.4,0.3-0.9,0.6-1.3,0.8c-0.2,0.1-0.4,0.2-0.6,0.4
					c0,0-0.1,0-0.1,0c0,0,0-0.1,0-0.1c0.1-0.1,0.1-0.2,0.2-0.4c0.1-0.2,0.2-0.5,0.3-0.7c0.1-0.5,0-0.8-0.1-0.9
					c-0.1-0.1-0.3-0.1-0.7-0.1c-0.5,0.1-0.9,0.2-1.3,0.4c-1,0.4-2,0.9-3,1.3c-0.5,0.2-1.1,0.5-1.6,0.7c-0.4,0.2-0.9,0.4-1.4,0.6
					c-0.2,0.1-0.4,0.1-0.5,0.2c-0.9,0.4-1.9,0.7-3,0.3c0,0,0,0-0.1-0.1c0,0,0-0.1,0-0.1c0.1-0.1,0.1-0.2,0.2-0.3
					c0.1-0.3,0.3-0.5,0.4-0.7c0.1-0.2,0.2-0.3,0.4-0.4c0.2-0.2,0.4-0.4,0.5-0.6c0.1-0.2,0-0.6-0.1-0.9c0-0.1-0.1-0.1-0.2-0.1
					c-0.2,0-0.5,0-0.7,0.2c-0.2,0.2-0.3,0.4-0.5,0.6c-0.2,0.3-0.4,0.5-0.7,0.8c-1.5,1.5-2.9,2.4-4.6,2.8c0,0-0.1,0-0.1,0
					c0,0,0-0.1,0-0.1c0.1-0.1,0.2-0.2,0.4-0.3c0.3-0.2,0.7-0.4,1-0.6c0.8-0.5,1.6-0.9,2.4-1.4c0.5-0.3,0.6-0.8,0.5-1.5
					c0-0.3-1.2-1-1.6-1c0,0,0,0,0,0c-0.3,0-0.6,0-0.8,0c-0.6,0-1.2,0-1.8,0.1c-1.6,0.2-3,0.4-4.3,0.7c-0.5,0.1-1.1,0.4-1.6,0.6
					c-0.1,0.1-0.2,0.1-0.3,0.2l-0.1,0c-1,0.5-2.1,1-3.1,1.5c-0.5,0.3-1,0.6-1.5,1c-0.2,0.2-0.5,0.3-0.7,0.5c0,0-0.1,0-0.1,0
					c0,0,0-0.1,0-0.1c0.1-0.1,0.1-0.2,0.2-0.3c0.1-0.2,0.2-0.4,0.3-0.6c0.2-0.5,0.4-1.1,0.6-1.8c0.1-0.3,0.2-0.7,0.2-1.1
					c0-0.2-0.1-0.4-0.2-0.4c-0.2-0.1-0.5,0-0.7,0c-0.1,0-0.1,0.1-0.2,0.2c0,0,0,0.1-0.1,0.1c-0.9,1-2.1,1.5-3.1,2
					c-0.1,0.1-0.3,0.1-0.4,0.2c-0.6,0.3-1.3,0.5-2,0.7c-0.8,0.2-1.7,0.4-2.6,0.6l-0.5,0.1c-0.3,0.1-0.4-0.1-0.4-0.1
					c-0.1-0.1-0.1-0.3,0-0.5c0.3-0.4,0.6-0.8,0.9-1.1c0.8-0.5,1.7-1,2.5-1.5l0.1,0c0.6-0.3,1.1-0.5,1.6-0.7c0.9-0.3,2-0.7,3-1.3
					c0.3-0.2,0.3-0.4,0.2-0.7l0,0c-0.1-0.3-0.3-0.4-0.6-0.4c-0.3,0.1-0.5,0.1-0.8,0.1c-0.5,0.1-1,0.2-1.5,0.3
					c-1,0.2-2.1,0.5-3.1,0.7c-0.4,0.1-0.9,0.2-1.3,0.3c-0.3,0.1-0.5,0.1-0.8,0.2c-0.6,0.1-1.2,0.3-1.8,0.4c-0.8,0.2-1.7,0.3-2.5,0.5
					c-0.4,0.1-0.8,0.1-1.2,0.2c-0.1,0-0.1,0-0.2,0c-0.1,0-0.3,0.1-0.4,0.1c-0.2,0-0.3,0-0.5,0c-0.5,0-1,0.1-1.5,0
					c-0.4,0-0.7-0.2-0.9-0.5c-0.1-0.2-0.2-0.5-0.1-0.7c0.1-0.3,0.1-0.5,0-0.7c0-0.1-0.1-0.2-0.2-0.2c-0.2-0.1-0.4,0-0.5,0
					c-0.2,0.1-0.4,0.3-0.5,0.6c0,0.1-0.1,0.2-0.1,0.2c-0.1,0.5-0.3,0.9-0.6,1.3c-0.5,0.7-1,1.3-1.6,2c-0.2,0.3-0.5,0.6-0.7,0.9
					c0,0-0.1,0-0.1,0c0,0-0.1,0-0.1-0.1c0-0.2-0.1-0.3-0.1-0.4c-0.1-0.3-0.1-0.5-0.2-0.6c-0.1-0.1-0.2-0.5-0.4-0.6
					c-0.4-0.1-0.9-0.3-1.4-0.3c-0.8,0-1.7,0.1-2.7,0.3c-0.5,0.1-1,0.2-1.5,0.3c-0.5,0.1-1,0.2-1.5,0.3c-0.7,0.1-1.4,0.2-2,0.3
					c-0.3,0-0.6,0.1-0.9,0.1c0,0-0.1,0-0.1-0.1l-0.1-0.2c0,0,0-0.1,0.1-0.1c1.2-0.5,1.9-1.5,2.7-2.5c0.3-0.4,0.5-0.7,0.9-1.1
					c0-0.1,0-0.3,0-0.3c0-0.4-0.1-0.8-0.4-1.2c-0.2-0.3-0.6-0.5-0.9-0.5c-0.6-0.1-1.3-0.1-1.9,0.1c-0.8,0.3-1.6,0.8-2.2,1.3
					c-0.5,0.3-0.8,0.8-1.2,1.6c-0.3,0.6-0.4,1.9-0.1,2.4c0.2,0.3,0.3,0.6,0.3,0.9c-0.1,0.2-0.3,0.4-0.7,0.5
					c-0.4,0.2-0.8,0.3-1.2,0.5c-1.4,0.6-2.8,1.2-4.2,1.7c-0.4,0.2-0.9,0.3-1.4,0.4c-0.2,0-0.4,0.1-0.6,0.1c0,0-0.1,0-0.1,0
					c0,0,0-0.1,0-0.1l0.2-0.4c-0.1,0-0.2,0-0.2,0c-0.2,0-0.4,0-0.6,0c-0.4,0-0.6,0.3-0.6,0.7c0,0.2,0.1,0.5,0.3,0.7
					c0.3,0.2,0.7,0.3,1,0.3c0.7-0.2,1.5-0.4,2.2-0.6c0.9-0.3,1.8-0.7,2.6-1.1c0.3-0.1,0.7-0.3,1-0.4c0.7-0.3,1.3-0.6,1.9-0.8
					c0.1,0,0.1-0.1,0.2-0.1c0,0,0.1-0.1,0.1-0.1c0.1-0.1,0.2-0.1,0.3-0.2c0.5-0.3,0.9-0.7,1.8-0.4c1,0.3,2.2,0.1,3.2,0
					c0.8-0.1,1.6-0.4,2.4-0.6c0.5-0.1,1-0.3,1.6-0.4l0.2,0c0.9-0.2,1.8-0.4,2.7-0.2c0.4,0.1,0.6,0.3,0.7,0.5c0.1,0.2,0,0.5-0.1,0.7
					c-0.6,0.8-1.2,1.5-1.8,2.2c-0.3,0.3-0.6,0.6-0.9,0.9c-0.2,0.2-0.4,0.4-0.6,0.5c-0.2,0.2-0.3,0.8-0.1,1c0.3,0.3,0.7,0.1,0.9-0.1
					c0.2-0.2,0.3-0.3,0.5-0.5c0.3-0.3,0.5-0.5,0.8-0.8c0.2-0.2,0.5-0.4,0.7-0.6c0.4-0.3,0.8-0.6,1.1-1c0.7-0.7,1.4-1.5,2.2-2.4
					c0.3-0.4,0.6-0.8,0.9-1.2c0.1-0.2,0.3-0.4,0.5-0.6c0.1-0.1,0.2-0.2,0.2-0.3c0,0,0.1-0.1,0.1-0.1c0,0,0,0,0.1,0c0,0,0,0,0.1,0
					c0.1,0.1,0.1,0.1,0.2,0.2c0.1,0.1,0.2,0.2,0.3,0.2c0.9,0.5,1.9,0.7,2.9,0.5c1.8-0.3,3.6-0.7,5.3-1.1c0.5-0.1,1-0.2,1.5-0.3
					c0.6-0.1,1.1-0.3,1.7-0.4c0.3-0.1,0.5-0.1,0.8-0.2c0,0,0.1,0,0.1,0.1l0.1,0.1c0,0,0,0.1,0,0.1c0,0-0.1,0.1-0.1,0.1
					c-0.1,0.1-0.2,0.1-0.3,0.2c-1.3,0.6-2.3,1.3-3.2,2.2c-0.5,0.5-0.6,1.1-0.6,1.7c0.1,0.5,0.2,1,1.1,1c0.5,0,1,0,1.4-0.1l0.5-0.1
					c1-0.3,2-0.5,3-0.9c0.9-0.4,1.8-0.8,2.6-1.2C166.5,45.8,166.9,45.6,167.3,45.4C167.3,45.4,167.3,45.4,167.3,45.4z M159.4,60.5
					C159.4,60.5,159.4,60.5,159.4,60.5l-0.2-0.1c0,0,0-0.1,0-0.1l3.3-5.1c0,0,0.1-0.1,0.1,0l0.1,0.1c0,0,0.1,0.1,0,0.1
					C162,56.9,160.9,58.5,159.4,60.5C159.5,60.4,159.4,60.5,159.4,60.5z M162.4,55.7l-2.8,4.4C160.7,58.5,161.6,57.1,162.4,55.7z
					 M133.3,45.6c-0.3,0-0.6-0.1-0.8-0.4c-0.2-0.2-0.2-0.5-0.1-0.8c0.1-0.2,0.1-0.3,0.2-0.5c0.1-0.3,0.2-0.7,0.4-1
					c0.2-0.2,0.4-0.4,0.6-0.6c0.1-0.1,0.3-0.2,0.4-0.3c0.8-0.7,1.7-0.8,2.7-0.7c0.4,0,0.5,0.1,0.6,0.3c0.1,0.1,0.1,0.3-0.1,0.6
					c-0.6,0.8-1.3,1.7-2.2,2.3c-0.3,0.2-0.5,0.4-0.8,0.6c-0.2,0.1-0.3,0.2-0.5,0.4c-0.1,0.1-0.2,0.1-0.3,0.1
					C133.4,45.6,133.4,45.6,133.3,45.6C133.3,45.6,133.3,45.6,133.3,45.6z M133.3,45.5L133.3,45.5L133.3,45.5z M136.3,41.6
					c-0.8,0-1.6,0.1-2.2,0.7c-0.1,0.1-0.3,0.2-0.4,0.3c-0.2,0.2-0.4,0.3-0.6,0.5c-0.2,0.3-0.3,0.6-0.4,1c-0.1,0.2-0.1,0.3-0.2,0.5
					c-0.1,0.2,0,0.4,0.1,0.6c0.1,0.2,0.4,0.3,0.6,0.3c0,0,0,0,0,0c0.1,0,0.2-0.1,0.2-0.1c0.2-0.1,0.3-0.2,0.5-0.4
					c0.3-0.2,0.5-0.4,0.8-0.6c0.9-0.6,1.6-1.5,2.2-2.3c0.1-0.2,0.2-0.3,0.1-0.4c0-0.1-0.2-0.2-0.4-0.2
					C136.6,41.6,136.5,41.6,136.3,41.6z"/>
			</g>
			<g>
				<path class="st0" d="M67.4,49c0.5-0.6,1.1-1.2,1.7-1.7c0.9-0.9,2-1.5,3.3-1.8c1.1-0.3,2.3-0.7,3.4-0.8c1.7-0.3,3.4-0.6,5.2-0.4
					c0.4,0,0.7,0,0.7,0.6c0,0.5-0.2,0.8-0.7,0.6c-1-0.2-1.9-0.1-2.9,0.1c-1,0.3-1.9,0.9-2.5,1.8c-0.1,0.1-0.1,0.3-0.2,0.5
					c0.9,0.2,1.7-0.3,2.4-0.6c1-0.4,1.9-1,2.8-1.5c0.3-0.1,0.6-0.2,0.9-0.2c0.4,0,1,0.7,0.8,1.1c-0.2,0.6-0.4,1.1-0.6,1.7
					c0.5-0.2,1-0.4,1.5-0.6c1.4-0.6,2.8-1,4.3-1.3c0.2,0,0.5-0.2,0.6-0.3c0.9-0.9,2-1.6,3.2-2.1c1-0.4,2-0.4,3.1-0.3
					c0.2,0,0.4,0.5,0.4,0.8c0,0.9-0.7,1.4-1.3,1.9c-0.2,0.2-0.5,0.3-0.8,0.4C92.4,47,92.1,47.1,92,47c-0.8,0-1.4,0-2.1,0
					c-0.2,0-0.4,0-0.6,0.1c-0.3,0.1-0.7,0.1-0.8,0.3c-0.2,0.4,0,0.8,0.3,1.1c0.6,0.5,1.4,0.6,2.1,0.7c1.8,0.2,3.5,0.2,5.3,0.4
					c1.7,0.2,3.3,0.4,4.9,0.6c0.4,0,0.7,0.3,0.6,0.6c0,0.2-0.4,0.5-0.6,0.5c-0.4,0-0.9-0.1-1.3-0.1c-0.8-0.1-1.6-0.3-2.4-0.4
					c-1.9-0.2-3.9-0.4-5.8-0.5c-1-0.1-1.9-0.2-2.8-0.6c-0.7-0.3-1.2-0.8-1.3-1.6c-0.1-0.6-0.2-0.7-0.9-0.5c-1.1,0.4-2.3,0.6-3.4,1
					c-0.7,0.2-1.3,0.5-1.9,0.8c-0.3,0.1-0.5,0.4-0.6,0.7c-0.6,1.1-1.1,2.3-1.7,3.4c-0.6,1.1-1,2.3-1.7,3.4c-0.5,0.8-1.1,1.6-1.7,2.4
					c-0.3,0.4-0.7,0.9-1,1.2c-0.5,0.5-1,0.9-1.5,1.3c-0.2,0.2-0.8,0.3-0.9,0.1c-0.2-0.2-0.4-0.7-0.4-1c0.3-1,0.5-2,1-3
					c0.6-1.2,1.3-2.4,2-3.5c0.8-1.3,1.8-2.4,2.9-3.5c0.7-0.7,1.4-1.2,2.2-1.7c0.1,0,0.1-0.1,0.2-0.2c0.4-0.8,0.8-1.6,1.2-2.6
					c-0.3,0.1-0.6,0.1-0.9,0.3c-0.5,0.3-1,0.7-1.6,1c-0.4,0.2-0.8,0.4-1.3,0.6c-0.7,0.3-1.4,0.5-2.1,0.4c-0.5-0.1-0.8-0.4-0.9-0.9
					c-0.2-0.9,0.3-1.5,0.9-2.1c0.2-0.2,0.4-0.3,0.6-0.6c-1,0.3-2,0.6-3,0.8c-1.1,0.2-2,0.7-2.8,1.4c-0.8,0.6-1.4,1.4-2.1,2.1
					c-0.7,0.8-1.4,1.6-2.1,2.4c-0.1,0.2-0.5,0.2-0.7,0.2C65,52.1,65,51.8,65,51.5c0.1-0.9,0.6-1.6,1-2.3c0.3-0.6,0.7-1.1,0.6-1.9
					c-0.8,0.1-1.7,0-2.5,0.2c-1.6,0.3-3.2,0.8-4.9,0.6c-0.2,0-0.6,0.5-0.8,0.8c-0.6,0.9-1,1.9-2,2.5c-0.5,0.3-1,0.7-1.6,1
					c-1.1,0.4-1.8-0.2-1.8-1.2c0-0.6,0.1-1.1,0.4-1.6c0.9-1.7,2.2-2.9,3.7-4.1c0.4-0.3,0.8-0.6,1.2-0.9c0.6-0.3,0.9-0.2,1,0.5
					c0,0.5,0.1,1,0,1.5c0,0.3,0.2,0.4,0.4,0.4c1.1,0,2.2-0.2,3.3-0.4c0.9-0.2,1.7-0.2,2.6-0.3c0.3,0,0.7,0,1,0c0.6,0,1.1,0.6,1,1.2
					C67.6,48,67.4,48.5,67.4,49C67.4,49,67.4,49,67.4,49z M79.1,51.1C79.1,51.1,79.1,51,79.1,51.1c-0.5,0.3-1.1,0.6-1.4,1
					c-0.9,1.1-1.7,2.1-2.5,3.3c-0.9,1.5-1.6,3-2.3,4.5c-0.1,0.2-0.1,0.5-0.1,0.8c0.3-0.2,0.6-0.3,0.8-0.5c1.5-1.6,2.8-3.3,3.8-5.3
					C77.9,53.5,78.5,52.3,79.1,51.1z M58,47c-0.4,0.5-0.8,1-1.2,1.4c-0.1,0.1-0.4,0.3-0.5,0.3c-0.3-0.1-0.2-0.4,0-0.6
					c0.2-0.4,0.5-0.7,0.7-1.1c0,0-0.1-0.1-0.1-0.1c-0.1,0.1-0.2,0.3-0.3,0.4c-0.4,0.4-0.8,0.8-1.1,1.3c-0.5,0.7-0.9,1.4-1.3,2.2
					c-0.2,0.4,0.2,0.6,0.5,0.5c0.4-0.2,0.8-0.3,1.1-0.6c1-0.7,1.7-1.6,2.3-2.7C58.2,47.7,58.2,47.4,58,47z M93.7,44.8
					c-1.3,0-2.5,0.4-3.6,1.1c0.2,0,0.4,0,0.6,0c0.4-0.1,0.7-0.1,1-0.2c0.1,0,0.2,0,0.5-0.1C92.8,45.4,93.3,45.3,93.7,44.8z"/>
				<path class="st0" d="M72.4,62.2c-0.1,0-0.3,0-0.3-0.1c-0.3-0.2-0.5-0.8-0.4-1.1c0.2-0.9,0.5-2,1-3c0.6-1.3,1.3-2.5,2-3.6
					c0.7-1.2,1.7-2.3,2.9-3.5c0.8-0.8,1.5-1.3,2.3-1.7c0,0,0.1-0.1,0.1-0.1c0.4-0.8,0.8-1.5,1.1-2.4c0,0-0.1,0-0.1,0
					c-0.2,0.1-0.4,0.1-0.6,0.2c-0.3,0.2-0.5,0.3-0.8,0.5c-0.3,0.2-0.5,0.3-0.8,0.5c-0.4,0.2-0.8,0.4-1.3,0.6l-0.1,0
					c-0.6,0.2-1.3,0.5-2.1,0.4c-0.6-0.1-0.9-0.4-1-0.9c-0.2-1,0.4-1.7,0.9-2.2c0,0,0.1-0.1,0.1-0.1c0.1-0.1,0.2-0.2,0.3-0.3
					c-0.2,0.1-0.4,0.1-0.6,0.2c-0.7,0.2-1.4,0.4-2.1,0.5c-1.1,0.2-2,0.8-2.7,1.3c-0.6,0.5-1.2,1.1-1.7,1.7c-0.1,0.1-0.2,0.3-0.3,0.4
					c-0.3,0.4-0.7,0.8-1,1.1c-0.4,0.4-0.7,0.9-1.1,1.3c-0.2,0.2-0.6,0.2-0.8,0.2c-0.4-0.1-0.3-0.5-0.3-0.7c0.1-0.7,0.4-1.3,0.7-1.8
					c0.1-0.2,0.2-0.4,0.3-0.5c0-0.1,0.1-0.2,0.1-0.3c0.2-0.4,0.5-0.9,0.4-1.5c-0.2,0-0.5,0-0.7,0c-0.6,0-1.1,0-1.7,0.2
					c-0.2,0-0.4,0.1-0.6,0.1c-1.4,0.3-2.8,0.6-4.3,0.5c0,0,0,0,0,0c-0.2,0-0.5,0.6-0.7,0.8c-0.1,0.1-0.2,0.3-0.3,0.4
					c-0.5,0.8-1,1.6-1.8,2.1c-0.2,0.1-0.3,0.2-0.5,0.3c-0.3,0.2-0.7,0.5-1.1,0.6c-0.5,0.2-0.9,0.2-1.3,0c-0.4-0.2-0.6-0.7-0.6-1.3
					c0-0.6,0.1-1.1,0.4-1.7c1-1.8,2.4-3.1,3.7-4.1c0.4-0.3,0.8-0.6,1.2-0.9c0.4-0.2,0.6-0.2,0.8-0.1c0.1,0.1,0.3,0.2,0.4,0.7
					c0,0.5,0.1,1,0,1.5c0,0.1,0,0.2,0.1,0.2c0,0.1,0.1,0.1,0.3,0.1c1.1,0,2.3-0.2,3.3-0.4c0.7-0.2,1.4-0.2,2.1-0.3
					c0.2,0,0.3,0,0.5,0c0.2,0,0.4,0,0.6,0c0.1,0,0.2,0,0.4,0c0.3,0,0.6,0.2,0.8,0.4c0.2,0.3,0.3,0.6,0.2,0.9c-0.1,0.3-0.1,0.7-0.2,1
					c0,0.1,0,0.2-0.1,0.3c0.1-0.1,0.3-0.3,0.4-0.4c0.4-0.4,0.7-0.8,1.2-1.2c1.1-1,2.2-1.6,3.3-1.9c0.4-0.1,0.9-0.2,1.3-0.3
					c0.7-0.2,1.4-0.4,2.1-0.5l0.4-0.1c1.6-0.2,3.2-0.5,4.8-0.4l0,0c0.4,0,0.8,0.1,0.8,0.7c0,0.3-0.1,0.5-0.2,0.6c0,0,0,0-0.1,0
					c0,0,0,0,0.1,0c0.2,0,0.5,0.1,0.7,0.4c0.2,0.3,0.3,0.6,0.2,0.8c-0.1,0.4-0.3,0.8-0.4,1.2l-0.1,0.4c0.1,0,0.2-0.1,0.3-0.1
					c0.3-0.1,0.7-0.2,1-0.4c1.3-0.5,2.6-0.9,4.3-1.3c0.2,0,0.4-0.2,0.6-0.3c0.9-0.9,1.9-1.5,3.2-2.1c1.1-0.5,2.2-0.4,3.1-0.3
					c0.2,0,0.5,0.6,0.5,0.9c-0.1,0.9-0.7,1.5-1.3,2c-0.2,0.2-0.5,0.3-0.8,0.5c-0.2,0.1-0.4,0.2-0.6,0.1c-0.9,0-1.4,0-2.1,0
					c-0.2,0-0.4,0-0.5,0.1c-0.1,0-0.1,0-0.2,0.1c-0.2,0.1-0.5,0.1-0.5,0.2c-0.2,0.4,0.1,0.8,0.3,1c0.6,0.5,1.3,0.6,2.1,0.7
					c0.9,0.1,1.8,0.1,2.6,0.2c0.9,0.1,1.8,0.1,2.6,0.2c1.2,0.1,2.4,0.3,3.5,0.4c0.5,0.1,0.9,0.1,1.4,0.2c0.2,0,0.4,0.1,0.6,0.3
					c0.1,0.1,0.1,0.3,0.1,0.4c0,0.3-0.4,0.6-0.7,0.6c-0.4,0-0.8,0-1.1-0.1c-0.1,0-0.2,0-0.2,0c-0.3,0-0.6-0.1-0.9-0.2
					c-0.5-0.1-1-0.2-1.5-0.2l-0.3,0c-1.8-0.2-3.7-0.4-5.5-0.5c-1.1-0.1-2.1-0.3-2.9-0.6c-0.8-0.4-1.3-0.9-1.4-1.7
					c0-0.3-0.1-0.4-0.2-0.4c-0.1-0.1-0.3,0-0.6,0.1c-0.5,0.2-1.1,0.3-1.6,0.5c-0.6,0.2-1.2,0.3-1.8,0.5c-0.6,0.2-1.2,0.5-1.9,0.8
					c-0.2,0.1-0.5,0.4-0.6,0.6c-0.5,1-1,2.1-1.5,3.1l-0.2,0.3c-0.2,0.4-0.4,0.8-0.5,1.1c-0.3,0.8-0.7,1.6-1.1,2.3
					c-0.4,0.7-0.8,1.3-1.3,1.9c-0.1,0.2-0.3,0.3-0.4,0.5c-0.3,0.4-0.6,0.8-1.1,1.2c-0.4,0.4-1,0.9-1.6,1.3
					C73,62.1,72.7,62.2,72.4,62.2z M81.2,46.6C81.2,46.6,81.2,46.6,81.2,46.6c0.1,0.1,0.1,0.1,0.1,0.1c-0.3,0.9-0.7,1.7-1.2,2.6
					c0,0.1-0.1,0.2-0.2,0.2c-0.7,0.4-1.4,0.9-2.2,1.7c-1.2,1.1-2.1,2.2-2.9,3.4c-0.7,1.1-1.4,2.3-2,3.5c-0.5,1-0.7,2-1,2.9
					c-0.1,0.2,0.1,0.7,0.3,0.9c0.1,0.1,0.6,0,0.8-0.1c0.6-0.4,1.1-0.9,1.5-1.3c0.4-0.4,0.8-0.8,1-1.2c0.1-0.2,0.3-0.3,0.4-0.5
					c0.5-0.6,0.9-1.2,1.3-1.9c0.4-0.7,0.8-1.5,1.1-2.3c0.2-0.4,0.4-0.8,0.5-1.1l0.2-0.3c0.5-1,1-2.1,1.5-3.1
					c0.2-0.3,0.4-0.6,0.7-0.7c0.7-0.4,1.3-0.6,1.9-0.8c0.6-0.2,1.2-0.4,1.8-0.5c0.5-0.1,1.1-0.3,1.6-0.5c0.4-0.1,0.6-0.1,0.7,0
					c0.1,0.1,0.2,0.3,0.2,0.6c0.1,0.7,0.5,1.2,1.2,1.5c0.8,0.4,1.7,0.5,2.8,0.6c1.8,0.1,3.7,0.3,5.5,0.5l0.3,0
					c0.5,0.1,1,0.1,1.5,0.2c0.3,0.1,0.6,0.1,0.9,0.2c0.1,0,0.2,0,0.2,0c0.4,0.1,0.7,0.1,1.1,0.1c0.2,0,0.5-0.3,0.5-0.4
					c0-0.1,0-0.2-0.1-0.3c-0.1-0.1-0.3-0.2-0.4-0.2c-0.5-0.1-0.9-0.1-1.4-0.2c-1.2-0.1-2.3-0.3-3.5-0.4c-0.9-0.1-1.8-0.1-2.6-0.2
					c-0.9-0.1-1.8-0.1-2.6-0.2c-0.8-0.1-1.6-0.2-2.2-0.7c-0.4-0.4-0.6-0.8-0.3-1.2c0.1-0.2,0.4-0.3,0.6-0.3c0.1,0,0.1,0,0.2-0.1
					c0.2-0.1,0.4-0.1,0.6-0.1c0.7,0,1.2,0,2.1,0c0,0,0,0,0,0c0.1,0,0.3,0,0.5-0.1c0.3-0.1,0.6-0.3,0.8-0.4c0.6-0.5,1.2-1,1.3-1.8
					c0-0.3-0.2-0.7-0.3-0.7c-0.9-0.1-2-0.2-3,0.3c-1.3,0.5-2.3,1.2-3.1,2.1c-0.2,0.2-0.4,0.3-0.7,0.4c-1.7,0.3-3,0.7-4.3,1.3
					c-0.3,0.1-0.6,0.2-1,0.4c-0.2,0.1-0.3,0.1-0.5,0.2c0,0-0.1,0-0.1,0c0,0,0-0.1,0-0.1l0.2-0.6c0.2-0.4,0.3-0.8,0.4-1.2
					c0.1-0.2,0-0.4-0.2-0.6c-0.2-0.2-0.4-0.3-0.5-0.3c-0.3,0-0.6,0.1-0.8,0.2c-0.4,0.2-0.7,0.4-1.1,0.6c-0.6,0.3-1.1,0.6-1.7,0.9
					c-0.1,0.1-0.3,0.1-0.4,0.2c-0.6,0.3-1.3,0.6-2.1,0.5c0,0,0,0-0.1,0c0,0,0-0.1,0-0.1c0-0.1,0-0.1,0.1-0.2c0-0.1,0.1-0.2,0.1-0.4
					c0.6-0.9,1.5-1.5,2.5-1.8c1-0.3,2-0.4,2.9-0.2c0.2,0,0.4,0,0.5-0.1c0.1-0.1,0.2-0.3,0.2-0.5c0-0.4-0.2-0.4-0.6-0.5l0,0
					c-1.6-0.1-3.2,0.1-4.8,0.4l-0.4,0.1c-0.7,0.1-1.4,0.3-2.1,0.5c-0.4,0.1-0.9,0.2-1.3,0.3c-1.1,0.3-2.2,0.9-3.2,1.8
					c-0.4,0.4-0.8,0.8-1.1,1.2c-0.2,0.2-0.3,0.4-0.5,0.5c0,0-0.1,0-0.1,0L67.3,49c0,0,0-0.1,0-0.1c0-0.1,0.1-0.3,0.1-0.4
					c0.1-0.3,0.2-0.7,0.2-1c0.1-0.3,0-0.5-0.2-0.8c-0.2-0.2-0.4-0.3-0.7-0.3c-0.1,0-0.3,0-0.4,0c-0.2,0-0.4,0-0.6,0
					c-0.2,0-0.3,0-0.5,0c-0.7,0.1-1.4,0.1-2.1,0.3c-1.1,0.2-2.2,0.5-3.3,0.4c-0.1,0-0.3,0-0.4-0.1c-0.1-0.1-0.1-0.2-0.1-0.4
					c0-0.5,0-1,0-1.5c0-0.3-0.1-0.5-0.3-0.5c-0.1-0.1-0.4,0-0.6,0.1c-0.4,0.3-0.8,0.6-1.2,0.9c-1.3,1-2.7,2.3-3.7,4
					c-0.3,0.6-0.4,1.1-0.4,1.6c0,0.5,0.2,0.9,0.6,1.1c0.3,0.2,0.7,0.2,1.1,0c0.4-0.2,0.7-0.4,1.1-0.6c0.2-0.1,0.3-0.2,0.5-0.3
					c0.8-0.5,1.3-1.2,1.7-2c0.1-0.1,0.2-0.3,0.3-0.4c0.3-0.5,0.6-0.9,0.8-0.9c0,0,0,0,0,0c1.5,0.1,2.9-0.2,4.2-0.5
					c0.2,0,0.4-0.1,0.6-0.1c0.6-0.1,1.1-0.1,1.7-0.2c0.3,0,0.5,0,0.8,0c0,0,0.1,0,0.1,0.1c0.1,0.7-0.2,1.2-0.4,1.7
					c0,0.1-0.1,0.2-0.1,0.3c-0.1,0.2-0.2,0.4-0.3,0.6c-0.3,0.6-0.6,1.1-0.7,1.7c0,0.3,0,0.5,0.2,0.5c0.2,0,0.5,0,0.6-0.1
					c0.4-0.4,0.8-0.8,1.1-1.3c0.3-0.4,0.6-0.8,1-1.1c0.1-0.1,0.2-0.3,0.3-0.4c0.5-0.6,1.1-1.2,1.7-1.7c0.7-0.5,1.6-1.2,2.8-1.4
					c0.7-0.1,1.4-0.3,2.1-0.5c0.3-0.1,0.6-0.2,0.9-0.2c0,0,0.1,0,0.1,0c0,0,0,0.1,0,0.1c-0.2,0.2-0.3,0.4-0.5,0.5
					c0,0-0.1,0.1-0.1,0.1c-0.6,0.5-1.1,1.1-0.9,2c0.1,0.5,0.4,0.7,0.8,0.8c0.7,0.1,1.3-0.1,2-0.4l0.1,0c0.5-0.2,0.9-0.4,1.3-0.6
					c0.3-0.2,0.5-0.3,0.8-0.5c0.3-0.2,0.5-0.4,0.8-0.5c0.2-0.1,0.4-0.2,0.6-0.2C81,46.6,81.1,46.6,81.2,46.6
					C81.2,46.6,81.2,46.6,81.2,46.6z M75.5,47.8c0.7,0.1,1.3-0.2,1.9-0.5c0.1-0.1,0.3-0.1,0.4-0.2c0.6-0.3,1.2-0.6,1.7-0.9
					c0.4-0.2,0.7-0.4,1.1-0.6c0.1-0.1,0.3-0.1,0.4-0.1c0,0-0.1,0-0.1,0c-0.9-0.2-1.8-0.2-2.8,0.1c-1,0.3-1.8,0.9-2.4,1.8
					C75.6,47.5,75.6,47.6,75.5,47.8C75.6,47.7,75.6,47.7,75.5,47.8z M72.8,60.8C72.8,60.8,72.8,60.8,72.8,60.8
					c-0.1,0-0.1-0.1-0.1-0.1c0-0.1,0-0.2,0-0.2c0-0.2,0-0.4,0.1-0.5c0.2-0.3,0.3-0.7,0.5-1c0.6-1.2,1.2-2.4,1.8-3.5
					c0.7-1.2,1.6-2.3,2.4-3.3l0,0c0.3-0.3,0.6-0.5,0.9-0.8c0.1-0.1,0.3-0.2,0.4-0.3c0,0,0.1,0,0.1,0l0.1,0.1c0,0,0,0.1,0,0.1
					c-0.2,0.4-0.4,0.8-0.6,1.1c-0.4,0.8-0.9,1.7-1.2,2.5c-0.8,1.8-2,3.5-3.8,5.4C73.4,60.4,73.2,60.6,72.8,60.8
					C72.8,60.8,72.8,60.8,72.8,60.8z M79,51.1c-0.1,0.1-0.2,0.2-0.3,0.2c-0.3,0.2-0.6,0.5-0.9,0.7l0,0c-0.8,1-1.7,2.1-2.4,3.3
					c-0.7,1.1-1.3,2.3-1.8,3.5c-0.2,0.3-0.3,0.7-0.5,1c-0.1,0.1-0.1,0.3-0.1,0.5c0,0,0,0.1,0,0.1c0.2-0.1,0.4-0.3,0.6-0.4
					c1.7-1.8,2.9-3.5,3.7-5.3c0.4-0.9,0.8-1.7,1.3-2.6C78.6,51.8,78.8,51.5,79,51.1z M54.4,51.4c-0.1,0-0.3-0.1-0.4-0.1
					c-0.1-0.1-0.1-0.3-0.1-0.5c0.4-0.8,0.8-1.5,1.3-2.2c0.2-0.3,0.5-0.6,0.8-0.9c0.1-0.1,0.3-0.3,0.4-0.4c0.1-0.1,0.1-0.2,0.2-0.2
					c0,0,0.1-0.1,0.1-0.1c0,0,0,0,0.1,0c0,0,0.1,0,0.1,0L57,47c0,0,0,0.1,0,0.1l-0.2,0.3c-0.2,0.3-0.3,0.5-0.5,0.8
					c-0.1,0.1-0.1,0.3-0.1,0.3c0,0,0.1,0.1,0.1,0.1c0,0,0.3-0.1,0.4-0.2c0.3-0.3,0.6-0.7,0.9-1c0.1-0.1,0.2-0.3,0.3-0.4
					c0,0,0,0,0.1,0c0,0,0.1,0,0.1,0c0.3,0.5,0.2,0.8,0.1,1.1c-0.6,1.1-1.3,2-2.3,2.7c-0.4,0.3-0.8,0.5-1.1,0.6
					C54.6,51.4,54.5,51.4,54.4,51.4z M56.6,47.4C56.6,47.4,56.6,47.4,56.6,47.4c-0.1,0.2-0.3,0.3-0.4,0.4c-0.3,0.3-0.5,0.5-0.7,0.9
					c-0.5,0.7-0.9,1.4-1.3,2.2c-0.1,0.1-0.1,0.2,0,0.3c0.1,0.1,0.2,0.1,0.4,0.1c0.3-0.1,0.8-0.3,1.1-0.6c0.9-0.7,1.7-1.6,2.2-2.6
					c0.1-0.3,0.2-0.5,0-0.8c-0.1,0.1-0.2,0.2-0.3,0.3c-0.3,0.4-0.6,0.7-0.9,1c-0.1,0.1-0.4,0.4-0.6,0.3c-0.1-0.1-0.2-0.1-0.2-0.2
					c0-0.1,0-0.3,0.1-0.5C56.3,47.9,56.4,47.6,56.6,47.4z M90.3,46c-0.1,0-0.1,0-0.2,0c0,0-0.1,0-0.1-0.1c0,0,0-0.1,0-0.1
					c1.1-0.7,2.3-1.1,3.7-1.1h0c0,0,0.1,0,0.1,0.1s0,0.1,0,0.1c-0.4,0.5-0.9,0.7-1.6,0.8c-0.2,0-0.3,0-0.3,0c-0.1,0-0.1,0-0.1,0
					c-0.2,0-0.4,0.1-0.5,0.1c-0.2,0-0.3,0.1-0.5,0.1C90.6,46,90.4,46,90.3,46z M93.5,44.9c-1.1,0-2.2,0.3-3.1,0.9c0.1,0,0.2,0,0.3,0
					c0.2,0,0.3-0.1,0.5-0.1c0.2,0,0.3-0.1,0.5-0.1c0.1,0,0.1,0,0.2,0c0.1,0,0.2,0,0.3,0C92.7,45.4,93.1,45.2,93.5,44.9z"/>
			</g>
			<g>
				<path class="st0" d="M106.3,52.7c0.5-0.3,1-0.6,1.5-1c1.3-0.9,2.6-1.7,3.8-2.6c1.1-0.8,2.1-1.7,3.1-2.5c1.2-1,2.5-1.9,3.8-2.9
					c4.1-3.4,7.9-7,11.3-11.1c1.8-2.2,3.6-4.6,5.2-7c0.2-0.2,0.2-0.5,0.3-0.8c0.1-0.2,0.1-0.3,0.2-0.5c0.8-1,1.3-2.1,1.6-3.4
					c0.1-0.5,0.4-0.7,0.8-0.5c0.4,0.1,0.5,0.4,0.4,0.8c-0.3,0.9-0.5,1.7-1,2.5c-0.7,1.1-1.3,2.2-1.9,3.2c-0.1,0.1-0.2,0.2-0.2,0.3
					c-0.2,0.2-0.4,0.4-0.5,0.7c-0.2,0.2-0.3,0.5-0.5,0.7c-0.1,0.1-0.2,0.2-0.3,0.3c-1.4,2.3-3.2,4.3-5,6.3c-0.9,0.9-1.7,1.9-2.5,2.9
					c-0.6,0.6-1.3,1.2-1.9,1.8c-0.8,0.8-1.6,1.5-2.4,2.3c-0.8,0.7-1.6,1.4-2.5,2c-0.2,0.2-0.4,0.5-0.7,0.7c-1.2,1-2.5,2-3.7,3
					c-1.8,1.4-3.6,2.8-5.4,4.2c-0.9,0.7-1.9,1.2-2.9,1.8c-0.4,0.2-0.8,0.3-1.3,0.4c-0.3,0.1-0.7-0.3-0.7-0.6c0-0.8,0.1-1.6,0.4-2.4
					c0.3-0.6,0.5-1.3,0.7-2c0.4-0.9,0.8-1.7,1.3-2.6c0.3-0.6,0.6-1.2,1-1.7c0.5-0.9,0.9-1.7,1.4-2.6c0.7-1.3,1.4-2.6,2.1-3.9
					c0.6-1.2,1.2-2.4,1.8-3.6c0.1-0.3,0.2-0.6,0.3-0.9c0.2-0.4,0.5-0.8,0.7-1.3c0.3-0.7,0.6-1.4,0.9-2c0.5-1,0.9-2,1.5-3
					c0.1-0.1,0.4-0.2,0.6-0.2c0.1,0,0.3,0.2,0.3,0.4c0,0.2,0,0.5-0.1,0.7c-0.7,1.6-1.5,3.3-2.3,4.9c-0.3,0.6-0.5,1.2-0.8,1.8
					c-0.3,0.5-0.5,1.1-0.8,1.6c-0.1,0.2-0.2,0.4-0.3,0.6c-0.6,1.2-1.2,2.4-1.8,3.6c-0.8,1.4-1.6,2.8-2.3,4.2
					c-0.6,1.1-1.1,2.2-1.6,3.4c-0.4,0.9-0.9,1.7-1.2,2.6C106.5,51.6,106.4,52.1,106.3,52.7C106.3,52.6,106.3,52.6,106.3,52.7z"/>
				<path class="st0" d="M105.5,54.2c-0.1,0-0.3-0.1-0.4-0.2c-0.2-0.1-0.3-0.3-0.3-0.5c0-0.7,0-1.6,0.4-2.4c0.1-0.3,0.3-0.7,0.4-1
					c0.1-0.3,0.2-0.7,0.4-1c0.3-0.8,0.7-1.5,1.1-2.3l0.2-0.3c0.2-0.4,0.4-0.7,0.6-1.1c0.1-0.2,0.3-0.4,0.4-0.7
					c0.2-0.4,0.5-0.8,0.7-1.3c0.2-0.4,0.5-0.9,0.7-1.3c0.2-0.5,0.5-0.9,0.7-1.3c0.5-0.8,0.9-1.7,1.4-2.5c0.5-1,1.1-2.1,1.8-3.6
					c0.1-0.1,0.1-0.3,0.1-0.4c0-0.2,0.1-0.3,0.1-0.5c0.1-0.2,0.2-0.4,0.4-0.6c0.1-0.2,0.3-0.4,0.4-0.6c0.2-0.4,0.3-0.7,0.5-1.1
					c0.1-0.3,0.3-0.6,0.4-0.9c0.5-1,0.9-2,1.5-3c0.1-0.2,0.5-0.2,0.7-0.2c0.2,0,0.4,0.3,0.4,0.5c0,0.2,0,0.5-0.1,0.7
					c-0.5,1-0.9,2.1-1.4,3.1c-0.3,0.6-0.6,1.2-0.8,1.8c-0.1,0.3-0.3,0.6-0.4,0.8c-0.1,0.3-0.3,0.6-0.4,0.9c-0.2,0.4-0.4,0.9-0.6,1.3
					l-0.2,0.3c-0.1,0.1-0.1,0.2-0.2,0.3c-0.1,0.1-0.1,0.2-0.2,0.3c-0.2,0.4-0.4,0.8-0.6,1.2c-0.4,0.8-0.8,1.6-1.2,2.4
					c-0.3,0.6-0.7,1.3-1,1.9c-0.4,0.8-0.9,1.6-1.3,2.3c-0.4,0.7-0.7,1.5-1.1,2.2c-0.2,0.4-0.4,0.8-0.5,1.2c-0.1,0.3-0.3,0.6-0.4,0.9
					c-0.3,0.5-0.5,1.1-0.8,1.7c-0.1,0.3-0.2,0.7-0.3,1c0,0.1-0.1,0.3-0.1,0.4c0.1-0.1,0.3-0.2,0.4-0.3c0.3-0.2,0.7-0.4,1-0.7
					c0.3-0.2,0.7-0.5,1-0.7c0.9-0.6,1.9-1.2,2.8-1.9c0.6-0.5,1.2-1,1.8-1.5c0.4-0.3,0.8-0.7,1.3-1c0.5-0.4,1-0.8,1.5-1.2
					c0.7-0.6,1.5-1.1,2.2-1.7c4.6-3.8,8.2-7.4,11.3-11.1c2-2.4,3.7-4.7,5.2-7c0.1-0.2,0.2-0.3,0.2-0.5c0-0.1,0.1-0.2,0.1-0.3
					c0,0,0-0.1,0.1-0.1c0-0.1,0.1-0.3,0.2-0.4c0.7-1,1.3-2.1,1.6-3.3c0.1-0.3,0.2-0.5,0.4-0.6c0.2-0.1,0.3-0.1,0.5,0
					c0.4,0.1,0.6,0.5,0.4,0.9c-0.2,0.8-0.5,1.7-1,2.5c-0.4,0.7-0.9,1.4-1.3,2.1c-0.2,0.4-0.4,0.7-0.6,1.1c0,0.1-0.1,0.1-0.2,0.2
					c0,0-0.1,0.1-0.1,0.1l-0.1,0.1c-0.1,0.2-0.3,0.4-0.4,0.5c-0.1,0.1-0.2,0.2-0.3,0.4c-0.1,0.1-0.1,0.2-0.2,0.3
					c0,0.1-0.1,0.1-0.1,0.2c-0.1,0.1-0.1,0.1-0.1,0.2c-1.4,2.3-3.2,4.3-5,6.3c-0.4,0.4-0.7,0.8-1.1,1.2c-0.5,0.5-1,1.1-1.4,1.6
					c-0.4,0.4-0.8,0.8-1.3,1.2c-0.2,0.2-0.4,0.4-0.6,0.6c-0.3,0.3-0.5,0.5-0.8,0.8c-0.5,0.5-1,1-1.6,1.5c-0.5,0.5-1.1,1-1.7,1.4
					c-0.3,0.2-0.5,0.4-0.8,0.6c-0.1,0.1-0.2,0.2-0.3,0.3c-0.1,0.1-0.2,0.2-0.4,0.3c-1.3,1-2.5,2-3.7,3c-0.4,0.3-0.7,0.6-1.1,0.8
					c-1.4,1.1-2.9,2.3-4.4,3.4c-0.9,0.7-2,1.3-2.9,1.8c-0.3,0.2-0.7,0.3-1.1,0.3L105.5,54.2C105.6,54.2,105.5,54.2,105.5,54.2z
					 M117.5,27.4c-0.2,0-0.4,0.1-0.4,0.1c-0.5,1-1,2-1.4,3c-0.1,0.3-0.3,0.6-0.4,0.9c-0.2,0.4-0.3,0.7-0.5,1.1
					c-0.1,0.2-0.2,0.4-0.4,0.7c-0.1,0.2-0.3,0.4-0.4,0.6c-0.1,0.1-0.1,0.3-0.1,0.4c0,0.2-0.1,0.3-0.2,0.5c-0.7,1.5-1.3,2.6-1.8,3.6
					c-0.5,0.9-0.9,1.7-1.4,2.5c-0.2,0.4-0.5,0.9-0.7,1.3c-0.2,0.4-0.5,0.9-0.7,1.3c-0.2,0.4-0.5,0.8-0.7,1.3
					c-0.1,0.2-0.3,0.5-0.4,0.7c-0.2,0.3-0.4,0.7-0.6,1.1l-0.2,0.3c-0.4,0.7-0.8,1.5-1.1,2.2c-0.1,0.3-0.3,0.7-0.4,1
					c-0.1,0.3-0.2,0.7-0.4,1c-0.4,0.8-0.4,1.6-0.4,2.4c0,0.1,0.1,0.3,0.2,0.4c0.1,0.1,0.3,0.1,0.4,0.1l0.2,0c0.4-0.1,0.7-0.1,1-0.3
					c0.9-0.5,1.9-1.1,2.9-1.8c1.5-1.1,2.9-2.3,4.4-3.4c0.4-0.3,0.7-0.6,1.1-0.8c1.2-1,2.5-2,3.7-3c0.1-0.1,0.2-0.2,0.3-0.3
					c0.1-0.1,0.2-0.2,0.4-0.3c0.3-0.2,0.5-0.4,0.8-0.6c0.6-0.4,1.2-0.9,1.7-1.4c0.5-0.5,1-1,1.6-1.5c0.3-0.3,0.5-0.5,0.8-0.8
					c0.2-0.2,0.4-0.4,0.6-0.6c0.4-0.4,0.9-0.8,1.3-1.2c0.5-0.5,1-1.1,1.4-1.6c0.4-0.4,0.7-0.8,1.1-1.2c1.8-2,3.6-4,5-6.3
					c0-0.1,0.1-0.1,0.2-0.2c0,0,0.1-0.1,0.1-0.1c0.1-0.1,0.1-0.2,0.2-0.3c0.1-0.1,0.2-0.3,0.3-0.4c0.1-0.2,0.3-0.4,0.4-0.6l0.1-0.1
					c0,0,0.1-0.1,0.1-0.1c0.1-0.1,0.1-0.1,0.1-0.2c0.2-0.4,0.4-0.7,0.6-1.1c0.4-0.7,0.8-1.4,1.3-2.1c0.5-0.8,0.7-1.6,1-2.4
					c0.1-0.4,0-0.6-0.3-0.7c-0.1,0-0.3,0-0.4,0c-0.1,0.1-0.2,0.2-0.3,0.5c-0.3,1.3-0.9,2.4-1.6,3.4c-0.1,0.1-0.1,0.2-0.2,0.3
					c0,0,0,0.1-0.1,0.1c0,0.1-0.1,0.2-0.1,0.3c-0.1,0.2-0.1,0.4-0.2,0.5c-1.5,2.3-3.2,4.6-5.2,7c-3,3.7-6.7,7.4-11.3,11.1
					c-0.7,0.6-1.5,1.2-2.2,1.7c-0.5,0.4-1,0.8-1.5,1.2c-0.4,0.3-0.9,0.7-1.3,1c-0.6,0.5-1.2,1-1.9,1.5c-0.9,0.7-1.9,1.3-2.8,1.9
					c-0.3,0.2-0.7,0.5-1,0.7c-0.3,0.2-0.7,0.4-1,0.7c-0.2,0.1-0.3,0.2-0.5,0.3c0,0-0.1,0-0.1,0l-0.1-0.1c0,0,0-0.1,0-0.1
					c0-0.2,0.1-0.3,0.1-0.5c0.1-0.3,0.2-0.7,0.3-1c0.2-0.6,0.5-1.1,0.8-1.7c0.1-0.3,0.3-0.6,0.4-0.9c0.2-0.4,0.4-0.8,0.5-1.2
					c0.3-0.7,0.7-1.5,1.1-2.2c0.4-0.8,0.9-1.6,1.3-2.4c0.3-0.6,0.7-1.3,1-1.9c0.4-0.8,0.8-1.6,1.2-2.4c0.2-0.4,0.4-0.8,0.6-1.2
					c0.1-0.1,0.1-0.2,0.2-0.3c0.1-0.1,0.1-0.2,0.2-0.3l0.2-0.3c0.2-0.4,0.4-0.8,0.6-1.3c0.1-0.3,0.3-0.6,0.4-0.9
					c0.1-0.3,0.2-0.6,0.4-0.8c0.3-0.6,0.6-1.2,0.8-1.8c0.5-1,1-2.1,1.4-3.1c0.1-0.2,0.1-0.4,0.1-0.6
					C117.8,27.6,117.7,27.5,117.5,27.4C117.6,27.4,117.5,27.4,117.5,27.4z"/>
			</g>
		</g>
	</g>
</g>
</svg>
