<svg width="21" height="20" viewBox="0 0 21 20" fill="none" xmlns="http://www.w3.org/2000/svg">
<g clip-path="url(#clip0)">
<path fill-rule="evenodd" clip-rule="evenodd" d="M18.3845 1.25H3.38452C3.053 1.25 2.73506 1.3817 2.50064 1.61612C2.26622 1.85054 2.13452 2.16848 2.13452 2.5V17.5C2.13452 17.8315 2.26622 18.1495 2.50064 18.3839C2.73506 18.6183 3.053 18.75 3.38452 18.75H18.3845C18.716 18.75 19.034 18.6183 19.2684 18.3839C19.5028 18.1495 19.6345 17.8315 19.6345 17.5V2.5C19.6345 2.16848 19.5028 1.85054 19.2684 1.61612C19.034 1.3817 18.716 1.25 18.3845 1.25ZM3.38452 0C2.72148 0 2.0856 0.263392 1.61675 0.732233C1.14791 1.20107 0.884521 1.83696 0.884521 2.5L0.884521 17.5C0.884521 18.163 1.14791 18.7989 1.61675 19.2678C2.0856 19.7366 2.72148 20 3.38452 20H18.3845C19.0476 20 19.6834 19.7366 20.1523 19.2678C20.6211 18.7989 20.8845 18.163 20.8845 17.5V2.5C20.8845 1.83696 20.6211 1.20107 20.1523 0.732233C19.6834 0.263392 19.0476 0 18.3845 0L3.38452 0Z" fill="white"/>
<path d="M9.66669 9.55555H4.7778C4.54206 9.55555 4.31596 9.4619 4.14927 9.2952C3.98257 9.1285 3.88892 8.90241 3.88892 8.66666V5.55555C3.88892 5.3198 3.98257 5.09371 4.14927 4.92701C4.31596 4.76031 4.54206 4.66666 4.7778 4.66666H9.66669C9.90244 4.66666 10.1285 4.76031 10.2952 4.92701C10.4619 5.09371 10.5556 5.3198 10.5556 5.55555V8.66666C10.5556 8.90241 10.4619 9.1285 10.2952 9.2952C10.1285 9.4619 9.90244 9.55555 9.66669 9.55555Z" fill="white"/>
<path d="M17.2221 9.55555H12.3332C12.0975 9.55555 11.8714 9.4619 11.7047 9.2952C11.538 9.1285 11.4443 8.90241 11.4443 8.66666V5.55555C11.4443 5.3198 11.538 5.09371 11.7047 4.92701C11.8714 4.76031 12.0975 4.66666 12.3332 4.66666H17.2221C17.4579 4.66666 17.684 4.76031 17.8507 4.92701C18.0174 5.09371 18.111 5.3198 18.111 5.55555V8.66666C18.111 8.90241 18.0174 9.1285 17.8507 9.2952C17.684 9.4619 17.4579 9.55555 17.2221 9.55555Z" fill="white"/>
<path d="M9.66669 15.3333H4.7778C4.54206 15.3333 4.31596 15.2397 4.14927 15.073C3.98257 14.9063 3.88892 14.6802 3.88892 14.4444V11.3333C3.88892 11.0976 3.98257 10.8715 4.14927 10.7048C4.31596 10.5381 4.54206 10.4444 4.7778 10.4444H9.66669C9.90244 10.4444 10.1285 10.5381 10.2952 10.7048C10.4619 10.8715 10.5556 11.0976 10.5556 11.3333V14.4444C10.5556 14.6802 10.4619 14.9063 10.2952 15.073C10.1285 15.2397 9.90244 15.3333 9.66669 15.3333Z" fill="white"/>
<path d="M17.2221 15.3333H12.3332C12.0975 15.3333 11.8714 15.2397 11.7047 15.073C11.538 14.9063 11.4443 14.6802 11.4443 14.4444V11.3333C11.4443 11.0976 11.538 10.8715 11.7047 10.7048C11.8714 10.5381 12.0975 10.4444 12.3332 10.4444H17.2221C17.4579 10.4444 17.684 10.5381 17.8507 10.7048C18.0174 10.8715 18.111 11.0976 18.111 11.3333V14.4444C18.111 14.6802 18.0174 14.9063 17.8507 15.073C17.684 15.2397 17.4579 15.3333 17.2221 15.3333Z" fill="white"/>
</g>
<defs>
<clipPath id="clip0">
<rect width="20" height="20" fill="white" transform="translate(0.884521)"/>
</clipPath>
</defs>
</svg>
