<svg width="21" height="20" viewBox="0 0 21 20" fill="none" xmlns="http://www.w3.org/2000/svg">
<g clip-path="url(#clip0)">
<path fill-rule="evenodd" clip-rule="evenodd" d="M17.97 1.25H2.96997C2.63845 1.25 2.32051 1.3817 2.08609 1.61612C1.85167 1.85054 1.71997 2.16848 1.71997 2.5V17.5C1.71997 17.8315 1.85167 18.1495 2.08609 18.3839C2.32051 18.6183 2.63845 18.75 2.96997 18.75H17.97C18.3015 18.75 18.6194 18.6183 18.8539 18.3839C19.0883 18.1495 19.22 17.8315 19.22 17.5V2.5C19.22 2.16848 19.0883 1.85054 18.8539 1.61612C18.6194 1.3817 18.3015 1.25 17.97 1.25ZM2.96997 0C2.30693 0 1.67104 0.263392 1.2022 0.732233C0.733363 1.20107 0.469971 1.83696 0.469971 2.5L0.469971 17.5C0.469971 18.163 0.733363 18.7989 1.2022 19.2678C1.67104 19.7366 2.30693 20 2.96997 20H17.97C18.633 20 19.2689 19.7366 19.7377 19.2678C20.2066 18.7989 20.47 18.163 20.47 17.5V2.5C20.47 1.83696 20.2066 1.20107 19.7377 0.732233C19.2689 0.263392 18.633 0 17.97 0L2.96997 0Z" fill="white"/>
<path d="M3.0625 4C3.0625 3.73478 3.17444 3.48043 3.3737 3.29289C3.57296 3.10536 3.84321 3 4.125 3H6.25C6.53179 3 6.80204 3.10536 7.0013 3.29289C7.20056 3.48043 7.3125 3.73478 7.3125 4V6C7.3125 6.26522 7.20056 6.51957 7.0013 6.70711C6.80204 6.89464 6.53179 7 6.25 7H4.125C3.84321 7 3.57296 6.89464 3.3737 6.70711C3.17444 6.51957 3.0625 6.26522 3.0625 6V4ZM8.375 4C8.375 3.73478 8.48694 3.48043 8.6862 3.29289C8.88546 3.10536 9.15571 3 9.4375 3H11.5625C11.8443 3 12.1145 3.10536 12.3138 3.29289C12.5131 3.48043 12.625 3.73478 12.625 4V6C12.625 6.26522 12.5131 6.51957 12.3138 6.70711C12.1145 6.89464 11.8443 7 11.5625 7H9.4375C9.15571 7 8.88546 6.89464 8.6862 6.70711C8.48694 6.51957 8.375 6.26522 8.375 6V4ZM13.6875 4C13.6875 3.73478 13.7994 3.48043 13.9987 3.29289C14.198 3.10536 14.4682 3 14.75 3H16.875C17.1568 3 17.427 3.10536 17.6263 3.29289C17.8256 3.48043 17.9375 3.73478 17.9375 4V6C17.9375 6.26522 17.8256 6.51957 17.6263 6.70711C17.427 6.89464 17.1568 7 16.875 7H14.75C14.4682 7 14.198 6.89464 13.9987 6.70711C13.7994 6.51957 13.6875 6.26522 13.6875 6V4ZM3.0625 9C3.0625 8.73478 3.17444 8.48043 3.3737 8.29289C3.57296 8.10536 3.84321 8 4.125 8H6.25C6.53179 8 6.80204 8.10536 7.0013 8.29289C7.20056 8.48043 7.3125 8.73478 7.3125 9V11C7.3125 11.2652 7.20056 11.5196 7.0013 11.7071C6.80204 11.8946 6.53179 12 6.25 12H4.125C3.84321 12 3.57296 11.8946 3.3737 11.7071C3.17444 11.5196 3.0625 11.2652 3.0625 11V9ZM8.375 9C8.375 8.73478 8.48694 8.48043 8.6862 8.29289C8.88546 8.10536 9.15571 8 9.4375 8H11.5625C11.8443 8 12.1145 8.10536 12.3138 8.29289C12.5131 8.48043 12.625 8.73478 12.625 9V11C12.625 11.2652 12.5131 11.5196 12.3138 11.7071C12.1145 11.8946 11.8443 12 11.5625 12H9.4375C9.15571 12 8.88546 11.8946 8.6862 11.7071C8.48694 11.5196 8.375 11.2652 8.375 11V9ZM13.6875 9C13.6875 8.73478 13.7994 8.48043 13.9987 8.29289C14.198 8.10536 14.4682 8 14.75 8H16.875C17.1568 8 17.427 8.10536 17.6263 8.29289C17.8256 8.48043 17.9375 8.73478 17.9375 9V11C17.9375 11.2652 17.8256 11.5196 17.6263 11.7071C17.427 11.8946 17.1568 12 16.875 12H14.75C14.4682 12 14.198 11.8946 13.9987 11.7071C13.7994 11.5196 13.6875 11.2652 13.6875 11V9ZM3.0625 14C3.0625 13.7348 3.17444 13.4804 3.3737 13.2929C3.57296 13.1054 3.84321 13 4.125 13H6.25C6.53179 13 6.80204 13.1054 7.0013 13.2929C7.20056 13.4804 7.3125 13.7348 7.3125 14V16C7.3125 16.2652 7.20056 16.5196 7.0013 16.7071C6.80204 16.8946 6.53179 17 6.25 17H4.125C3.84321 17 3.57296 16.8946 3.3737 16.7071C3.17444 16.5196 3.0625 16.2652 3.0625 16V14ZM8.375 14C8.375 13.7348 8.48694 13.4804 8.6862 13.2929C8.88546 13.1054 9.15571 13 9.4375 13H11.5625C11.8443 13 12.1145 13.1054 12.3138 13.2929C12.5131 13.4804 12.625 13.7348 12.625 14V16C12.625 16.2652 12.5131 16.5196 12.3138 16.7071C12.1145 16.8946 11.8443 17 11.5625 17H9.4375C9.15571 17 8.88546 16.8946 8.6862 16.7071C8.48694 16.5196 8.375 16.2652 8.375 16V14ZM13.6875 14C13.6875 13.7348 13.7994 13.4804 13.9987 13.2929C14.198 13.1054 14.4682 13 14.75 13H16.875C17.1568 13 17.427 13.1054 17.6263 13.2929C17.8256 13.4804 17.9375 13.7348 17.9375 14V16C17.9375 16.2652 17.8256 16.5196 17.6263 16.7071C17.427 16.8946 17.1568 17 16.875 17H14.75C14.4682 17 14.198 16.8946 13.9987 16.7071C13.7994 16.5196 13.6875 16.2652 13.6875 16V14Z" fill="white"/>
</g>
<defs>
<clipPath id="clip0">
<rect width="20" height="20" fill="white" transform="translate(0.469971)"/>
</clipPath>
</defs>
</svg>
