<svg width="16" height="16" viewBox="0 0 16 16" fill="none" xmlns="http://www.w3.org/2000/svg">
<path d="M9.33329 5.33333H3.11107C2.9932 5.33333 2.88015 5.28651 2.7968 5.20316C2.71345 5.11981 2.66663 5.00676 2.66663 4.88889V3.11111C2.66663 2.99323 2.71345 2.88019 2.7968 2.79684C2.88015 2.71349 2.9932 2.66666 3.11107 2.66666H9.33329C9.45117 2.66666 9.56421 2.71349 9.64756 2.79684C9.73091 2.88019 9.77774 2.99323 9.77774 3.11111V4.88889C9.77774 5.00676 9.73091 5.11981 9.64756 5.20316C9.56421 5.28651 9.45117 5.33333 9.33329 5.33333ZM3.55551 4.44444H8.88885V3.52889H3.55551V4.44444Z" fill="white"/>
<path d="M9.33329 6.25774H3.11107C2.9932 6.25774 2.88015 6.30456 2.7968 6.38791C2.71345 6.47126 2.66663 6.58431 2.66663 6.70218V8.4444C2.66663 8.56228 2.71345 8.67532 2.7968 8.75867C2.88015 8.84202 2.9932 8.88885 3.11107 8.88885H8.15996L9.77774 7.2444V6.70218C9.77774 6.58431 9.73091 6.47126 9.64756 6.38791C9.56421 6.30456 9.45117 6.25774 9.33329 6.25774ZM8.88885 7.99996H3.55551V7.11107H8.88885V7.99996Z" fill="white"/>
<path d="M4.91558 14.0044V13.9778L5.0578 13.36H1.7778V1.77777H10.6667V6.33333L11.5556 5.49333V1.33333C11.5556 1.21546 11.5088 1.10241 11.4254 1.01906C11.3421 0.935711 11.229 0.888885 11.1111 0.888885H1.33336C1.21549 0.888885 1.10244 0.935711 1.01909 1.01906C0.935741 1.10241 0.888916 1.21546 0.888916 1.33333V13.7778C0.888916 13.8956 0.935741 14.0087 1.01909 14.092C1.10244 14.1754 1.21549 14.2222 1.33336 14.2222H4.88892C4.89258 14.1491 4.90149 14.0763 4.91558 14.0044Z" fill="white"/>
<path d="M9.77794 8.52004L9.43127 8.87115C9.51728 8.85342 9.59611 8.81061 9.65781 8.74812C9.71951 8.68563 9.76131 8.60627 9.77794 8.52004Z" fill="white"/>
<path d="M2.66663 11.9733C2.66663 12.0912 2.71345 12.2043 2.7968 12.2876C2.88015 12.371 2.9932 12.4178 3.11107 12.4178H5.26218L5.39551 11.84L5.45329 11.5956V11.5733H3.55551V10.6667H6.37329L7.26218 9.77778H3.11107C2.9932 9.77778 2.88015 9.8246 2.7968 9.90795C2.71345 9.9913 2.66663 10.1043 2.66663 10.2222V11.9733Z" fill="white"/>
<path d="M14.8843 7.40887L13.3865 5.9111C13.32 5.84444 13.2411 5.79156 13.1541 5.75548C13.0672 5.71939 12.974 5.70082 12.8798 5.70082C12.7857 5.70082 12.6925 5.71939 12.6055 5.75548C12.5186 5.79156 12.4396 5.84444 12.3732 5.9111L6.27983 12.04L5.77761 14.1778C5.7588 14.27 5.75838 14.365 5.77636 14.4574C5.79434 14.5498 5.83038 14.6377 5.8824 14.7162C5.93442 14.7946 6.0014 14.862 6.07951 14.9145C6.15763 14.9671 6.24533 15.0036 6.33761 15.0222C6.38342 15.0268 6.42957 15.0268 6.47538 15.0222C6.52984 15.0311 6.58537 15.0311 6.63983 15.0222L8.79538 14.5467L14.8843 8.44443C14.9508 8.37834 15.0036 8.29974 15.0396 8.21317C15.0756 8.1266 15.0942 8.03375 15.0942 7.93999C15.0942 7.84622 15.0756 7.75337 15.0396 7.6668C15.0036 7.58023 14.9508 7.50163 14.8843 7.43554V7.40887ZM8.34205 13.7378L6.71538 14.0978L7.11094 12.4844L11.6798 7.86665L12.9332 9.11999L8.34205 13.7378ZM13.4354 8.61776L12.1821 7.36443L12.8887 6.66665L14.1509 7.92887L13.4354 8.61776Z" fill="white"/>
</svg>
