<svg width="15" height="15" viewBox="0 0 15 15" fill="none" xmlns="http://www.w3.org/2000/svg">
<path d="M10.625 7.5C10.9565 7.5 11.2745 7.6317 11.5089 7.86612C11.7433 8.10054 11.875 8.41848 11.875 8.75V12.5C11.875 12.8315 11.7433 13.1495 11.5089 13.3839C11.2745 13.6183 10.9565 13.75 10.625 13.75H4.375C4.04348 13.75 3.72554 13.6183 3.49112 13.3839C3.2567 13.1495 3.125 12.8315 3.125 12.5V8.75C3.125 8.41848 3.2567 8.10054 3.49112 7.86612C3.72554 7.6317 4.04348 7.5 4.375 7.5V4.375C4.375 3.5462 4.70424 2.75134 5.29029 2.16529C5.87634 1.57924 6.6712 1.25 7.5 1.25C8.3288 1.25 9.12366 1.57924 9.70971 2.16529C10.2958 2.75134 10.625 3.5462 10.625 4.375V7.5ZM7.5 11.875C7.83152 11.875 8.14946 11.7433 8.38388 11.5089C8.6183 11.2745 8.75 10.9565 8.75 10.625C8.75 10.2935 8.6183 9.97554 8.38388 9.74112C8.14946 9.5067 7.83152 9.375 7.5 9.375C7.16848 9.375 6.85054 9.5067 6.61612 9.74112C6.3817 9.97554 6.25 10.2935 6.25 10.625C6.25 10.9565 6.3817 11.2745 6.61612 11.5089C6.85054 11.7433 7.16848 11.875 7.5 11.875ZM9.375 7.5V4.375C9.375 3.87772 9.17746 3.40081 8.82583 3.04918C8.4742 2.69754 7.99728 2.5 7.5 2.5C7.00272 2.5 6.52581 2.69754 6.17418 3.04918C5.82254 3.40081 5.625 3.87772 5.625 4.375V7.5H9.375Z" fill="#00DFA2"/>
</svg>
