<svg width="26" height="24" viewBox="0 0 26 24" fill="none" xmlns="http://www.w3.org/2000/svg">
<g filter="url(#filter0_d)">
<path fill-rule="evenodd" clip-rule="evenodd" d="M2 12C3.73 7.61 8 4.5 13 4.5C18 4.5 22.27 7.61 24 12C22.27 16.39 18 19.5 13 19.5C8 19.5 3.73 16.39 2 12ZM21.82 12C20.17 8.63 16.79 6.5 13 6.5C9.21 6.5 5.83 8.63 4.18 12C5.83 15.37 9.2 17.5 13 17.5C16.8 17.5 20.17 15.37 21.82 12ZM13 9.5C14.38 9.5 15.5 10.62 15.5 12C15.5 13.38 14.38 14.5 13 14.5C11.62 14.5 10.5 13.38 10.5 12C10.5 10.62 11.62 9.5 13 9.5ZM8.5 12C8.5 9.52 10.52 7.5 13 7.5C15.48 7.5 17.5 9.52 17.5 12C17.5 14.48 15.48 16.5 13 16.5C10.52 16.5 8.5 14.48 8.5 12Z" fill="white"/>
</g>
<defs>
<filter id="filter0_d" x="0" y="4.5" width="26" height="19" filterUnits="userSpaceOnUse" color-interpolation-filters="sRGB">
<feFlood flood-opacity="0" result="BackgroundImageFix"/>
<feColorMatrix in="SourceAlpha" type="matrix" values="0 0 0 0 0 0 0 0 0 0 0 0 0 0 0 0 0 0 127 0"/>
<feOffset dy="2"/>
<feGaussianBlur stdDeviation="1"/>
<feColorMatrix type="matrix" values="0 0 0 0 0 0 0 0 0 0 0 0 0 0 0 0 0 0 0.25 0"/>
<feBlend mode="normal" in2="BackgroundImageFix" result="effect1_dropShadow"/>
<feBlend mode="normal" in="SourceGraphic" in2="effect1_dropShadow" result="shape"/>
</filter>
</defs>
</svg>
