<svg width="16" height="16" viewBox="0 0 16 16" fill="none" xmlns="http://www.w3.org/2000/svg">
<path d="M7.33333 2V14H2.66667C2.48986 14 2.32029 13.9298 2.19526 13.8047C2.07024 13.6797 2 13.5101 2 13.3333V2.66667C2 2.48986 2.07024 2.32029 2.19526 2.19526C2.32029 2.07024 2.48986 2 2.66667 2H7.33333ZM14 8.66667V13.3333C14 13.5101 13.9298 13.6797 13.8047 13.8047C13.6797 13.9298 13.5101 14 13.3333 14H8.66667V8.66667H14ZM13.3333 2C13.5101 2 13.6797 2.07024 13.8047 2.19526C13.9298 2.32029 14 2.48986 14 2.66667V7.33333H8.66667V2H13.3333Z" fill="white"/>
</svg>
