<svg width="30" height="34" viewBox="0 0 30 34" fill="none" xmlns="http://www.w3.org/2000/svg">
<g filter="url(#filter0_d)">
<path fill-rule="evenodd" clip-rule="evenodd" d="M23.328 0.80304H6.67162C5.02978 0.80304 3.69727 2.13587 3.69727 3.7781V26.3886C3.69727 28.0308 5.02978 29.3636 6.67162 29.3636H23.328C24.9699 29.3636 26.3024 28.0308 26.3024 26.3886V3.7781C26.3024 2.13587 24.9699 0.80304 23.328 0.80304ZM14.9998 28.1736C14.0123 28.1736 13.2152 27.3763 13.2152 26.3886C13.2152 25.4009 14.0123 24.6035 14.9998 24.6035C15.9873 24.6035 16.7844 25.4009 16.7844 26.3886C16.7844 27.3763 15.9873 28.1736 14.9998 28.1736ZM6.07675 23.4135H23.9229V4.37312H6.07675V23.4135Z" fill="white"/>
</g>
<defs>
<filter id="filter0_d" x="1.69727" y="0.80304" width="26.6051" height="32.5606" filterUnits="userSpaceOnUse" color-interpolation-filters="sRGB">
<feFlood flood-opacity="0" result="BackgroundImageFix"/>
<feColorMatrix in="SourceAlpha" type="matrix" values="0 0 0 0 0 0 0 0 0 0 0 0 0 0 0 0 0 0 127 0"/>
<feOffset dy="2"/>
<feGaussianBlur stdDeviation="1"/>
<feColorMatrix type="matrix" values="0 0 0 0 0 0 0 0 0 0 0 0 0 0 0 0 0 0 0.25 0"/>
<feBlend mode="normal" in2="BackgroundImageFix" result="effect1_dropShadow"/>
<feBlend mode="normal" in="SourceGraphic" in2="effect1_dropShadow" result="shape"/>
</filter>
</defs>
</svg>
