<svg width="31" height="30" viewBox="0 0 31 30" fill="none" xmlns="http://www.w3.org/2000/svg">
<g filter="url(#filter0_d)">
<path fill-rule="evenodd" clip-rule="evenodd" d="M9.5058 22.7692H5.70348C5.00638 22.7692 4.43604 22.2154 4.43604 21.5385V8C4.43604 7.32307 5.00638 6.76923 5.70348 6.76923H9.5058C10.2029 6.76923 10.7732 7.32307 10.7732 8V21.5385C10.7732 22.2154 10.2029 22.7692 9.5058 22.7692ZM17.1105 22.7692H13.3081C12.611 22.7692 12.0407 22.2154 12.0407 21.5385V16.6154C12.0407 15.9385 12.611 15.3846 13.3081 15.3846H17.1105C17.8075 15.3846 18.3779 15.9385 18.3779 16.6154V21.5385C18.3779 22.2154 17.8075 22.7692 17.1105 22.7692ZM20.9128 22.7692H24.7151C25.4122 22.7692 25.9825 22.2154 25.9825 21.5385V16.6154C25.9825 15.9385 25.4122 15.3846 24.7151 15.3846H20.9128C20.2157 15.3846 19.6453 15.9385 19.6453 16.6154V21.5385C19.6453 22.2154 20.2157 22.7692 20.9128 22.7692ZM12.0407 12.9231V8C12.0407 7.32307 12.611 6.76923 13.3081 6.76923H24.7151C25.4122 6.76923 25.9825 7.32307 25.9825 8V12.9231C25.9825 13.6 25.4122 14.1538 24.7151 14.1538H13.3081C12.611 14.1538 12.0407 13.6 12.0407 12.9231Z" fill="#F5F6FA"/>
</g>
<defs>
<filter id="filter0_d" x="2.43604" y="6.76923" width="25.5465" height="20" filterUnits="userSpaceOnUse" color-interpolation-filters="sRGB">
<feFlood flood-opacity="0" result="BackgroundImageFix"/>
<feColorMatrix in="SourceAlpha" type="matrix" values="0 0 0 0 0 0 0 0 0 0 0 0 0 0 0 0 0 0 127 0"/>
<feOffset dy="2"/>
<feGaussianBlur stdDeviation="1"/>
<feColorMatrix type="matrix" values="0 0 0 0 0 0 0 0 0 0 0 0 0 0 0 0 0 0 0.25 0"/>
<feBlend mode="normal" in2="BackgroundImageFix" result="effect1_dropShadow"/>
<feBlend mode="normal" in="SourceGraphic" in2="effect1_dropShadow" result="shape"/>
</filter>
</defs>
</svg>
