<svg width="16" height="16" viewBox="0 0 16 16" fill="none" xmlns="http://www.w3.org/2000/svg">
<path fill-rule="evenodd" clip-rule="evenodd" d="M4.64598 14.354C4.59941 14.3075 4.56247 14.2524 4.53727 14.1916C4.51206 14.1309 4.49908 14.0658 4.49908 14C4.49908 13.9342 4.51206 13.8691 4.53727 13.8084C4.56247 13.7476 4.59941 13.6924 4.64598 13.646L10.293 7.99999L4.64598 2.35399C4.59949 2.3075 4.56261 2.25231 4.53745 2.19158C4.5123 2.13084 4.49935 2.06573 4.49935 1.99999C4.49935 1.93425 4.5123 1.86915 4.53745 1.80841C4.56261 1.74767 4.59949 1.69248 4.64598 1.64599C4.69247 1.5995 4.74766 1.56263 4.80839 1.53747C4.86913 1.51231 4.93423 1.49936 4.99998 1.49936C5.06572 1.49936 5.13082 1.51231 5.19156 1.53747C5.2523 1.56263 5.30749 1.5995 5.35398 1.64599L11.354 7.64599C11.4005 7.69244 11.4375 7.74761 11.4627 7.80836C11.4879 7.8691 11.5009 7.93422 11.5009 7.99999C11.5009 8.06576 11.4879 8.13088 11.4627 8.19162C11.4375 8.25237 11.4005 8.30755 11.354 8.35399L5.35398 14.354C5.30753 14.4006 5.25236 14.4375 5.19161 14.4627C5.13087 14.4879 5.06575 14.5009 4.99998 14.5009C4.93421 14.5009 4.86909 14.4879 4.80834 14.4627C4.7476 14.4375 4.69242 14.4006 4.64598 14.354Z" fill="white"/>
</svg>
