<svg width="21" height="20" viewBox="0 0 21 20" fill="none" xmlns="http://www.w3.org/2000/svg">
<g clip-path="url(#clip0)">
<path fill-rule="evenodd" clip-rule="evenodd" d="M18.3845 1.25H3.38452C3.053 1.25 2.73506 1.3817 2.50064 1.61612C2.26622 1.85054 2.13452 2.16848 2.13452 2.5V17.5C2.13452 17.8315 2.26622 18.1495 2.50064 18.3839C2.73506 18.6183 3.053 18.75 3.38452 18.75H18.3845C18.716 18.75 19.034 18.6183 19.2684 18.3839C19.5028 18.1495 19.6345 17.8315 19.6345 17.5V2.5C19.6345 2.16848 19.5028 1.85054 19.2684 1.61612C19.034 1.3817 18.716 1.25 18.3845 1.25ZM3.38452 0C2.72148 0 2.0856 0.263392 1.61675 0.732233C1.14791 1.20107 0.884521 1.83696 0.884521 2.5L0.884521 17.5C0.884521 18.163 1.14791 18.7989 1.61675 19.2678C2.0856 19.7366 2.72148 20 3.38452 20H18.3845C19.0476 20 19.6834 19.7366 20.1523 19.2678C20.6211 18.7989 20.8845 18.163 20.8845 17.5V2.5C20.8845 1.83696 20.6211 1.20107 20.1523 0.732233C19.6834 0.263392 19.0476 0 18.3845 0L3.38452 0Z" fill="white"/>
<path d="M16.3499 4.95V14.05H11.1499V16H9.8499V14.05H4.6499V4.95H9.8499V3H11.1499V4.95H16.3499ZM10.8249 14.05V4.95H10.1749V14.05H10.8249ZM8.5499 7.225L5.9499 9.5L8.5499 11.775V7.225ZM15.0499 9.5L12.4499 7.225V11.775L15.0499 9.5Z" fill="white"/>
</g>
<defs>
<clipPath id="clip0">
<rect width="20" height="20" fill="white" transform="translate(0.884521)"/>
</clipPath>
</defs>
</svg>
