<svg width="24" height="24" viewBox="0 0 24 24" fill="none" xmlns="http://www.w3.org/2000/svg">
<path d="M17.4444 17.4444H19V19H17.4444V17.4444ZM8.11111 17.4444H9.66667V19H8.11111V17.4444ZM14.3333 17.4444H15.8889V19H14.3333V17.4444ZM11.2222 17.4444H12.7778V19H11.2222V17.4444ZM5 17.4444H6.55556V19H5V17.4444ZM5 14.3333H6.55556V15.8889H5V14.3333ZM5 8.11111H6.55556V9.66667H5V8.11111ZM5 11.2222H6.55556V12.7778H5V11.2222ZM5 5H6.55556V6.55556H5V5ZM8.11111 5H9.66667V6.55556H8.11111V5ZM17.4444 14.3333H19V15.8889H17.4444V14.3333ZM15.1111 5H11.2222V6.55556H15.1111C16.3976 6.55556 17.4444 7.60244 17.4444 8.88889V12.7778H19V8.88889C19 6.74456 17.2554 5 15.1111 5Z" fill="white"/>
<path fill-rule="evenodd" clip-rule="evenodd" d="M19.5 3.25H4.5C4.16848 3.25 3.85054 3.3817 3.61612 3.61612C3.3817 3.85054 3.25 4.16848 3.25 4.5V19.5C3.25 19.8315 3.3817 20.1495 3.61612 20.3839C3.85054 20.6183 4.16848 20.75 4.5 20.75H19.5C19.8315 20.75 20.1495 20.6183 20.3839 20.3839C20.6183 20.1495 20.75 19.8315 20.75 19.5V4.5C20.75 4.16848 20.6183 3.85054 20.3839 3.61612C20.1495 3.3817 19.8315 3.25 19.5 3.25ZM4.5 2C3.83696 2 3.20107 2.26339 2.73223 2.73223C2.26339 3.20107 2 3.83696 2 4.5L2 19.5C2 20.163 2.26339 20.7989 2.73223 21.2678C3.20107 21.7366 3.83696 22 4.5 22H19.5C20.163 22 20.7989 21.7366 21.2678 21.2678C21.7366 20.7989 22 20.163 22 19.5V4.5C22 3.83696 21.7366 3.20107 21.2678 2.73223C20.7989 2.26339 20.163 2 19.5 2H4.5Z" fill="white"/>
</svg>
