<svg width="16" height="16" viewBox="0 0 16 16" fill="none" xmlns="http://www.w3.org/2000/svg">
<path d="M13.5001 11.07V4.92995C13.8426 4.84314 14.1561 4.66713 14.4085 4.41981C14.6609 4.1725 14.8433 3.86272 14.9371 3.52201C15.0308 3.1813 15.0327 2.82182 14.9424 2.48017C14.8521 2.13852 14.6729 1.82689 14.423 1.57701C14.1731 1.32713 13.8615 1.14792 13.5198 1.05762C13.1782 0.967324 12.8187 0.96916 12.478 1.06294C12.1373 1.15673 11.8275 1.33911 11.5802 1.59153C11.3329 1.84395 11.1569 2.15739 11.0701 2.49995H4.93006C4.84325 2.15739 4.66723 1.84395 4.41992 1.59153C4.17261 1.33911 3.86283 1.15673 3.52212 1.06294C3.18141 0.96916 2.82193 0.967324 2.48028 1.05762C2.13863 1.14792 1.827 1.32713 1.57712 1.57701C1.32724 1.82689 1.14803 2.13852 1.05773 2.48017C0.96743 2.82182 0.969267 3.1813 1.06305 3.52201C1.15684 3.86272 1.33922 4.1725 1.59164 4.41981C1.84406 4.66713 2.1575 4.84314 2.50006 4.92995V11.07C2.1575 11.1568 1.84406 11.3328 1.59164 11.5801C1.33922 11.8274 1.15684 12.1372 1.06305 12.4779C0.969267 12.8186 0.96743 13.1781 1.05773 13.5197C1.14803 13.8614 1.32724 14.173 1.57712 14.4229C1.827 14.6728 2.13863 14.852 2.48028 14.9423C2.82193 15.0326 3.18141 15.0307 3.52212 14.937C3.86283 14.8432 4.17261 14.6608 4.41992 14.4084C4.66723 14.1559 4.84325 13.8425 4.93006 13.5H11.0701C11.1569 13.8425 11.3329 14.1559 11.5802 14.4084C11.8275 14.6608 12.1373 14.8432 12.478 14.937C12.8187 15.0307 13.1782 15.0326 13.5198 14.9423C13.8615 14.852 14.1731 14.6728 14.423 14.4229C14.6729 14.173 14.8521 13.8614 14.9424 13.5197C15.0327 13.1781 15.0308 12.8186 14.9371 12.4779C14.8433 12.1372 14.6609 11.8274 14.4085 11.5801C14.1561 11.3328 13.8426 11.1568 13.5001 11.07ZM13.0001 1.99995C13.1978 1.99995 13.3912 2.0586 13.5556 2.16848C13.7201 2.27836 13.8482 2.43454 13.9239 2.61727C13.9996 2.79999 14.0194 3.00106 13.9808 3.19504C13.9423 3.38902 13.847 3.5672 13.7072 3.70706C13.5673 3.84691 13.3891 3.94215 13.1951 3.98073C13.0012 4.01932 12.8001 3.99952 12.6174 3.92383C12.4346 3.84814 12.2785 3.71997 12.1686 3.55552C12.0587 3.39107 12.0001 3.19773 12.0001 2.99995C12.0001 2.73473 12.1054 2.48038 12.293 2.29284C12.4805 2.10531 12.7348 1.99995 13.0001 1.99995ZM2.00006 2.99995C2.00006 2.80217 2.05871 2.60883 2.16859 2.44438C2.27847 2.27993 2.43465 2.15176 2.61737 2.07607C2.8001 2.00038 3.00117 1.98058 3.19515 2.01916C3.38913 2.05775 3.56731 2.15299 3.70716 2.29284C3.84702 2.4327 3.94226 2.61088 3.98084 2.80486C4.01943 2.99884 3.99962 3.19991 3.92394 3.38263C3.84825 3.56536 3.72008 3.72154 3.55563 3.83142C3.39118 3.9413 3.19784 3.99995 3.00006 3.99995C2.73484 3.99995 2.48049 3.89459 2.29295 3.70706C2.10541 3.51952 2.00006 3.26517 2.00006 2.99995ZM3.00006 14C2.80227 14 2.60894 13.9413 2.44449 13.8314C2.28004 13.7215 2.15186 13.5654 2.07618 13.3826C2.00049 13.1999 1.98069 12.9988 2.01927 12.8049C2.05786 12.6109 2.1531 12.4327 2.29295 12.2928C2.4328 12.153 2.61098 12.0578 2.80497 12.0192C2.99895 11.9806 3.20001 12.0004 3.38274 12.0761C3.56547 12.1518 3.72164 12.2799 3.83153 12.4444C3.94141 12.6088 4.00006 12.8022 4.00006 13C4.00006 13.2652 3.8947 13.5195 3.70716 13.7071C3.51963 13.8946 3.26527 14 3.00006 14ZM11.0701 12.5H4.93006C4.84028 12.156 4.66046 11.8422 4.40912 11.5909C4.15777 11.3395 3.84398 11.1597 3.50006 11.07V4.92995C3.84398 4.84017 4.15777 4.66035 4.40912 4.40901C4.66046 4.15767 4.84028 3.84388 4.93006 3.49995H11.0701C11.1598 3.84388 11.3397 4.15767 11.591 4.40901C11.8423 4.66035 12.1561 4.84017 12.5001 4.92995V11.07C12.1561 11.1597 11.8423 11.3395 11.591 11.5909C11.3397 11.8422 11.1598 12.156 11.0701 12.5ZM13.0001 14C12.8023 14 12.6089 13.9413 12.4445 13.8314C12.28 13.7215 12.1519 13.5654 12.0762 13.3826C12.0005 13.1999 11.9807 12.9988 12.0193 12.8049C12.0579 12.6109 12.1531 12.4327 12.293 12.2928C12.4328 12.153 12.611 12.0578 12.805 12.0192C12.9989 11.9806 13.2 12.0004 13.3827 12.0761C13.5655 12.1518 13.7216 12.2799 13.8315 12.4444C13.9414 12.6088 14.0001 12.8022 14.0001 13C14.0001 13.2652 13.8947 13.5195 13.7072 13.7071C13.5196 13.8946 13.2653 14 13.0001 14Z" fill="white"/>
<path d="M10.5 5.5H5.5V6.5H7.5V11H8.5V6.5H10.5V5.5Z" fill="white"/>
</svg>
