<svg width="38" height="38" viewBox="0 0 38 38" fill="none" xmlns="http://www.w3.org/2000/svg">
<rect width="38" height="38" fill="#272B31"/>
<path d="M24.5974 12.6369C24.5095 12.5489 24.4051 12.479 24.2902 12.4313C24.1753 12.3836 24.0521 12.3591 23.9277 12.3591C23.8033 12.3591 23.6801 12.3836 23.5651 12.4313C23.4502 12.479 23.3458 12.5489 23.2579 12.6369L18.6124 17.2729L13.9669 12.6274C13.879 12.5395 13.7746 12.4697 13.6596 12.4221C13.5447 12.3745 13.4216 12.35 13.2972 12.35C13.1728 12.35 13.0496 12.3745 12.9347 12.4221C12.8198 12.4697 12.7154 12.5395 12.6274 12.6274C12.5395 12.7154 12.4697 12.8198 12.4221 12.9347C12.3745 13.0496 12.35 13.1728 12.35 13.2972C12.35 13.4216 12.3745 13.5447 12.4221 13.6596C12.4697 13.7746 12.5395 13.879 12.6274 13.9669L17.2729 18.6124L12.6274 23.2579C12.5395 23.3459 12.4697 23.4503 12.4221 23.5652C12.3745 23.6801 12.35 23.8033 12.35 23.9277C12.35 24.0521 12.3745 24.1752 12.4221 24.2901C12.4697 24.4051 12.5395 24.5095 12.6274 24.5974C12.7154 24.6854 12.8198 24.7551 12.9347 24.8027C13.0496 24.8503 13.1728 24.8748 13.2972 24.8748C13.4216 24.8748 13.5447 24.8503 13.6596 24.8027C13.7746 24.7551 13.879 24.6854 13.9669 24.5974L18.6124 19.9519L23.2579 24.5974C23.3459 24.6854 23.4503 24.7551 23.5652 24.8027C23.6801 24.8503 23.8033 24.8748 23.9277 24.8748C24.0521 24.8748 24.1752 24.8503 24.2901 24.8027C24.4051 24.7551 24.5095 24.6854 24.5974 24.5974C24.6854 24.5095 24.7551 24.4051 24.8027 24.2901C24.8503 24.1752 24.8748 24.0521 24.8748 23.9277C24.8748 23.8033 24.8503 23.6801 24.8027 23.5652C24.7551 23.4503 24.6854 23.3459 24.5974 23.2579L19.9519 18.6124L24.5974 13.9669C24.9584 13.6059 24.9584 12.9979 24.5974 12.6369Z" fill="white"/>
</svg>
