<svg width="24" height="25" viewBox="0 0 24 25" fill="none" xmlns="http://www.w3.org/2000/svg">
<g filter="url(#filter0_d)">
<path fill-rule="evenodd" clip-rule="evenodd" d="M5 2.99646H19C20.1 2.99646 21 3.88882 21 4.97948V18.8606C21 19.9513 20.1 20.8436 19 20.8436H5C3.89 20.8436 3 19.9513 3 18.8606V14.8946H5V18.8606H19V4.97948H5V8.94551H3V4.97948C3 3.88882 3.89 2.99646 5 2.99646ZM11.5 16.8776L10.09 15.4796L12.67 12.9116H3V10.9285H12.67L10.09 8.36053L11.5 6.9625L16.5 11.92L11.5 16.8776Z" fill="#F5F6FA"/>
</g>
<defs>
<filter id="filter0_d" x="1" y="2.99646" width="22" height="21.8472" filterUnits="userSpaceOnUse" color-interpolation-filters="sRGB">
<feFlood flood-opacity="0" result="BackgroundImageFix"/>
<feColorMatrix in="SourceAlpha" type="matrix" values="0 0 0 0 0 0 0 0 0 0 0 0 0 0 0 0 0 0 127 0"/>
<feOffset dy="2"/>
<feGaussianBlur stdDeviation="1"/>
<feColorMatrix type="matrix" values="0 0 0 0 0 0 0 0 0 0 0 0 0 0 0 0 0 0 0.25 0"/>
<feBlend mode="normal" in2="BackgroundImageFix" result="effect1_dropShadow"/>
<feBlend mode="normal" in="SourceGraphic" in2="effect1_dropShadow" result="shape"/>
</filter>
</defs>
</svg>
