<svg width="27" height="24" viewBox="0 0 27 24" fill="none" xmlns="http://www.w3.org/2000/svg">
<path d="M20.7377 5H16.3718V19H20.7377V17H18.5548V7H20.7377V5Z" fill="white"/>
<path d="M5.45728 5H9.82313V19H5.45728V17H7.6402V7H5.45728V5Z" fill="white"/>
<path d="M14.189 7V17H12.0061V7H14.189Z" fill="white"/>
<path fill-rule="evenodd" clip-rule="evenodd" d="M20.7683 3.25H5.76831C5.43679 3.25 5.11885 3.3817 4.88443 3.61612C4.65001 3.85054 4.51831 4.16848 4.51831 4.5V19.5C4.51831 19.8315 4.65001 20.1495 4.88443 20.3839C5.11885 20.6183 5.43679 20.75 5.76831 20.75H20.7683C21.0998 20.75 21.4178 20.6183 21.6522 20.3839C21.8866 20.1495 22.0183 19.8315 22.0183 19.5V4.5C22.0183 4.16848 21.8866 3.85054 21.6522 3.61612C21.4178 3.3817 21.0998 3.25 20.7683 3.25ZM5.76831 2C5.10527 2 4.46938 2.26339 4.00054 2.73223C3.5317 3.20107 3.26831 3.83696 3.26831 4.5L3.26831 19.5C3.26831 20.163 3.5317 20.7989 4.00054 21.2678C4.46938 21.7366 5.10527 22 5.76831 22H20.7683C21.4314 22 22.0672 21.7366 22.5361 21.2678C23.0049 20.7989 23.2683 20.163 23.2683 19.5V4.5C23.2683 3.83696 23.0049 3.20107 22.5361 2.73223C22.0672 2.26339 21.4314 2 20.7683 2H5.76831Z" fill="white"/>
</svg>
