<svg width="16" height="16" viewBox="0 0 16 16" fill="none" xmlns="http://www.w3.org/2000/svg">
<path d="M1.33333 3.99999H0V7.33333H0.00666667L0 13.3333C0 14.0667 0.6 14.6667 1.33333 14.6667H13.3333V13.3333H1.33333V3.99999ZM14.6667 2.66666H9.33333L8 1.33333H4C3.26667 1.33333 2.67333 1.93333 2.67333 2.66666L2.66667 10.6667C2.66667 11.4 3.26667 12 4 12H14.6667C15.4 12 16 11.4 16 10.6667V3.99999C16 3.26666 15.4 2.66666 14.6667 2.66666ZM4.66667 10L7.66667 6L10 9.00666L11.6667 7L14 10H4.66667Z" fill="white"/>
</svg>
