<svg width="14" height="22" viewBox="0 0 14 22" fill="none" xmlns="http://www.w3.org/2000/svg">
<g clip-path="url(#clip0)">
<g filter="url(#filter0_d)">
<path d="M12.6875 5.91406H1.3125C1.07051 5.91406 0.875 6.10957 0.875 6.35156V13.1328C0.875 13.3748 1.07051 13.5703 1.3125 13.5703H6.50781V15.1016H4.15625C4.03594 15.1016 3.9375 15.2 3.9375 15.3203V15.9766C3.9375 16.0367 3.98672 16.0859 4.04688 16.0859H9.95312C10.0133 16.0859 10.0625 16.0367 10.0625 15.9766V15.3203C10.0625 15.2 9.96406 15.1016 9.84375 15.1016H7.49219V13.5703H12.6875C12.9295 13.5703 13.125 13.3748 13.125 13.1328V6.35156C13.125 6.10957 12.9295 5.91406 12.6875 5.91406ZM12.1406 12.5859H1.85938V6.89844H12.1406V12.5859Z" fill="white"/>
</g>
</g>
<defs>
<filter id="filter0_d" x="-1.125" y="5.91406" width="16.25" height="14.1719" filterUnits="userSpaceOnUse" color-interpolation-filters="sRGB">
<feFlood flood-opacity="0" result="BackgroundImageFix"/>
<feColorMatrix in="SourceAlpha" type="matrix" values="0 0 0 0 0 0 0 0 0 0 0 0 0 0 0 0 0 0 127 0"/>
<feOffset dy="2"/>
<feGaussianBlur stdDeviation="1"/>
<feColorMatrix type="matrix" values="0 0 0 0 0 0 0 0 0 0 0 0 0 0 0 0 0 0 0.25 0"/>
<feBlend mode="normal" in2="BackgroundImageFix" result="effect1_dropShadow"/>
<feBlend mode="normal" in="SourceGraphic" in2="effect1_dropShadow" result="shape"/>
</filter>
<clipPath id="clip0">
<rect width="14" height="14" fill="white" transform="translate(0 4)"/>
</clipPath>
</defs>
</svg>
