<svg xmlns="http://www.w3.org/2000/svg" width="28" height="32" fill="none" viewBox="0 0 28 32">
    <g filter="url(#filter0_d)">
        <path fill="#F6F9FB" fill-rule="evenodd" d="M22.5 19.313v-7.084c0-4.349-2.31-7.99-6.375-8.953v-.963c0-1.176-.95-2.126-2.125-2.126-1.176 0-2.125.95-2.125 2.126v.963C7.823 4.239 5.5 7.866 5.5 12.229v7.084l-2.833 2.833v1.416h22.666v-1.416L22.5 19.312zm-8.5 8.5c1.558 0 2.833-1.275 2.833-2.834h-5.666c0 1.559 1.275 2.834 2.833 2.834zm-5.667-7.084h11.334v-8.5c0-3.513-2.14-6.375-5.667-6.375-3.527 0-5.667 2.862-5.667 6.375v8.5z" clip-rule="evenodd"/>
    </g>
    <defs>
        <filter id="filter0_d" width="26.667" height="31.625" x=".667" y=".188" color-interpolation-filters="sRGB" filterUnits="userSpaceOnUse">
            <feFlood flood-opacity="0" result="BackgroundImageFix"/>
            <feColorMatrix in="SourceAlpha" values="0 0 0 0 0 0 0 0 0 0 0 0 0 0 0 0 0 0 127 0"/>
            <feOffset dy="2"/>
            <feGaussianBlur stdDeviation="1"/>
            <feColorMatrix values="0 0 0 0 0 0 0 0 0 0 0 0 0 0 0 0 0 0 0.25 0"/>
            <feBlend in2="BackgroundImageFix" result="effect1_dropShadow"/>
            <feBlend in="SourceGraphic" in2="effect1_dropShadow" result="shape"/>
        </filter>
    </defs>
</svg>
