<svg width="24" height="25" viewBox="0 0 24 25" fill="none" xmlns="http://www.w3.org/2000/svg">
<g clip-path="url(#clip0)">
<g filter="url(#filter0_d)">
<path d="M17.5 12.6308C17.1022 12.6308 16.7206 12.4752 16.4393 12.1982C16.158 11.9212 16 11.5456 16 11.1539C16 10.7622 16.158 10.3865 16.4393 10.1095C16.7206 9.83255 17.1022 9.67695 17.5 9.67695C17.8978 9.67695 18.2794 9.83255 18.5607 10.1095C18.842 10.3865 19 10.7622 19 11.1539C19 11.5456 18.842 11.9212 18.5607 12.1982C18.2794 12.4752 17.8978 12.6308 17.5 12.6308ZM14.5 8.69233C14.1022 8.69233 13.7206 8.53673 13.4393 8.25975C13.158 7.98278 13 7.60712 13 7.21541C13 6.82371 13.158 6.44805 13.4393 6.17107C13.7206 5.89409 14.1022 5.73849 14.5 5.73849C14.8978 5.73849 15.2794 5.89409 15.5607 6.17107C15.842 6.44805 16 6.82371 16 7.21541C16 7.60712 15.842 7.98278 15.5607 8.25975C15.2794 8.53673 14.8978 8.69233 14.5 8.69233ZM9.5 8.69233C9.10218 8.69233 8.72064 8.53673 8.43934 8.25975C8.15804 7.98278 8 7.60712 8 7.21541C8 6.82371 8.15804 6.44805 8.43934 6.17107C8.72064 5.89409 9.10218 5.73849 9.5 5.73849C9.89782 5.73849 10.2794 5.89409 10.5607 6.17107C10.842 6.44805 11 6.82371 11 7.21541C11 7.60712 10.842 7.98278 10.5607 8.25975C10.2794 8.53673 9.89782 8.69233 9.5 8.69233ZM6.5 12.6308C6.10218 12.6308 5.72064 12.4752 5.43934 12.1982C5.15804 11.9212 5 11.5456 5 11.1539C5 10.7622 5.15804 10.3865 5.43934 10.1095C5.72064 9.83255 6.10218 9.67695 6.5 9.67695C6.89782 9.67695 7.27936 9.83255 7.56066 10.1095C7.84196 10.3865 8 10.7622 8 11.1539C8 11.5456 7.84196 11.9212 7.56066 12.1982C7.27936 12.4752 6.89782 12.6308 6.5 12.6308ZM12 3.76926C9.61305 3.76926 7.32387 4.70288 5.63604 6.36474C3.94821 8.0266 3 10.2806 3 12.6308C3 14.981 3.94821 17.235 5.63604 18.8969C7.32387 20.5587 9.61305 21.4923 12 21.4923C12.3978 21.4923 12.7794 21.3367 13.0607 21.0598C13.342 20.7828 13.5 20.4071 13.5 20.0154C13.5 19.6314 13.35 19.2868 13.11 19.0308C12.88 18.765 12.73 18.4203 12.73 18.0462C12.73 17.6545 12.888 17.2788 13.1693 17.0018C13.4506 16.7249 13.8322 16.5693 14.23 16.5693H16C17.3261 16.5693 18.5979 16.0506 19.5355 15.1273C20.4732 14.2041 21 12.9519 21 11.6462C21 7.29418 16.97 3.76926 12 3.76926Z" fill="white"/>
</g>
</g>
<defs>
<filter id="filter0_d" x="1" y="3.76926" width="22" height="21.7231" filterUnits="userSpaceOnUse" color-interpolation-filters="sRGB">
<feFlood flood-opacity="0" result="BackgroundImageFix"/>
<feColorMatrix in="SourceAlpha" type="matrix" values="0 0 0 0 0 0 0 0 0 0 0 0 0 0 0 0 0 0 127 0"/>
<feOffset dy="2"/>
<feGaussianBlur stdDeviation="1"/>
<feColorMatrix type="matrix" values="0 0 0 0 0 0 0 0 0 0 0 0 0 0 0 0 0 0 0.25 0"/>
<feBlend mode="normal" in2="BackgroundImageFix" result="effect1_dropShadow"/>
<feBlend mode="normal" in="SourceGraphic" in2="effect1_dropShadow" result="shape"/>
</filter>
<clipPath id="clip0">
<rect width="24" height="23.6308" fill="white" transform="translate(0 0.815399)"/>
</clipPath>
</defs>
</svg>
