<svg width="24" height="26" viewBox="0 0 24 26" fill="none" xmlns="http://www.w3.org/2000/svg">
<g filter="url(#filter0_d)">
<path fill-rule="evenodd" clip-rule="evenodd" d="M14.59 2.59C14.21 2.21 13.7 2 13.17 2H6C4.9 2 4 2.9 4 4V20C4 21.1 4.89 22 5.99 22H18C19.1 22 20 21.1 20 20V8.83C20 8.3 19.79 7.79 19.41 7.42L14.59 2.59ZM16 15C16 15.55 15.55 16 15 16H13V18C13 18.55 12.55 19 12 19C11.45 19 11 18.55 11 18V16H9C8.45 16 8 15.55 8 15C8 14.45 8.45 14 9 14H11V12C11 11.45 11.45 11 12 11C12.55 11 13 11.45 13 12V14H15C15.55 14 16 14.45 16 15ZM13 3.5V8C13 8.55 13.45 9 14 9H18.5L13 3.5Z" fill="#F5F6FA"/>
</g>
<defs>
<filter id="filter0_d" x="2" y="2" width="20" height="24" filterUnits="userSpaceOnUse" color-interpolation-filters="sRGB">
<feFlood flood-opacity="0" result="BackgroundImageFix"/>
<feColorMatrix in="SourceAlpha" type="matrix" values="0 0 0 0 0 0 0 0 0 0 0 0 0 0 0 0 0 0 127 0"/>
<feOffset dy="2"/>
<feGaussianBlur stdDeviation="1"/>
<feColorMatrix type="matrix" values="0 0 0 0 0 0 0 0 0 0 0 0 0 0 0 0 0 0 0.25 0"/>
<feBlend mode="normal" in2="BackgroundImageFix" result="effect1_dropShadow"/>
<feBlend mode="normal" in="SourceGraphic" in2="effect1_dropShadow" result="shape"/>
</filter>
</defs>
</svg>
