<svg width="28" height="32" viewBox="0 0 28 32" fill="none" xmlns="http://www.w3.org/2000/svg">
<g filter="url(#filter0_d)">
<path fill-rule="evenodd" clip-rule="evenodd" d="M22.4998 19.3125V12.2292C22.4998 7.88 20.1907 4.23917 16.1248 3.27583V2.3125C16.1248 1.13667 15.1757 0.1875 13.9998 0.1875C12.824 0.1875 11.8748 1.13667 11.8748 2.3125V3.27583C7.82317 4.23917 5.49984 7.86583 5.49984 12.2292V19.3125L2.6665 22.1458V23.5625H25.3332V22.1458L22.4998 19.3125ZM13.9998 27.8125C15.5582 27.8125 16.8332 26.5375 16.8332 24.9792H11.1665C11.1665 26.5375 12.4415 27.8125 13.9998 27.8125ZM8.33317 20.7292H19.6665V12.2292C19.6665 8.71583 17.5273 5.85417 13.9998 5.85417C10.4723 5.85417 8.33317 8.71583 8.33317 12.2292V20.7292Z" fill="#F6F9FB"/>
</g>
<defs>
<filter id="filter0_d" x="0.666504" y="0.1875" width="26.6667" height="31.625" filterUnits="userSpaceOnUse" color-interpolation-filters="sRGB">
<feFlood flood-opacity="0" result="BackgroundImageFix"/>
<feColorMatrix in="SourceAlpha" type="matrix" values="0 0 0 0 0 0 0 0 0 0 0 0 0 0 0 0 0 0 127 0"/>
<feOffset dy="2"/>
<feGaussianBlur stdDeviation="1"/>
<feColorMatrix type="matrix" values="0 0 0 0 0 0 0 0 0 0 0 0 0 0 0 0 0 0 0.25 0"/>
<feBlend mode="normal" in2="BackgroundImageFix" result="effect1_dropShadow"/>
<feBlend mode="normal" in="SourceGraphic" in2="effect1_dropShadow" result="shape"/>
</filter>
</defs>
</svg>
