<svg width="25" height="25" viewBox="0 0 25 25" fill="none" xmlns="http://www.w3.org/2000/svg">
<path fill-rule="evenodd" clip-rule="evenodd" d="M12.5 0C5.59644 0 0 5.58733 0 12.4796C0 19.372 5.59644 24.9593 12.5 24.9593C19.4036 24.9593 25 19.372 25 12.4796C25 5.58733 19.4036 0 12.5 0ZM9.75169 5.86205C10.4628 5.82974 10.69 5.82183 12.5006 5.82183H12.4985C14.3096 5.82183 14.536 5.82974 15.2472 5.86205C15.9569 5.89449 16.4416 6.00667 16.8666 6.17127C17.3055 6.34113 17.6763 6.56854 18.0472 6.93877C18.418 7.30873 18.6458 7.68007 18.8166 8.11784C18.9805 8.54104 19.093 9.0247 19.1264 9.73327C19.1583 10.4432 19.1666 10.6701 19.1666 12.4777C19.1666 14.2853 19.1583 14.5116 19.1264 15.2216C19.093 15.9299 18.9805 16.4137 18.8166 16.837C18.6458 17.2747 18.418 17.646 18.0472 18.016C17.6768 18.3862 17.3054 18.6142 16.867 18.7842C16.4429 18.9488 15.9579 19.0609 15.2481 19.0934C14.537 19.1257 14.3105 19.1336 12.4998 19.1336C10.6893 19.1336 10.4622 19.1257 9.75113 19.0934C9.04154 19.0609 8.55695 18.9488 8.13278 18.7842C7.69458 18.6142 7.32263 18.3862 6.95221 18.016C6.58151 17.646 6.35373 17.2747 6.18332 16.8369C6.01859 16.4137 5.90623 15.93 5.87359 15.2215C5.84137 14.5115 5.83331 14.2853 5.83331 12.4777C5.83331 10.6701 5.84165 10.4431 5.87345 9.73313C5.9054 9.02484 6.0179 8.54104 6.18318 8.1177C6.35401 7.68007 6.58179 7.30873 6.95263 6.93877C7.32319 6.56868 7.69514 6.34127 8.13361 6.17127C8.55751 6.00667 9.04196 5.89449 9.75169 5.86205Z" fill="#2A2F37"/>
<path fill-rule="evenodd" clip-rule="evenodd" d="M11.9026 7.02272C12.0187 7.02254 12.1436 7.0226 12.2784 7.02266L12.5006 7.02272C14.2806 7.02272 14.4916 7.0291 15.1945 7.06099C15.8445 7.09067 16.1973 7.1991 16.4323 7.2902C16.7434 7.41084 16.9652 7.55505 17.1984 7.78801C17.4318 8.02096 17.5762 8.24283 17.6973 8.55343C17.7886 8.78778 17.8973 9.13998 17.9269 9.78893C17.9589 10.4906 17.9658 10.7013 17.9658 12.4776C17.9658 14.2539 17.9589 14.4647 17.9269 15.1663C17.8972 15.8153 17.7886 16.1675 17.6973 16.4018C17.5765 16.7124 17.4318 16.9336 17.1984 17.1664C16.9651 17.3994 16.7436 17.5436 16.4323 17.6642C16.1976 17.7557 15.8445 17.8639 15.1945 17.8936C14.4917 17.9255 14.2806 17.9324 12.5006 17.9324C10.7205 17.9324 10.5095 17.9255 9.8067 17.8936C9.15669 17.8636 8.80391 17.7552 8.56877 17.6641C8.25765 17.5434 8.03543 17.3992 7.80209 17.1663C7.56876 16.9333 7.42431 16.712 7.3032 16.4013C7.21195 16.1669 7.1032 15.8147 7.07361 15.1658C7.04167 14.4641 7.03528 14.2534 7.03528 12.476C7.03528 10.6986 7.04167 10.4889 7.07361 9.78727C7.10333 9.13832 7.21195 8.78611 7.3032 8.55149C7.42403 8.24089 7.56876 8.01902 7.80209 7.78607C8.03543 7.55311 8.25765 7.4089 8.56877 7.28799C8.80377 7.19647 9.15669 7.08831 9.8067 7.0585C10.4217 7.03076 10.66 7.02244 11.9026 7.02106V7.02272ZM16.0593 8.12804C15.6176 8.12804 15.2593 8.48538 15.2593 8.92647C15.2593 9.36742 15.6176 9.72517 16.0593 9.72517C16.501 9.72517 16.8593 9.36742 16.8593 8.92647C16.8593 8.48551 16.501 8.12776 16.0593 8.12776V8.12804ZM9.07697 12.4786C9.07697 10.591 10.6098 9.06056 12.5005 9.06049C14.3912 9.06049 15.9237 10.5909 15.9237 12.4786C15.9237 14.3662 14.3913 15.8959 12.5006 15.8959C10.6099 15.8959 9.07697 14.3662 9.07697 12.4786Z" fill="#2A2F37"/>
<path d="M12.5006 10.2601C13.7278 10.2601 14.7228 11.2534 14.7228 12.4788C14.7228 13.704 13.7278 14.6974 12.5006 14.6974C11.2732 14.6974 10.2783 13.704 10.2783 12.4788C10.2783 11.2534 11.2732 10.2601 12.5006 10.2601V10.2601Z" fill="#2A2F37"/>
</svg>
