<svg width="14" height="14" viewBox="0 0 14 14" fill="none" xmlns="http://www.w3.org/2000/svg">
<g clip-path="url(#clip0)">
<g filter="url(#filter0_d)">
<path d="M12.6875 1.91406H1.3125C1.07051 1.91406 0.875 2.10957 0.875 2.35156V9.13281C0.875 9.3748 1.07051 9.57031 1.3125 9.57031H6.50781V11.1016H4.15625C4.03594 11.1016 3.9375 11.2 3.9375 11.3203V11.9766C3.9375 12.0367 3.98672 12.0859 4.04688 12.0859H9.95312C10.0133 12.0859 10.0625 12.0367 10.0625 11.9766V11.3203C10.0625 11.2 9.96406 11.1016 9.84375 11.1016H7.49219V9.57031H12.6875C12.9295 9.57031 13.125 9.3748 13.125 9.13281V2.35156C13.125 2.10957 12.9295 1.91406 12.6875 1.91406ZM12.1406 8.58594H1.85938V2.89844H12.1406V8.58594Z" fill="white"/>
</g>
</g>
<defs>
<filter id="filter0_d" x="-1.125" y="1.91406" width="16.25" height="14.1719" filterUnits="userSpaceOnUse" color-interpolation-filters="sRGB">
<feFlood flood-opacity="0" result="BackgroundImageFix"/>
<feColorMatrix in="SourceAlpha" type="matrix" values="0 0 0 0 0 0 0 0 0 0 0 0 0 0 0 0 0 0 127 0"/>
<feOffset dy="2"/>
<feGaussianBlur stdDeviation="1"/>
<feColorMatrix type="matrix" values="0 0 0 0 0 0 0 0 0 0 0 0 0 0 0 0 0 0 0.25 0"/>
<feBlend mode="normal" in2="BackgroundImageFix" result="effect1_dropShadow"/>
<feBlend mode="normal" in="SourceGraphic" in2="effect1_dropShadow" result="shape"/>
</filter>
<clipPath id="clip0">
<rect width="14" height="14" fill="white"/>
</clipPath>
</defs>
</svg>
