<svg width="15" height="16" viewBox="0 0 15 16" fill="none" xmlns="http://www.w3.org/2000/svg">
<g clip-path="url(#clip0)">
<g filter="url(#filter0_d)">
<path d="M11.7669 1C9.93638 1 7.48208 2.36954 5.83336 4.72411H4.46625C3.4789 4.72411 2.91311 5.52851 2.52312 6.37854L2 7.51719H4.46625L5.74631 8.91372L7.02638 10.3103V13L8.07005 12.4302C8.84918 12.0057 9.5865 11.3875 9.5865 10.3103V8.81876C11.7447 7.02002 13 4.34145 13 2.34533V1H11.7669ZM9.5865 3.79308C9.81283 3.79308 10.0299 3.89117 10.1899 4.06577C10.35 4.24037 10.4399 4.47718 10.4399 4.72411C10.4399 4.97103 10.35 5.20784 10.1899 5.38244C10.0299 5.55704 9.81283 5.65513 9.5865 5.65513C9.36017 5.65513 9.14311 5.55704 8.98307 5.38244C8.82304 5.20784 8.73313 4.97103 8.73313 4.72411C8.73313 4.47718 8.82304 4.24037 8.98307 4.06577C9.14311 3.89117 9.36017 3.79308 9.5865 3.79308ZM4.03957 9.37924L3.61288 9.84475C2.99674 10.517 2.7595 12.1723 2.7595 12.1723C2.7595 12.1723 4.20853 11.988 4.89294 11.2413L5.31963 10.7758L4.03957 9.37924Z" fill="white"/>
</g>
</g>
<defs>
<filter id="filter0_d" x="0" y="1" width="15" height="16" filterUnits="userSpaceOnUse" color-interpolation-filters="sRGB">
<feFlood flood-opacity="0" result="BackgroundImageFix"/>
<feColorMatrix in="SourceAlpha" type="matrix" values="0 0 0 0 0 0 0 0 0 0 0 0 0 0 0 0 0 0 127 0"/>
<feOffset dy="2"/>
<feGaussianBlur stdDeviation="1"/>
<feColorMatrix type="matrix" values="0 0 0 0 0 0 0 0 0 0 0 0 0 0 0 0 0 0 0.25 0"/>
<feBlend mode="normal" in2="BackgroundImageFix" result="effect1_dropShadow"/>
<feBlend mode="normal" in="SourceGraphic" in2="effect1_dropShadow" result="shape"/>
</filter>
<clipPath id="clip0">
<rect width="15" height="15" fill="white" transform="translate(0 0.5)"/>
</clipPath>
</defs>
</svg>
