<svg width="15" height="13" viewBox="0 0 15 13" fill="none" xmlns="http://www.w3.org/2000/svg">
<path fill-rule="evenodd" clip-rule="evenodd" d="M7.6693 0C3.90375 0 0.847656 2.8 0.847656 6.25C0.847656 9.7 3.90375 12.5 7.6693 12.5C11.4349 12.5 14.4909 9.7 14.4909 6.25C14.4909 2.8 11.4349 0 7.6693 0ZM8.35142 10.625H6.98709V9.375H8.35142V10.625ZM9.14956 6.35596L9.7635 5.78096C10.4593 5.14346 10.6981 4.04971 9.89312 3.03096C9.27917 2.24971 8.29003 1.75596 7.25314 1.90596C6.19578 2.05596 5.34308 2.75596 5.04975 3.67471C4.9406 4.02471 5.21347 4.37471 5.60912 4.37471H5.81377C6.07982 4.37471 6.29129 4.19971 6.37315 3.96846C6.59826 3.37471 7.30089 2.98096 8.05809 3.17471C8.53561 3.29971 8.91762 3.68096 9.0063 4.13096C9.09498 4.56846 8.94491 4.98096 8.63111 5.25596L7.78523 6.04346C7.49872 6.30596 7.2736 6.63096 7.13717 6.99346C7.04167 7.24971 6.98709 7.52471 6.98709 7.81221V8.12471H8.35142C8.35142 7.83721 8.38553 7.61221 8.4401 7.41221C8.56289 6.96221 8.80847 6.67471 9.14956 6.35596Z" fill="#0187C8"/>
</svg>
