<svg width="80" height="80" viewBox="0 0 80 80" fill="none" xmlns="http://www.w3.org/2000/svg">
<g clip-path="url(#clip0_1281_3804)">
<rect width="80" height="80" fill="white"/>
<path d="M0 40V80H80V0H0V40ZM40.3047 20.3906C40.5547 20.7578 40.9219 21.3672 41.1094 21.7578C41.75 23.0391 41.9844 23.9531 42.1484 25.8438C42.3047 27.5703 42.6484 28.9922 43.1953 30.1172L43.5 30.7422L42.7812 29.9922C41.25 28.3906 40.3359 26.5859 39.7656 24.0234C39.5938 23.2734 39.4531 22.9219 39.4531 23.25C39.4531 23.4609 38.9609 25.3984 38.75 26.0156C38.2188 27.5391 36.9062 29.5625 35.9688 30.2734L35.7031 30.4766L35.9062 30.0234C36.4375 28.8594 36.6797 27.7656 37.0312 24.9609C37.1641 23.8984 37.4062 22.9219 37.7188 22.2266C38.0625 21.4688 38.7891 20.25 39.1953 19.7578L39.4922 19.3906L39.6719 19.5547C39.7656 19.6484 40.0547 20.0156 40.3047 20.3906ZM30.5312 22.2891C30.5625 22.5547 30.4297 22.7344 30.2031 22.7344C29.9766 22.7344 29.8438 22.5938 29.8438 22.3828C29.8438 22.1484 30 22.0234 30.2734 22.0469C30.4688 22.0625 30.5156 22.1094 30.5312 22.2891ZM49.1406 22.1797C49.25 22.3906 49.2422 22.4688 49.0938 22.6094C48.8203 22.8906 48.3594 22.6406 48.4922 22.2891C48.6016 22 49 21.9297 49.1406 22.1797ZM35.5469 25.0781C35.5469 25.5859 35.3203 27.0625 35.1172 27.8516C35.0156 28.25 34.7188 29.0469 34.4531 29.625C33.4453 31.8125 33.1875 32.5547 32.9297 34.125C32.7656 35.1172 32.7969 37.0469 33 37.75C33.2344 38.5859 33.5938 39.4141 33.9766 40C34.9062 41.4141 35.7891 42.2266 37.0938 42.8672C37.4922 43.0625 37.8125 43.2344 37.7969 43.2422C37.7422 43.2969 36.3984 43.1094 35.8516 42.9688C34.4141 42.6016 33.2891 41.8359 32.3359 40.5859C31.9531 40.0781 31.2344 38.6328 31.0156 37.9297C30.6406 36.6875 30.5312 35.0781 30.7422 33.7891C30.8594 33.0781 31.1953 31.9688 31.4375 31.4922C31.5156 31.3516 31.5625 31.2266 31.5469 31.2109C31.4766 31.1328 30.7188 31.8125 30.3125 32.3203C29.4922 33.3359 29.2031 34.2422 29.2031 35.7656V36.7266L28.0156 36.7031L26.8359 36.6797L26.8594 36.0156C26.9141 34.625 27.3906 32.875 28.125 31.3672C29.3906 28.7812 32.0312 26.2344 34.5703 25.1328C35.6016 24.6875 35.5469 24.6875 35.5469 25.0781ZM44.0547 24.9609C45.8828 25.6719 47.9297 27.1953 49.2969 28.8672C50.5547 30.4062 51.5 32.3125 51.9453 34.2188C52.125 34.9688 52.2969 36.5234 52.2188 36.6484C52.1875 36.7031 51.7734 36.7266 51 36.7031L49.8359 36.6719L49.8125 35.5078C49.7969 34.5703 49.7578 34.25 49.6328 33.9062C49.375 33.2109 49 32.5156 48.6953 32.1797C48.3594 31.8125 47.5078 31.1328 47.4531 31.1953C47.4297 31.2188 47.5 31.4141 47.6094 31.625C48.1797 32.7578 48.4375 33.8594 48.4375 35.1953C48.4375 36.7188 48.1484 37.9297 47.4219 39.4141C46.375 41.5703 44.3281 42.9844 41.9922 43.1719L41.4453 43.2109L41.9922 42.9141C44.2344 41.6875 45.6875 39.7422 46.1406 37.375C46.3203 36.4141 46.2578 34.3203 46.0234 33.3594C45.75 32.2656 45.3984 31.2656 44.9453 30.3125C44.3203 29 44.0781 28.3438 43.8672 27.4688C43.6484 26.5469 43.4297 24.7656 43.5391 24.7656C43.5547 24.7656 43.7812 24.8516 44.0547 24.9609ZM39.6797 28.1797C39.9766 28.9922 41.1172 30.5078 42.1328 31.4297C43.375 32.5625 44.2656 33.8906 44.5703 35.0547C44.7188 35.6172 44.7188 36.75 44.5703 37.4609C44.5078 37.7812 44.2891 38.3438 44.0547 38.8203C43.3203 40.2812 42.1406 41.3125 40.3906 42.0312L39.5703 42.3672L39.0625 42.1875C36.7578 41.375 35.0547 39.6328 34.5312 37.5469C34.2344 36.3594 34.3594 35.2109 34.9062 34.0312C35.2891 33.2188 35.7266 32.6562 36.7578 31.6406C37.2109 31.1875 37.8281 30.5234 38.1172 30.1562C38.6328 29.5156 39.3047 28.4297 39.4141 28.0625C39.4844 27.8125 39.5625 27.8516 39.6797 28.1797ZM24.2578 30.5469C24.4609 30.7734 24.3125 31.0938 24 31.0938C23.7344 31.0938 23.5938 30.9687 23.5938 30.7266C23.5938 30.4062 24.0234 30.2891 24.2578 30.5469ZM55.3203 30.4688C55.4844 30.5625 55.5156 30.8594 55.375 31C55.2188 31.1562 54.8594 31.1172 54.7656 30.9297C54.6953 30.8047 54.7031 30.7266 54.8047 30.5781C54.9375 30.375 55.0781 30.3438 55.3203 30.4688ZM24.6172 36.4297C25.4297 36.9766 25.4609 38.1094 24.6719 38.5938C24.0859 38.9531 23.4766 38.8672 23.0234 38.3672C22.4531 37.7344 22.5859 36.8438 23.3125 36.3984C23.6641 36.1875 24.2734 36.1953 24.6172 36.4297ZM55.6953 36.3672C56 36.5234 56.3047 36.9062 56.3984 37.2422C56.7031 38.3438 55.25 39.2812 54.375 38.5391C54.0469 38.2656 53.9062 37.9688 53.9062 37.5391C53.9062 36.7812 54.3984 36.25 55.1016 36.25C55.3047 36.25 55.5781 36.3047 55.6953 36.3672ZM18.2891 37.2656C18.5781 37.4219 18.4297 37.8906 18.0859 37.8906C17.7422 37.8906 17.5938 37.4375 17.875 37.2734C18.0469 37.1719 18.1016 37.1719 18.2891 37.2656ZM61.1875 37.3203C61.4531 37.5625 61.3125 37.8906 60.9375 37.8906C60.5625 37.8906 60.4375 37.6094 60.7031 37.3438C60.8906 37.1562 61 37.1484 61.1875 37.3203ZM62.5859 37.4297C62.6953 37.6328 62.5391 37.8906 62.3203 37.8906C61.9844 37.8906 61.8359 37.5547 62.0703 37.3203C62.2109 37.1719 62.4766 37.2344 62.5859 37.4297ZM16.9922 37.5781C16.9922 37.8203 16.9688 37.8516 16.7734 37.875C16.5234 37.9062 16.3281 37.7734 16.3281 37.5859C16.3281 37.375 16.5 37.2578 16.7578 37.2812C16.9688 37.3047 16.9922 37.3281 16.9922 37.5781ZM29.7188 38.5312C29.9141 39.25 30.4766 40.3906 31.0703 41.2812C31.8906 42.5156 32.8359 43.3906 34.6641 44.6172C37.4922 46.5156 38.4141 47.6875 38.7812 49.8594L38.8359 50.1562L38.4609 50.1094C36.8984 49.9375 35.1172 49.4375 33.9375 48.8438C32.4297 48.0859 30.8828 46.8516 29.8828 45.6016C28.125 43.4141 27.1484 41.1406 26.8359 38.4922L26.7891 38.0469H29.5859L29.7188 38.5312ZM52.2188 38.3359C51.75 41.8984 50.6094 44.2344 48.1797 46.6484C46.5781 48.2344 44.1797 49.4688 41.8125 49.9219C40.7109 50.1328 40.2812 50.1484 40.25 49.9766C40.2031 49.7344 40.6172 48.4219 40.9062 47.8984C41.625 46.5937 42.4609 45.8125 44.6094 44.4609C45.4609 43.9219 46.6016 43.0078 47.1172 42.4375C48.1094 41.3594 48.8906 40.0234 49.3047 38.7109C49.3984 38.4062 49.4922 38.1406 49.5078 38.1016C49.5234 38.0703 50.1484 38.0469 50.8984 38.0469H52.2578L52.2188 38.3359ZM24.2188 44.375C24.3984 44.5547 24.4062 44.6328 24.2969 44.8516C24.2031 45.0234 23.8359 45.0547 23.6875 44.9062C23.5391 44.7578 23.5781 44.4766 23.7656 44.3438C23.9922 44.1875 24.0312 44.1875 24.2188 44.375ZM55.2969 44.3438C55.6172 44.5703 55.4766 45 55.0781 45C54.6797 45 54.5625 44.6562 54.8438 44.375C55.0312 44.1875 55.0703 44.1875 55.2969 44.3438ZM40.5078 44.5703C40.8984 44.6406 41.3594 44.6875 41.5469 44.6641L41.8828 44.625L41.4297 45.0469C41.1797 45.2734 40.9531 45.4609 40.9219 45.4688C40.8281 45.4688 39.9609 46.5938 39.7656 46.9766C39.6562 47.1797 39.5547 47.3438 39.5312 47.3438C39.5078 47.3438 39.3203 47.0703 39.1016 46.7344C38.6953 46.0938 37.8516 45.2109 37.3203 44.8594L37 44.6484L37.9375 44.6016C38.4453 44.5703 38.9766 44.5078 39.1016 44.4688C39.3672 44.375 39.5078 44.3828 40.5078 44.5703ZM30.4219 51.8203C30.5938 51.9453 30.6172 52.3281 30.4609 52.4297C30.0391 52.6953 29.6406 52.2266 29.9766 51.8594C30.125 51.6953 30.2344 51.6797 30.4219 51.8203ZM49.125 51.8906C49.1797 51.9453 49.2188 52.0547 49.2188 52.1484C49.2188 52.375 49.0703 52.5 48.8125 52.5C48.5312 52.5 48.375 52.2187 48.5078 51.9609C48.6094 51.7812 48.9688 51.7344 49.125 51.8906ZM40.1172 52.3672C40.5547 52.6172 40.7969 53.0625 40.7578 53.5391C40.6484 54.7891 38.9688 55.125 38.4297 54C37.8906 52.8906 39.0469 51.7656 40.1172 52.3672Z" fill="#0B0F1A"/>
<path d="M39.3045 30.9922C38.9998 31.9141 38.7186 32.2656 37.3592 33.3906C36.4061 34.1875 35.953 35.0156 35.8826 36.0938C35.742 38.0703 37.0858 39.7656 39.0467 40.0859C41.5623 40.5 43.8123 38.0078 43.1639 35.5235C42.9139 34.5547 42.4686 33.9375 41.4998 33.2266C40.4764 32.4688 40.1639 32.0547 39.7967 31.0156C39.6951 30.7422 39.5858 30.5 39.5467 30.4844C39.5076 30.4766 39.3983 30.7031 39.3045 30.9922Z" fill="#0B0F1A"/>
<path d="M39.539 59.5937C39.414 59.8203 39.4296 59.8437 39.6484 59.8437C39.8671 59.8437 39.8905 59.7812 39.7343 59.5703C39.6327 59.4297 39.6249 59.4297 39.539 59.5937Z" fill="#0B0F1A"/>
</g>
<defs>
<clipPath id="clip0_1281_3804">
<rect width="80" height="80" fill="white"/>
</clipPath>
</defs>
</svg>
