<svg width="154" height="19" viewBox="0 0 154 19" fill="none" xmlns="http://www.w3.org/2000/svg">
<path d="M7.0615 0.959999H9.9895L16.4695 18H13.0615L11.4775 13.752H5.5255L3.9655 18H0.5575L7.0615 0.959999ZM10.8775 11.424L8.5255 4.728L6.0775 11.424H10.8775ZM21.6505 7.08V18H18.3385V0.959999H20.9065L29.7865 12.144V0.983999H33.0985V18H30.4105L21.6505 7.08ZM39.9552 7.08V18H36.6432V0.959999H39.2112L48.0912 12.144V0.983999H51.4032V18H48.7152L39.9552 7.08ZM66.7799 15.096V18H54.9479V0.959999H66.5639V3.864H58.2599V7.968H65.4359V10.656H58.2599V15.096H66.7799ZM87.2871 16.512V18H75.8391V0.959999H87.0711V2.448H77.5191V8.592H85.8471V10.008H77.5191V16.512H87.2871ZM90.4641 18V0.959999H96.2481C97.6081 0.959999 98.7921 1.184 99.8001 1.632C100.824 2.08 101.672 2.688 102.344 3.456C103.032 4.224 103.544 5.128 103.88 6.168C104.232 7.192 104.408 8.288 104.408 9.456C104.408 10.752 104.216 11.928 103.832 12.984C103.448 14.024 102.896 14.92 102.176 15.672C101.472 16.408 100.616 16.984 99.6081 17.4C98.6161 17.8 97.4961 18 96.2481 18H90.4641ZM102.728 9.456C102.728 8.432 102.584 7.496 102.296 6.648C102.008 5.784 101.584 5.04 101.024 4.416C100.48 3.792 99.8081 3.312 99.0081 2.976C98.2081 2.624 97.2881 2.448 96.2481 2.448H92.1441V16.512H96.2481C97.3041 16.512 98.2321 16.336 99.0321 15.984C99.8481 15.616 100.528 15.12 101.072 14.496C101.616 13.856 102.024 13.112 102.296 12.264C102.584 11.4 102.728 10.464 102.728 9.456ZM119.932 15.504C118.348 17.248 116.524 18.12 114.46 18.12C113.308 18.12 112.244 17.872 111.268 17.376C110.308 16.88 109.468 16.224 108.748 15.408C108.044 14.592 107.492 13.672 107.092 12.648C106.692 11.608 106.492 10.544 106.492 9.456C106.492 8.32 106.684 7.232 107.068 6.192C107.468 5.152 108.02 4.24 108.724 3.456C109.428 2.656 110.26 2.024 111.22 1.56C112.18 1.08 113.228 0.839999 114.364 0.839999C115.196 0.839999 115.956 0.935999 116.644 1.128C117.332 1.304 117.94 1.56 118.468 1.896C119.012 2.216 119.476 2.608 119.86 3.072C120.26 3.52 120.596 4.016 120.868 4.56L119.572 5.424C119.012 4.368 118.284 3.592 117.388 3.096C116.492 2.6 115.476 2.352 114.34 2.352C113.396 2.352 112.54 2.552 111.772 2.952C111.02 3.352 110.372 3.888 109.828 4.56C109.3 5.216 108.892 5.976 108.604 6.84C108.316 7.688 108.172 8.568 108.172 9.48C108.172 10.44 108.332 11.352 108.652 12.216C108.988 13.08 109.444 13.84 110.02 14.496C110.596 15.136 111.268 15.648 112.036 16.032C112.82 16.416 113.668 16.608 114.58 16.608C115.556 16.608 116.484 16.384 117.364 15.936C118.26 15.472 119.116 14.744 119.932 13.752V10.92H116.14V9.624H121.348V18H119.932V15.504ZM130.08 0.959999H131.496L138.576 18H136.8L134.592 12.672H126.936L124.752 18H122.952L130.08 0.959999ZM134.208 11.352L130.776 2.928L127.296 11.352H134.208ZM141.019 18V0.959999H148.219C148.955 0.959999 149.627 1.12 150.235 1.44C150.859 1.744 151.395 2.152 151.843 2.664C152.291 3.16 152.635 3.728 152.875 4.368C153.131 5.008 153.259 5.656 153.259 6.312C153.259 6.936 153.163 7.536 152.971 8.112C152.795 8.672 152.539 9.184 152.203 9.648C151.883 10.096 151.491 10.48 151.027 10.8C150.563 11.104 150.043 11.312 149.467 11.424L153.643 18H151.747L147.739 11.712H142.699V18H141.019ZM142.699 10.224H148.267C148.763 10.224 149.211 10.12 149.611 9.912C150.027 9.688 150.379 9.392 150.667 9.024C150.955 8.656 151.179 8.24 151.339 7.776C151.499 7.312 151.579 6.824 151.579 6.312C151.579 5.8 151.483 5.312 151.291 4.848C151.115 4.368 150.867 3.952 150.547 3.6C150.243 3.248 149.875 2.968 149.443 2.76C149.027 2.552 148.587 2.448 148.123 2.448H142.699V10.224Z" fill="#2A2F37"/>
</svg>
