<svg width="25" height="25" viewBox="0 0 25 25" fill="none" xmlns="http://www.w3.org/2000/svg">
<path fill-rule="evenodd" clip-rule="evenodd" d="M12.5 0C5.59644 0 0 5.58733 0 12.4796C0 19.372 5.59644 24.9593 12.5 24.9593C19.4036 24.9593 25 19.372 25 12.4796C25 5.58733 19.4036 0 12.5 0ZM12.1519 10.5731L12.1256 10.1413C12.0469 9.02207 12.7377 7.9998 13.8306 7.60322C14.2328 7.46222 14.9148 7.44459 15.3607 7.56797C15.5356 7.62085 15.8678 7.7971 16.1039 7.95573L16.5323 8.24655L17.0045 8.09674C17.2668 8.01742 17.6165 7.88523 17.7739 7.7971C17.9226 7.71779 18.0537 7.67372 18.0537 7.70016C18.0537 7.84998 17.7302 8.36112 17.4592 8.64312C17.0919 9.0397 17.1969 9.07495 17.94 8.81057C18.386 8.66075 18.3947 8.66075 18.3073 8.82819C18.2548 8.91632 17.9838 9.22476 17.6952 9.50677C17.2056 9.99147 17.1794 10.0443 17.1794 10.4497C17.1794 11.0754 16.8821 12.3797 16.5848 13.0936C16.034 14.4331 14.8536 15.8167 13.6732 16.5129C12.012 17.4911 9.79986 17.7379 7.93749 17.165C7.31671 16.9712 6.25 16.4776 6.25 16.3895C6.25 16.3631 6.57351 16.3278 6.96697 16.319C7.78885 16.3014 8.61074 16.0723 9.31022 15.6669L9.78237 15.3849L9.24027 15.1998C8.47085 14.9354 7.78011 14.3273 7.60524 13.7545C7.55278 13.5694 7.57027 13.5606 8.0599 13.5606L8.56703 13.5518L8.13859 13.3491C7.63147 13.0936 7.16807 12.6617 6.94074 12.2211C6.77461 11.9038 6.56477 11.1019 6.62597 11.0402C6.64346 11.0137 6.82707 11.0666 7.03691 11.1371C7.64021 11.3574 7.71891 11.3046 7.36917 10.9344C6.71341 10.2647 6.5123 9.26883 6.82707 8.32587L6.97571 7.90286L7.55278 8.47568C8.73315 9.63015 10.1234 10.3175 11.7147 10.5202L12.1519 10.5731Z" fill="#2A2F37"/>
</svg>
