<svg width="40" height="40" viewBox="0 0 40 40" fill="none" xmlns="http://www.w3.org/2000/svg">
<path fill-rule="evenodd" clip-rule="evenodd" d="M0 19.6721C0 8.80751 8.80751 0 19.6721 0C30.5367 0 39.3443 8.80751 39.3443 19.6721C39.3443 30.5367 30.5367 39.3443 19.6721 39.3443C8.80751 39.3443 0 30.5367 0 19.6721Z" fill="#0077B5"/>
<path fill-rule="evenodd" clip-rule="evenodd" d="M14.1957 12.1497C14.1667 10.8364 13.2276 9.83606 11.7025 9.83606C10.1774 9.83606 9.1803 10.8364 9.1803 12.1497C9.1803 13.4359 10.1479 14.465 11.6446 14.465H11.6731C13.2276 14.465 14.1957 13.4359 14.1957 12.1497ZM13.9016 16.2933H9.44343V29.6882H13.9016V16.2933ZM24.8467 15.9788C27.7804 15.9788 29.9797 17.8937 29.9797 22.008L29.9795 29.6882H25.5216V22.5219C25.5216 20.7219 24.8765 19.4937 23.2626 19.4937C22.031 19.4937 21.2973 20.3217 20.9751 21.1215C20.8573 21.4081 20.8283 21.8074 20.8283 22.2078V29.6885H16.3697C16.3697 29.6885 16.4284 17.5506 16.3697 16.2937H20.8283V18.191C21.42 17.2789 22.4798 15.9788 24.8467 15.9788Z" fill="white"/>
</svg>
