<svg width="40" height="40" viewBox="0 0 40 40" fill="none" xmlns="http://www.w3.org/2000/svg">
<path fill-rule="evenodd" clip-rule="evenodd" d="M0 19.6721C0 8.80751 8.80751 0 19.6721 0C30.5367 0 39.3443 8.80751 39.3443 19.6721C39.3443 30.5367 30.5367 39.3443 19.6721 39.3443C8.80751 39.3443 0 30.5367 0 19.6721Z" fill="#55ACEE"/>
<path fill-rule="evenodd" clip-rule="evenodd" d="M19.0829 15.9897L19.1242 16.6704L18.4362 16.587C15.9318 16.2675 13.744 15.184 11.8863 13.3641L10.9782 12.4612L10.7442 13.128C10.2489 14.6144 10.5654 16.1842 11.5974 17.24C12.1478 17.8234 12.0239 17.9068 11.0745 17.5595C10.7442 17.4483 10.4553 17.365 10.4278 17.4067C10.3314 17.5039 10.6617 18.7681 10.9231 19.2682C11.2809 19.9628 12.0102 20.6435 12.8083 21.0463L13.4825 21.3658L12.6844 21.3797C11.9139 21.3797 11.8863 21.3936 11.9689 21.6854C12.2441 22.5883 13.3312 23.5469 14.5421 23.9636L15.3952 24.2553L14.6521 24.6999C13.5513 25.3389 12.2579 25.7001 10.9644 25.7279C10.3452 25.7418 9.83606 25.7973 9.83606 25.839C9.83606 25.9779 11.5148 26.7559 12.4918 27.0615C15.4227 27.9645 18.9041 27.5755 21.5185 26.0335C23.3761 24.936 25.2338 22.755 26.1007 20.6435C26.5685 19.5182 27.0364 17.4622 27.0364 16.4759C27.0364 15.8369 27.0777 15.7535 27.8482 14.9895C28.3023 14.5449 28.7289 14.0587 28.8114 13.9198C28.949 13.6559 28.9353 13.6559 28.2335 13.892C27.0639 14.3088 26.8988 14.2532 27.4767 13.6281C27.9033 13.1835 28.4124 12.3778 28.4124 12.1417C28.4124 12.1 28.206 12.1694 27.9721 12.2945C27.7244 12.4334 27.174 12.6418 26.7612 12.7668L26.0181 13.003L25.3439 12.5445C24.9723 12.2945 24.4494 12.0166 24.1742 11.9333C23.4725 11.7388 22.3992 11.7666 21.7662 11.9888C20.0462 12.614 18.9591 14.2254 19.0829 15.9897Z" fill="white"/>
</svg>
