<svg width="40" height="40" viewBox="0 0 40 40" fill="none" xmlns="http://www.w3.org/2000/svg">
<path fill-rule="evenodd" clip-rule="evenodd" d="M0 19.6721C0 8.80751 8.80751 0 19.6721 0C30.5367 0 39.3443 8.80751 39.3443 19.6721C39.3443 30.5367 30.5367 39.3443 19.6721 39.3443C8.80751 39.3443 0 30.5367 0 19.6721Z" fill="#4C6C91"/>
<path fill-rule="evenodd" clip-rule="evenodd" d="M20.7012 26.128C20.7012 26.128 21.0799 26.0867 21.2738 25.8822C21.4514 25.6948 21.4452 25.3412 21.4452 25.3412C21.4452 25.3412 21.4216 23.69 22.2027 23.4462C22.9724 23.2065 23.9607 25.043 25.0096 25.7492C25.8019 26.2831 26.4033 26.1663 26.4033 26.1663L29.2062 26.128C29.2062 26.128 30.6718 26.0393 29.9769 24.908C29.9195 24.8153 29.5716 24.0708 27.8935 22.5416C26.1355 20.9408 26.3715 21.1997 28.4878 18.4303C29.7768 16.7438 30.292 15.7143 30.1309 15.274C29.978 14.8529 29.0297 14.9647 29.0297 14.9647L25.8748 14.9839C25.8748 14.9839 25.6408 14.9526 25.4673 15.0544C25.298 15.1541 25.1882 15.3868 25.1882 15.3868C25.1882 15.3868 24.6894 16.6915 24.0233 17.8016C22.6183 20.1429 22.0569 20.2668 21.827 20.1217C21.2923 19.7822 21.4257 18.7597 21.4257 18.0333C21.4257 15.7636 21.7767 14.8177 20.7432 14.5729C20.4005 14.4913 20.148 14.4379 19.2705 14.4288C18.1446 14.4177 17.1922 14.4328 16.6524 14.6917C16.2932 14.864 16.0161 15.2488 16.1854 15.271C16.3937 15.2982 16.8659 15.3959 17.1163 15.7304C17.4396 16.1626 17.4283 17.1317 17.4283 17.1317C17.4283 17.1317 17.614 19.8034 16.9941 20.1348C16.5692 20.3625 15.9863 19.8981 14.7332 17.7734C14.0917 16.6854 13.6073 15.4826 13.6073 15.4826C13.6073 15.4826 13.5139 15.2579 13.3466 15.137C13.1445 14.9909 12.8622 14.9456 12.8622 14.9456L9.86437 14.9647C9.86437 14.9647 9.41382 14.9768 9.24859 15.1692C9.10182 15.3395 9.2373 15.6931 9.2373 15.6931C9.2373 15.6931 11.5845 21.0838 14.2426 23.8008C16.6801 26.2912 19.447 26.128 19.447 26.128H20.7012Z" fill="white"/>
</svg>
