<svg width="132" height="132" viewBox="0 0 132 132" fill="none" xmlns="http://www.w3.org/2000/svg">
<g clip-path="url(#clip0_1145_112)">
<rect width="132" height="132" fill="white"/>
<path d="M0 66V132H132V0H0V66ZM66.5027 33.6445C66.9152 34.2504 67.5211 35.2559 67.8305 35.9004C68.8875 38.0145 69.2742 39.5227 69.5449 42.6422C69.8027 45.491 70.3699 47.8371 71.2723 49.6934L71.775 50.7246L70.5891 49.4871C68.0625 46.8445 66.5543 43.8668 65.6133 39.6387C65.3297 38.4012 65.0977 37.8211 65.0977 38.3625C65.0977 38.7105 64.2855 41.9074 63.9375 42.9258C63.0609 45.4395 60.8953 48.7781 59.3484 49.9512L58.9102 50.2863L59.2453 49.5387C60.1219 47.618 60.5215 45.8133 61.1016 41.1855C61.3207 39.4324 61.7203 37.8211 62.2359 36.6738C62.8031 35.4234 64.002 33.4125 64.6723 32.6004L65.1621 31.9945L65.4586 32.2652C65.6133 32.4199 66.0902 33.0258 66.5027 33.6445ZM50.3766 36.777C50.4281 37.2152 50.209 37.5117 49.8352 37.5117C49.4613 37.5117 49.2422 37.2797 49.2422 36.9316C49.2422 36.5449 49.5 36.3387 49.9512 36.3773C50.2734 36.4031 50.3508 36.4805 50.3766 36.777ZM81.082 36.5965C81.2625 36.9445 81.2496 37.0734 81.0047 37.3055C80.5535 37.7695 79.793 37.357 80.0121 36.777C80.1926 36.3 80.85 36.184 81.082 36.5965ZM58.6523 41.3789C58.6523 42.2168 58.2785 44.6531 57.9434 45.9551C57.7758 46.6125 57.2859 47.9273 56.8477 48.8813C55.1848 52.4906 54.7594 53.7152 54.334 56.3062C54.0633 57.9434 54.1148 61.1273 54.45 62.2875C54.8367 63.6668 55.4297 65.0332 56.0613 66C57.5953 68.3332 59.052 69.6738 61.2047 70.7309C61.8621 71.0531 62.3906 71.3367 62.3648 71.3496C62.2746 71.4398 60.0574 71.1305 59.1551 70.8984C56.7832 70.2926 54.927 69.0293 53.3543 66.9668C52.7227 66.1289 51.5367 63.7441 51.1758 62.584C50.557 60.5344 50.3766 57.8789 50.7246 55.752C50.918 54.5789 51.4723 52.7484 51.8719 51.9621C52.0008 51.7301 52.0781 51.5238 52.0523 51.498C51.9363 51.3691 50.6859 52.4906 50.0156 53.3285C48.6621 55.0043 48.1852 56.4996 48.1852 59.0133V60.5988L46.2258 60.5602L44.2793 60.5215L44.318 59.4258C44.4082 57.1313 45.1945 54.2437 46.4062 51.7559C48.4945 47.4891 52.8516 43.2867 57.041 41.4691C58.7426 40.7344 58.6523 40.7344 58.6523 41.3789ZM72.6902 41.1855C75.7066 42.3586 79.084 44.8723 81.3398 47.6309C83.4152 50.1703 84.975 53.3156 85.7098 56.4609C86.0063 57.6984 86.2898 60.2637 86.1609 60.4699C86.1094 60.5602 85.4262 60.5988 84.15 60.5602L82.2293 60.5086L82.1906 58.5879C82.1648 57.041 82.1004 56.5125 81.8941 55.9453C81.4687 54.798 80.85 53.6508 80.3473 53.0965C79.793 52.4906 78.3879 51.3691 78.2977 51.4723C78.259 51.5109 78.375 51.8332 78.5555 52.1812C79.4965 54.0504 79.9219 55.868 79.9219 58.0723C79.9219 60.5859 79.4449 62.584 78.2461 65.0332C76.5188 68.591 73.1414 70.9242 69.2871 71.2336L68.3848 71.298L69.2871 70.8082C72.9867 68.7844 75.3844 65.5746 76.132 61.6687C76.4285 60.0832 76.3254 56.6285 75.9387 55.043C75.4875 53.2383 74.9074 51.5883 74.1598 50.0156C73.1285 47.85 72.7289 46.7672 72.3809 45.3234C72.0199 43.8023 71.659 40.8633 71.8395 40.8633C71.8652 40.8633 72.2391 41.0051 72.6902 41.1855ZM65.4715 46.4965C65.9613 47.8371 67.8434 50.3379 69.5191 51.859C71.5687 53.7281 73.0383 55.9195 73.541 57.8402C73.7859 58.7684 73.7859 60.6375 73.541 61.8105C73.4379 62.3391 73.077 63.2672 72.6902 64.0535C71.4785 66.4641 69.532 68.1656 66.6445 69.3516L65.291 69.9059L64.4531 69.6094C60.6504 68.2688 57.8402 65.3941 56.9766 61.9523C56.4867 59.993 56.693 58.098 57.5953 56.1516C58.227 54.8109 58.9488 53.8828 60.6504 52.207C61.398 51.4594 62.4164 50.3637 62.8934 49.7578C63.7441 48.7008 64.8527 46.909 65.0332 46.3031C65.1492 45.8906 65.2781 45.9551 65.4715 46.4965ZM40.0254 50.4023C40.3605 50.7762 40.1156 51.3047 39.6 51.3047C39.1617 51.3047 38.9297 51.0984 38.9297 50.6988C38.9297 50.1703 39.6387 49.977 40.0254 50.4023ZM91.2785 50.2734C91.5492 50.4281 91.6008 50.918 91.3687 51.15C91.1109 51.4078 90.518 51.3434 90.3633 51.034C90.2473 50.8277 90.2602 50.6988 90.4277 50.4539C90.6469 50.1187 90.8789 50.0672 91.2785 50.2734ZM40.6184 60.109C41.959 61.0113 42.0105 62.8805 40.7086 63.6797C39.7418 64.2727 38.7363 64.1309 37.9887 63.3059C37.0477 62.2617 37.2668 60.7922 38.4656 60.0574C39.0457 59.7094 40.0512 59.7223 40.6184 60.109ZM91.8973 60.0059C92.4 60.2637 92.9027 60.8953 93.0574 61.4496C93.5602 63.2672 91.1625 64.8141 89.7188 63.5895C89.1773 63.1383 88.9453 62.6484 88.9453 61.9395C88.9453 60.6891 89.7574 59.8125 90.9176 59.8125C91.2527 59.8125 91.7039 59.9027 91.8973 60.0059ZM30.177 61.4883C30.6539 61.7461 30.409 62.5195 29.8418 62.5195C29.2746 62.5195 29.0297 61.7719 29.4938 61.5012C29.7773 61.3336 29.8676 61.3336 30.177 61.4883ZM100.959 61.5785C101.398 61.9781 101.166 62.5195 100.547 62.5195C99.9281 62.5195 99.7219 62.0555 100.16 61.6172C100.47 61.3078 100.65 61.2949 100.959 61.5785ZM103.267 61.759C103.447 62.0941 103.189 62.5195 102.829 62.5195C102.274 62.5195 102.029 61.9652 102.416 61.5785C102.648 61.3336 103.086 61.4367 103.267 61.759ZM28.0371 62.0039C28.0371 62.4035 27.9984 62.4551 27.6762 62.4937C27.2637 62.5453 26.9414 62.3262 26.9414 62.0168C26.9414 61.6688 27.225 61.4754 27.6504 61.5141C27.9984 61.5527 28.0371 61.5914 28.0371 62.0039ZM49.0359 63.5766C49.3582 64.7625 50.2863 66.6445 51.266 68.1141C52.6195 70.1508 54.1793 71.5945 57.1957 73.6184C61.8621 76.7508 63.3832 78.6844 63.9891 82.268L64.0793 82.7578L63.4605 82.6805C60.8824 82.3969 57.9434 81.5719 55.9969 80.5922C53.509 79.3418 50.9566 77.3051 49.3066 75.2426C46.4062 71.6332 44.7949 67.882 44.2793 63.5121L44.202 62.7773H48.8168L49.0359 63.5766ZM86.1609 63.2543C85.3875 69.1324 83.5055 72.9867 79.4965 76.9699C76.8539 79.5867 72.8965 81.6234 68.9906 82.3711C67.173 82.7191 66.4641 82.7449 66.4125 82.4613C66.3352 82.0617 67.0184 79.8961 67.4953 79.0324C68.6812 76.8797 70.0605 75.5906 73.6055 73.3605C75.0105 72.4711 76.8926 70.9629 77.7434 70.0219C79.3805 68.243 80.6695 66.0387 81.3527 63.873C81.5074 63.3703 81.6621 62.932 81.6879 62.8676C81.7137 62.816 82.7449 62.7773 83.9824 62.7773H86.2254L86.1609 63.2543ZM39.9609 73.2188C40.2574 73.5152 40.2703 73.6441 40.0898 74.0051C39.9352 74.2887 39.3293 74.3402 39.0844 74.0953C38.8395 73.8504 38.9039 73.3863 39.2133 73.1672C39.5871 72.9094 39.6516 72.9094 39.9609 73.2188ZM91.2398 73.1672C91.7684 73.541 91.5363 74.25 90.8789 74.25C90.2215 74.25 90.0281 73.6828 90.4922 73.2188C90.8016 72.9094 90.866 72.9094 91.2398 73.1672ZM66.8379 73.541C67.4824 73.657 68.243 73.7344 68.5523 73.6957L69.1066 73.6313L68.359 74.3273C67.9465 74.7012 67.5727 75.0105 67.5211 75.0234C67.3664 75.0234 65.9355 76.8797 65.6133 77.5113C65.4328 77.8465 65.2652 78.1172 65.2266 78.1172C65.1879 78.1172 64.8785 77.666 64.5176 77.1117C63.8473 76.0547 62.4551 74.598 61.5785 74.018L61.05 73.6699L62.5969 73.5926C63.4348 73.541 64.3113 73.4379 64.5176 73.3734C64.9559 73.2188 65.1879 73.2316 66.8379 73.541ZM50.1961 85.5035C50.4797 85.7098 50.5184 86.3414 50.2605 86.509C49.5645 86.9473 48.907 86.1738 49.4613 85.568C49.7063 85.2973 49.8867 85.2715 50.1961 85.5035ZM81.0562 85.6195C81.1465 85.7098 81.2109 85.8902 81.2109 86.0449C81.2109 86.4188 80.966 86.625 80.5406 86.625C80.0766 86.625 79.8188 86.1609 80.0379 85.7355C80.2055 85.4391 80.7984 85.3617 81.0562 85.6195ZM66.1934 86.4059C66.9152 86.8184 67.3148 87.5531 67.2504 88.3395C67.0699 90.402 64.2984 90.9563 63.409 89.1C62.5195 87.2695 64.4273 85.4133 66.1934 86.4059Z" fill="#07051C"/>
<path d="M64.8527 51.1372C64.3499 52.6583 63.8859 53.2383 61.6429 55.0946C60.0703 56.4094 59.3226 57.7758 59.2066 59.5547C58.9746 62.8161 61.1917 65.6133 64.4273 66.1418C68.5781 66.8251 72.2906 62.7129 71.2206 58.6137C70.8081 57.0153 70.0734 55.9969 68.4749 54.8239C66.7863 53.5735 66.2706 52.8903 65.6648 51.1758C65.4972 50.7247 65.3167 50.3251 65.2523 50.2993C65.1878 50.2864 65.0074 50.6602 64.8527 51.1372Z" fill="#07051C"/>
<path d="M65.2394 98.3297C65.0332 98.7035 65.059 98.7422 65.4199 98.7422C65.7808 98.7422 65.8195 98.6391 65.5617 98.2911C65.3941 98.059 65.3812 98.059 65.2394 98.3297Z" fill="#07051C"/>
</g>
<defs>
<clipPath id="clip0_1145_112">
<rect width="132" height="132" fill="white"/>
</clipPath>
</defs>
</svg>
